<svg width="358" height="359" viewBox="0 0 358 359" fill="none" xmlns="http://www.w3.org/2000/svg">
<path d="M77.2503 205.863L11.3203 275.684C15.148 277.245 18.9994 278.751 22.8112 280.237L77.2305 218.424L77.2503 205.863Z" fill="#192E36"/>
<path d="M77.2231 205.863H69.0844C67.9772 205.862 66.8824 206.097 65.8723 206.55C64.8622 207.004 63.9596 207.666 63.2241 208.494L16.7969 260.762C19.6207 261.969 22.4631 263.143 25.3239 264.284L77.2231 205.863Z" fill="#56656B"/>
<path d="M165.967 272.827C160.66 272.825 155.413 271.701 150.57 269.528C145.728 267.355 141.4 264.182 137.87 260.219L91.1141 208.03C90.5033 207.35 89.7563 206.805 88.9215 206.431C88.0866 206.058 87.1826 205.864 86.2681 205.863H77.8203V218.404H78.7396L131.36 277.507C135.706 282.39 141.037 286.298 147.002 288.975C152.966 291.651 159.43 293.035 165.967 293.035H311.783C312.001 286.299 312.651 279.611 313.122 272.827H165.967Z" fill="#42535A"/>
<path d="M161.95 281.544C151.223 281.544 142.296 278.335 135.168 270.323L77.8203 205.863V218.404L128.666 276.112C137.458 285.99 152.753 293.027 165.975 293.027H311.791C311.914 289.196 312.187 285.372 312.472 281.536L161.95 281.544Z" fill="#0D232B"/>
<path d="M39.0111 223.377L55.653 329.28C58.0305 344.337 70.1157 356.121 82.7518 356.121H140.044C139.925 355.725 138.209 350.471 135.61 342.459C131.251 341.706 127.039 339.95 123.846 336.816C120.505 333.543 118.694 329.038 118.009 324.469C117.943 324.016 117.921 323.557 117.942 323.098C117.152 320.16 116.565 317.171 116.186 314.151C115.208 306.952 114.261 299.788 113.559 292.553C112.858 285.317 112.077 278.094 110.48 270.962C110.295 270.161 110.298 269.329 110.489 268.531C110.679 267.732 111.052 266.988 111.578 266.357C108.44 255.829 106.276 247.928 106.031 245.483C105.183 236.314 106.669 227.363 104.47 218.389H41.9591C39.9105 218.405 38.5792 220.639 39.0111 223.377ZM89.3927 320.622H101.426L102.79 334.645H90.9697L89.3927 320.622ZM86.3456 293.547H98.7954L100.254 308.545H88.0336L86.3456 293.547ZM83.1004 264.523H95.9782L97.5394 280.606H84.8914L83.1004 264.523ZM81.5393 250.654L79.5938 233.37H92.9668L94.6468 250.654H81.5393ZM65.8443 320.622H77.882L79.6651 334.645H67.8453L65.8443 320.622ZM61.9849 293.547H74.4347L76.3644 308.541H64.1246L61.9849 293.547ZM57.8482 264.527H70.7418L72.7983 280.606H60.1424L57.8482 264.527ZM53.4024 233.355H66.7794L68.9746 250.638H55.867L53.4024 233.355Z" fill="#DABEBE"/>
<g style="mix-blend-mode:multiply" opacity="0.7">
<path d="M39.0111 223.377L55.653 329.28C58.0305 344.337 70.1157 356.121 82.7518 356.121H140.044C139.517 354.314 137.032 348.79 133.621 341.412C133.312 341.377 133.008 341.302 132.717 341.19C130.534 340.339 128.145 339.792 126.164 338.476C123.533 336.729 122.039 334.169 120.886 331.312C118.702 325.896 118.607 319.913 117.977 314.242C117.917 313.573 118.014 312.898 118.262 312.273C118.51 311.649 118.901 311.091 119.404 310.645C112.121 294.561 106.966 255.385 106.051 245.499C105.203 236.33 106.688 227.379 104.489 218.404H41.9591C39.9105 218.404 38.5792 220.639 39.0111 223.377ZM89.3927 320.622H101.426L102.79 334.645H90.9697L89.3927 320.622ZM86.3456 293.547H98.7954L100.254 308.544H88.0336L86.3456 293.547ZM83.1004 264.522H95.9782L97.5394 280.606H84.8914L83.1004 264.522ZM79.5938 233.35H92.9668L94.6468 250.634H81.5155L79.5938 233.35ZM65.8443 320.622H77.882L79.6651 334.645H67.8453L65.8443 320.622ZM61.9849 293.547H74.4347L76.3644 308.54H64.1246L61.9849 293.547ZM57.8482 264.526H70.7418L72.7983 280.606H60.1424L57.8482 264.526ZM53.4024 233.354H66.7794L68.9746 250.638H55.867L53.4024 233.354Z" fill="#DABEBE"/>
</g>
<path d="M65.0465 306.928L84.8584 18.3596C85.2162 13.1467 87.6293 8.28922 91.5673 4.85496C95.5053 1.4207 100.646 -0.309214 105.859 0.0455061L287.962 12.5508C293.175 12.9085 298.032 15.3216 301.467 19.2596C304.901 23.1977 306.631 28.3383 306.276 33.5514L286.464 322.12C286.107 327.332 283.693 332.19 279.755 335.624C275.817 339.058 270.677 340.788 265.464 340.434L83.3607 327.944C80.7781 327.767 78.2556 327.083 75.9375 325.931C73.6193 324.779 71.5508 323.181 69.8501 321.23C68.1494 319.278 66.8498 317.011 66.0256 314.557C65.2014 312.103 64.8687 309.51 65.0465 306.928Z" fill="#97ACB3"/>
<path d="M61.3458 308.644L81.1181 20.8804C81.4981 15.368 84.0514 10.2322 88.2168 6.60184C92.3822 2.97145 97.8186 1.14363 103.331 1.52017L285.422 14.0254C288.153 14.2126 290.821 14.936 293.273 16.1542C295.724 17.3725 297.912 19.0619 299.71 21.1257C301.509 23.1896 302.883 25.5876 303.755 28.1827C304.627 30.7779 304.978 33.5193 304.79 36.2504L285.026 324.014C284.647 329.53 282.093 334.669 277.925 338.301C273.757 341.933 268.317 343.761 262.801 343.382L80.7218 330.869C77.9901 330.682 75.322 329.959 72.8697 328.741C70.4175 327.523 68.2292 325.834 66.4299 323.77C64.6306 321.707 63.2555 319.308 62.3832 316.713C61.5108 314.118 61.1583 311.376 61.3458 308.644Z" fill="#0C252E"/>
<path d="M63.5037 309.725L83.4939 18.7399C83.6599 16.3159 84.3018 13.9484 85.383 11.7726C86.4642 9.59683 87.9635 7.65537 89.7952 6.05915C91.627 4.46293 93.7552 3.24323 96.0584 2.46972C98.3616 1.69621 100.795 1.38406 103.219 1.55109L287.739 14.2307C292.633 14.568 297.194 16.8354 300.417 20.5342C303.64 24.2331 305.263 29.0606 304.927 33.9554L284.941 324.933C284.604 329.828 282.336 334.39 278.636 337.614C274.937 340.838 270.108 342.461 265.213 342.125L80.6964 329.446C75.8022 329.108 71.2421 326.842 68.0183 323.144C64.7945 319.446 63.1707 314.62 63.5037 309.725Z" fill="#184657"/>
<path d="M280.508 321.783L300.109 36.4585L87.9051 21.8802L68.3036 307.204L280.508 321.783Z" fill="white"/>
<path d="M87.9116 21.8899L300.113 36.4635L280.519 321.786L68.3137 307.213L87.9116 21.8899ZM86.8735 20.7012L67.125 308.251L281.553 322.975L301.302 35.4254L86.8735 20.7012Z" fill="#1A1A1A"/>
<path d="M164.697 323.779C164.722 323.468 164.867 323.18 165.102 322.975C165.337 322.771 165.643 322.667 165.954 322.685L179.822 323.636C180.106 323.692 180.361 323.849 180.537 324.079C180.714 324.309 180.8 324.596 180.78 324.885C180.76 325.174 180.635 325.446 180.429 325.649C180.222 325.853 179.949 325.974 179.659 325.99L165.791 325.035C165.481 325.011 165.192 324.865 164.988 324.63C164.783 324.396 164.679 324.09 164.697 323.779Z" fill="#035E80"/>
<path d="M193.652 20.8835C193.299 20.8599 192.961 20.732 192.681 20.5161C192.401 20.3003 192.191 20.006 192.078 19.6708C191.965 19.3355 191.954 18.9743 192.047 18.6329C192.139 18.2914 192.331 17.9852 192.598 17.7529C192.865 17.5205 193.194 17.3726 193.545 17.3278C193.896 17.2831 194.252 17.3435 194.569 17.5014C194.886 17.6592 195.148 17.9075 195.323 18.2148C195.499 18.522 195.579 18.8744 195.554 19.2273C195.538 19.4609 195.476 19.6891 195.372 19.8988C195.267 20.1085 195.123 20.2956 194.946 20.4494C194.769 20.6032 194.564 20.7207 194.342 20.7952C194.12 20.8697 193.886 20.8997 193.652 20.8835Z" fill="#1A1A1A"/>
<path d="M307.111 5.01807H94.4062V77.9139H307.111V5.01807Z" fill="#F7F7EF"/>
<path d="M300.165 35.7501L87.9609 21.1719L87.4395 28.7618L299.644 43.34L300.165 35.7501Z" fill="#0D232B"/>
<path d="M102.885 25.904C102.868 26.1527 102.777 26.3907 102.625 26.588C102.472 26.7853 102.265 26.9329 102.028 27.0122C101.792 27.0915 101.538 27.099 101.297 27.0336C101.056 26.9682 100.841 26.8329 100.677 26.6448C100.513 26.4568 100.409 26.2244 100.378 25.9771C100.346 25.7298 100.389 25.4787 100.5 25.2556C100.611 25.0325 100.786 24.8474 101.002 24.7237C101.219 24.6 101.467 24.5433 101.716 24.5607C102.048 24.5851 102.358 24.74 102.577 24.9916C102.796 25.2432 102.906 25.5711 102.885 25.904ZM111.689 26.5102C111.671 26.7579 111.581 26.9949 111.429 27.1914C111.278 27.388 111.071 27.5353 110.836 27.6148C110.601 27.6944 110.347 27.7026 110.107 27.6386C109.867 27.5746 109.652 27.4411 109.487 27.2549C109.323 27.0687 109.217 26.8381 109.184 26.592C109.15 26.346 109.19 26.0955 109.298 25.872C109.406 25.6485 109.578 25.462 109.792 25.3358C110.006 25.2097 110.252 25.1496 110.5 25.163C110.667 25.1721 110.831 25.2143 110.981 25.2871C111.132 25.36 111.266 25.4621 111.377 25.5875C111.488 25.7129 111.572 25.8591 111.626 26.0175C111.679 26.1759 111.701 26.3434 111.689 26.5102ZM94.5953 25.3334C94.5786 25.5813 94.4888 25.8188 94.3375 26.0158C94.1861 26.2129 93.9798 26.3608 93.7446 26.441C93.5094 26.5212 93.2557 26.53 93.0155 26.4663C92.7753 26.4027 92.5593 26.2695 92.3946 26.0834C92.2299 25.8973 92.1239 25.6666 92.0899 25.4205C92.056 25.1743 92.0956 24.9236 92.2038 24.6998C92.3119 24.4761 92.4838 24.2894 92.6979 24.1631C92.9119 24.0368 93.1585 23.9766 93.4066 23.9901C93.5729 24.0002 93.7355 24.043 93.8853 24.116C94.035 24.189 94.1689 24.2907 94.2793 24.4155C94.3897 24.5402 94.4744 24.6855 94.5286 24.843C94.5829 25.0005 94.6055 25.1671 94.5953 25.3334ZM292.033 38.8926C292.016 39.1406 291.926 39.378 291.775 39.5751C291.624 39.7722 291.417 39.9201 291.182 40.0003C290.947 40.0804 290.693 40.0892 290.453 40.0256C290.213 39.962 289.997 39.8287 289.832 39.6426C289.667 39.4565 289.561 39.2259 289.527 38.9797C289.493 38.7335 289.533 38.4828 289.641 38.2591C289.749 38.0354 289.921 37.8486 290.135 37.7224C290.349 37.5961 290.596 37.5359 290.844 37.5494C291.011 37.5585 291.174 37.6005 291.324 37.6732C291.474 37.7458 291.609 37.8476 291.719 37.9725C291.83 38.0975 291.914 38.2432 291.968 38.4011C292.022 38.5591 292.044 38.7262 292.033 38.8926ZM285.661 38.4568C285.644 38.7047 285.555 38.9422 285.403 39.1392C285.252 39.3363 285.046 39.4842 284.81 39.5644C284.575 39.6446 284.322 39.6534 284.081 39.5897C283.841 39.5261 283.625 39.3929 283.46 39.2068C283.296 39.0207 283.19 38.79 283.156 38.5439C283.122 38.2977 283.161 38.047 283.27 37.8232C283.378 37.5995 283.55 37.4128 283.764 37.2865C283.978 37.1602 284.224 37.1 284.472 37.1135C284.639 37.1226 284.802 37.1647 284.953 37.2373C285.103 37.3099 285.237 37.4117 285.348 37.5367C285.458 37.6616 285.543 37.8073 285.597 37.9653C285.651 38.1232 285.672 38.2903 285.661 38.4568Z" fill="#E6E5CE"/>
<path d="M199.981 31.1496L186.062 30.1934L185.89 32.7075L199.809 33.6637L199.981 31.1496Z" fill="#E6E5CE"/>
<path d="M286.182 240.649L74.1719 226.084L68.6011 307.173L280.612 321.738L286.182 240.649Z" fill="#F7F7EF"/>
<path d="M295.339 107.41L83.3281 92.8452L83.1633 95.2447L295.174 109.81L295.339 107.41Z" fill="#ECECDB"/>
<path d="M119.763 49.0681C119.603 49.0556 119.443 49.0754 119.291 49.1265C119.139 49.1775 118.999 49.2588 118.879 49.3653L111.862 55.4792C111.658 55.6559 111.492 55.8712 111.372 56.1127C111.253 56.3541 111.182 56.6169 111.165 56.8859L109.58 80.0737C109.574 80.1471 109.583 80.2209 109.607 80.2907C109.63 80.3606 109.667 80.4252 109.715 80.4808C109.763 80.5364 109.822 80.5819 109.888 80.6147C109.954 80.6475 110.025 80.667 110.099 80.6721L133.671 82.2927C134.104 82.3218 134.531 82.1795 134.86 81.8964L141.853 75.8023C142.123 75.5626 142.29 75.2272 142.317 74.8672L143.926 51.402C143.936 51.2512 143.887 51.1022 143.788 50.9878C143.689 50.8734 143.549 50.8029 143.399 50.7918L119.763 49.0681Z" fill="#253940"/>
<path opacity="0.34" d="M118.922 49.3452L111.632 55.7048C111.594 55.7315 111.565 55.7696 111.55 55.8137C111.536 55.8577 111.535 55.9053 111.549 55.9495C111.564 55.9938 111.592 56.0323 111.629 56.0596C111.667 56.0868 111.712 56.1013 111.759 56.101L136.048 57.7692L143.576 51.2154C143.616 51.1804 143.645 51.1343 143.659 51.0829C143.673 51.0316 143.671 50.9772 143.654 50.9268C143.637 50.8764 143.606 50.8321 143.564 50.7996C143.522 50.767 143.471 50.7476 143.418 50.7439L119.715 49.0678C119.571 49.0593 119.427 49.0795 119.291 49.1271C119.155 49.1747 119.03 49.2488 118.922 49.3452Z" fill="white"/>
<g style="mix-blend-mode:multiply" opacity="0.7">
<path d="M134.352 82.3516L142.276 75.4333L143.933 51.3024C143.935 51.2591 143.925 51.216 143.903 51.1785C143.881 51.141 143.849 51.1107 143.81 51.0913C143.772 51.0719 143.728 51.0643 143.685 51.0694C143.642 51.0745 143.601 51.0922 143.568 51.1201L135.996 57.7175L134.352 82.3516Z" fill="#DABEBE"/>
</g>
<path d="M128.708 93.439L113.631 92.4032C112.243 92.3078 111.04 93.3561 110.944 94.7446L110.761 97.4208C110.665 98.8094 111.714 100.012 113.102 100.108L128.179 101.143C129.568 101.239 130.771 100.191 130.866 98.802L131.05 96.1258C131.145 94.7373 130.097 93.5344 128.708 93.439Z" fill="#45565C"/>
<path d="M187.622 97.4878L172.545 96.452C171.157 96.3566 169.954 97.4049 169.859 98.7934L169.675 101.47C169.579 102.858 170.628 104.061 172.016 104.157L187.093 105.192C188.482 105.288 189.685 104.239 189.78 102.851L189.964 100.175C190.059 98.7861 189.011 97.5832 187.622 97.4878Z" fill="#45565C"/>
<path d="M254.466 102.077L239.389 101.041C238.001 100.946 236.798 101.994 236.702 103.383L236.518 106.059C236.423 107.448 237.471 108.651 238.86 108.746L253.937 109.782C255.325 109.877 256.528 108.829 256.624 107.44L256.808 104.764C256.903 103.375 255.855 102.173 254.466 102.077Z" fill="#45565C"/>
<path d="M282.331 296.72L70.3203 282.155L70.1555 284.555L282.166 299.12L282.331 296.72Z" fill="#ECECDB"/>
<path d="M125.755 283.44L110.678 282.405C109.29 282.309 108.087 283.358 107.991 284.746L107.807 287.422C107.712 288.811 108.76 290.014 110.149 290.109L125.226 291.145C126.614 291.24 127.817 290.192 127.913 288.804L128.097 286.127C128.192 284.739 127.144 283.536 125.755 283.44Z" fill="#45565C"/>
<path d="M184.669 287.488L169.592 286.452C168.204 286.357 167.001 287.405 166.905 288.793L166.722 291.47C166.626 292.858 167.674 294.061 169.063 294.157L184.14 295.192C185.528 295.288 186.731 294.239 186.827 292.851L187.011 290.175C187.106 288.786 186.058 287.583 184.669 287.488Z" fill="#45565C"/>
<path d="M242.466 291.459L227.389 290.424C226.001 290.328 224.798 291.377 224.702 292.765L224.518 295.441C224.423 296.83 225.471 298.033 226.86 298.128L241.937 299.164C243.325 299.259 244.528 298.211 244.624 296.823L244.808 294.146C244.903 292.758 243.855 291.555 242.466 291.459Z" fill="#45565C"/>
<path d="M211.958 151.21L220.652 142.227L225.87 142.588L223.945 150.909C223.897 151.103 223.865 151.241 223.842 151.305C223.807 151.427 223.766 151.548 223.719 151.665C223.85 151.648 223.983 151.641 224.115 151.646L224.511 151.673L225.811 151.764L225.042 155.057L223.01 154.919L222.177 158.508L218.215 158.235L218.877 155.378C218.924 155.184 218.96 155.045 218.98 154.982C219 154.919 219.043 154.78 219.103 154.621C218.971 154.633 218.838 154.633 218.706 154.621L218.31 154.594L211.305 154.114L211.958 151.21ZM220.513 148.547C220.6 148.19 220.688 147.885 220.771 147.628L221.009 146.895C221.08 146.661 221.167 146.415 221.266 146.162C221.365 145.908 221.484 145.599 221.627 145.25L221.508 145.167C221.238 145.528 221.001 145.833 220.803 146.09C220.604 146.348 220.406 146.59 220.224 146.815C220.042 147.041 219.828 147.271 219.61 147.513L218.817 148.381L217.886 149.375L217.371 149.906C217.236 150.045 217.106 150.172 216.975 150.302L216.579 150.671C216.448 150.794 216.277 150.944 216.067 151.127V151.226C216.281 151.226 216.464 151.226 216.598 151.226H217.018C217.162 151.218 217.306 151.218 217.45 151.226L218.013 151.265L219.804 151.388L220.513 148.547ZM226.619 153.52C227.083 153.944 227.503 154.312 227.875 154.602C228.208 154.871 228.562 155.114 228.933 155.327C229.239 155.499 229.565 155.632 229.904 155.723C230.234 155.813 230.573 155.869 230.914 155.889C231.67 155.98 232.432 155.777 233.042 155.323C233.32 155.104 233.547 154.826 233.705 154.51C233.863 154.193 233.949 153.846 233.958 153.492C233.993 153.159 233.949 152.823 233.83 152.511C233.711 152.198 233.52 151.918 233.272 151.693C232.641 151.186 231.858 150.907 231.049 150.901C230.528 150.857 230.005 150.857 229.484 150.901C228.853 150.963 228.226 151.059 227.606 151.19L230.732 142.909L239.449 143.507L238.566 147.041L233.149 146.669L232.753 147.628C232.658 147.854 232.579 148.024 232.523 148.131C232.468 148.238 232.365 148.404 232.218 148.626L232.289 148.682C232.541 148.562 232.808 148.477 233.082 148.428C233.344 148.389 233.61 148.378 233.874 148.396C234.529 148.432 235.171 148.594 235.764 148.872C236.303 149.129 236.781 149.498 237.167 149.954C237.553 150.418 237.837 150.958 238.003 151.539C238.189 152.194 238.255 152.877 238.197 153.556C238.148 154.457 237.912 155.338 237.504 156.143C237.114 156.891 236.575 157.55 235.919 158.081C235.238 158.631 234.452 159.035 233.609 159.269C232.674 159.524 231.702 159.615 230.736 159.539C229.702 159.485 228.684 159.253 227.729 158.853C226.812 158.444 225.975 157.874 225.26 157.169L226.619 153.52ZM245.972 150.156C245.745 150.229 245.508 150.262 245.27 150.251C244.954 150.234 244.644 150.155 244.359 150.017C244.093 149.889 243.857 149.707 243.665 149.482C243.474 149.258 243.331 148.996 243.245 148.713C243.151 148.4 243.116 148.073 243.142 147.747C243.167 147.333 243.276 146.928 243.463 146.558C243.642 146.213 243.889 145.909 244.188 145.662C244.5 145.414 244.859 145.231 245.242 145.124C245.668 145.006 246.11 144.963 246.55 144.997C246.974 145.021 247.391 145.118 247.782 145.282C248.132 145.424 248.447 145.637 248.71 145.908C248.96 146.169 249.151 146.481 249.268 146.823C249.393 147.193 249.442 147.584 249.411 147.973C249.396 148.19 249.357 148.405 249.296 148.614C249.229 148.842 249.14 149.062 249.031 149.272C248.902 149.517 248.755 149.751 248.591 149.973C248.416 150.215 248.194 150.477 247.965 150.766C247.735 151.055 247.533 151.249 247.291 151.495C247.049 151.741 246.816 151.971 246.586 152.177C246.356 152.383 246.122 152.597 245.734 152.922L243.063 152.739L244.688 151.257C244.822 151.131 244.941 151.027 245.044 150.94L245.33 150.703L245.615 150.477C245.714 150.401 245.841 150.31 246.011 150.211L245.972 150.156ZM246.368 146.701C246.213 146.683 246.056 146.698 245.907 146.744C245.758 146.791 245.621 146.867 245.503 146.97C245.386 147.073 245.291 147.198 245.225 147.34C245.159 147.481 245.123 147.634 245.12 147.79C245.104 147.943 245.12 148.098 245.168 148.244C245.216 148.39 245.294 148.524 245.397 148.638C245.496 148.754 245.617 148.848 245.753 148.916C245.889 148.984 246.038 149.024 246.189 149.034C246.345 149.051 246.501 149.036 246.65 148.99C246.8 148.945 246.938 148.869 247.057 148.769C247.241 148.619 247.375 148.416 247.44 148.187C247.505 147.959 247.499 147.716 247.421 147.491C247.344 147.267 247.2 147.071 247.008 146.931C246.816 146.791 246.585 146.714 246.348 146.709L246.368 146.701ZM252.64 150.615C252.413 150.685 252.176 150.717 251.939 150.711C251.623 150.691 251.313 150.611 251.028 150.473C250.762 150.345 250.526 150.165 250.334 149.942C250.142 149.709 249.999 149.439 249.914 149.149C249.822 148.837 249.788 148.511 249.815 148.186C249.836 147.772 249.945 147.367 250.136 146.998C250.311 146.651 250.558 146.346 250.861 146.102C251.171 145.852 251.53 145.668 251.915 145.563C252.34 145.444 252.783 145.401 253.223 145.437C253.646 145.462 254.062 145.557 254.455 145.718C254.803 145.861 255.117 146.074 255.378 146.344C255.63 146.606 255.822 146.92 255.941 147.263C256.066 147.631 256.114 148.021 256.084 148.408C256.066 148.627 256.028 148.843 255.969 149.054C255.9 149.281 255.809 149.502 255.699 149.712C255.57 149.956 255.425 150.19 255.263 150.413C255.085 150.655 254.867 150.917 254.633 151.206C254.4 151.495 254.201 151.693 253.964 151.939C253.726 152.185 253.484 152.414 253.258 152.62C253.032 152.826 252.791 153.04 252.402 153.365L249.736 153.179L251.356 151.701C251.495 151.574 251.614 151.467 251.713 151.384L251.998 151.146L252.284 150.921C252.387 150.841 252.509 150.754 252.68 150.651L252.64 150.615ZM253.036 147.16C252.808 147.151 252.581 147.208 252.384 147.324C252.187 147.44 252.028 147.611 251.925 147.815C251.823 148.02 251.781 148.25 251.806 148.477C251.831 148.705 251.921 148.92 252.066 149.098C252.281 149.323 252.572 149.46 252.882 149.483C253.192 149.505 253.5 149.412 253.746 149.221C253.861 149.122 253.956 149.001 254.024 148.865C254.092 148.728 254.132 148.58 254.142 148.428C254.165 148.272 254.154 148.113 254.109 147.962C254.065 147.811 253.988 147.672 253.885 147.553C253.781 147.434 253.653 147.34 253.509 147.275C253.366 147.211 253.21 147.178 253.052 147.18L253.036 147.16Z" fill="#8C8F97"/>
<path d="M243.321 153.768L243.234 155.001L256.322 155.917L256.408 154.683L243.321 153.768Z" fill="#0D232B"/>
<path d="M254.594 188.255L201.328 184.582L201.467 182.529L254.737 186.186L254.594 188.255ZM255.054 181.582L201.784 177.925L201.926 175.872L255.197 179.53L255.054 181.582ZM255.514 174.913L202.243 171.256L202.382 169.2L255.652 172.861L255.514 174.913Z" fill="#0D232B"/>
<g style="mix-blend-mode:multiply" opacity="0.7">
<path d="M134.352 82.3524L142.276 75.4341L152.65 76.1473C152.739 76.1532 152.825 76.1856 152.896 76.2403C152.967 76.295 153.02 76.3696 153.048 76.4545C153.077 76.5395 153.079 76.631 153.056 76.7174C153.032 76.8038 152.983 76.8812 152.915 76.9398L146.659 82.4039C146.215 82.7915 145.638 82.9905 145.05 82.9586L134.352 82.3524Z" fill="#DABEBE"/>
</g>
<path opacity="0.46" d="M129.515 65.0456L117.344 64.2095L117.228 65.9014L129.399 66.7376L129.515 65.0456Z" fill="white"/>
<path opacity="0.46" d="M129.14 70.4548L116.969 69.6187L116.853 71.3106L129.024 72.1467L129.14 70.4548Z" fill="white"/>
<path d="M143.614 50.8589L135.962 57.5276L111.55 55.8515C111.453 55.9864 111.374 56.1328 111.312 56.2874L135.764 57.9674L134.096 82.2766C134.257 82.2439 134.413 82.1893 134.56 82.1141L136.22 57.9L143.911 51.1997C143.888 51.1254 143.849 51.0568 143.798 50.9981C143.747 50.9395 143.684 50.892 143.614 50.8589Z" fill="#405158"/>
<path d="M172.22 243.711C172.06 243.7 171.9 243.719 171.749 243.77C171.597 243.82 171.457 243.9 171.336 244.005L164.327 250.122C163.916 250.48 163.664 250.986 163.625 251.529L162.04 274.717C162.03 274.866 162.08 275.012 162.178 275.124C162.276 275.236 162.415 275.305 162.563 275.315L186.12 276.936C186.553 276.966 186.98 276.824 187.308 276.54L194.302 270.445C194.437 270.328 194.548 270.185 194.627 270.024C194.707 269.864 194.754 269.689 194.766 269.51L196.378 246.045C196.389 245.894 196.34 245.745 196.241 245.631C196.142 245.517 196.002 245.446 195.851 245.435L172.22 243.711Z" fill="#EDEDDC"/>
<path opacity="0.34" d="M171.372 243.974L164.077 250.333C164.039 250.36 164.011 250.398 163.996 250.442C163.981 250.486 163.981 250.534 163.995 250.578C164.009 250.622 164.037 250.661 164.074 250.688C164.112 250.715 164.157 250.73 164.204 250.73L188.493 252.398L196.022 245.84C196.06 245.805 196.088 245.759 196.101 245.708C196.114 245.657 196.112 245.604 196.095 245.554C196.079 245.505 196.048 245.461 196.006 245.429C195.965 245.396 195.915 245.377 195.863 245.372L172.172 243.72C171.882 243.696 171.595 243.787 171.372 243.974Z" fill="white"/>
<g style="mix-blend-mode:multiply" opacity="0.7">
<path d="M186.805 276.984L194.729 270.066L196.386 245.935C196.389 245.891 196.379 245.847 196.357 245.809C196.335 245.77 196.302 245.739 196.263 245.72C196.223 245.7 196.179 245.693 196.135 245.699C196.091 245.705 196.05 245.723 196.017 245.753L188.461 252.338L186.805 276.984Z" fill="#DABEBE"/>
</g>
<g style="mix-blend-mode:multiply" opacity="0.7">
<path d="M186.805 276.984L194.729 270.066L205.103 270.779C205.192 270.785 205.278 270.817 205.349 270.872C205.42 270.927 205.473 271.001 205.501 271.086C205.53 271.171 205.532 271.263 205.509 271.349C205.485 271.436 205.436 271.513 205.368 271.572L199.1 277.032C198.657 277.419 198.079 277.618 197.491 277.587L186.805 276.984Z" fill="#DABEBE"/>
</g>
<path opacity="0.78" d="M204.458 237.436H192.258V239.131H204.458V237.436Z" fill="white"/>
<path opacity="0.78" d="M181.593 265.083L169.422 264.247L169.306 265.938L181.477 266.775L181.593 265.083Z" fill="white"/>
<path d="M196.075 245.487L188.423 252.155L164.007 250.475C163.914 250.613 163.836 250.761 163.773 250.915L188.225 252.591L186.553 276.905C186.715 276.876 186.871 276.823 187.017 276.746L188.681 252.532L196.368 245.832C196.345 245.757 196.307 245.688 196.257 245.629C196.207 245.57 196.145 245.521 196.075 245.487Z" fill="#F0F0E3"/>
<g style="mix-blend-mode:multiply" opacity="0.7">
<path d="M114.797 207.563L132.628 192.035L203.554 196.908C203.754 196.922 203.945 196.995 204.104 197.117C204.263 197.24 204.382 197.406 204.446 197.596C204.51 197.786 204.516 197.991 204.464 198.184C204.412 198.378 204.303 198.552 204.152 198.684L190.082 210.935C189.085 211.803 187.788 212.246 186.468 212.171L114.797 207.563Z" fill="#DABEBE"/>
</g>
<path d="M228.165 56.5292C228.006 56.5174 227.846 56.5373 227.694 56.5876C227.542 56.6379 227.402 56.7177 227.281 56.8224L220.264 62.9363C219.853 63.2939 219.601 63.7997 219.563 64.343L217.978 87.5308C217.968 87.6795 218.018 87.8259 218.116 87.9381C218.214 88.0503 218.352 88.119 218.501 88.1291L263.715 91.2356C264.148 91.2652 264.576 91.1228 264.904 90.8394L271.902 84.7294C272.172 84.4897 272.338 84.1544 272.365 83.7943L273.974 60.3291C273.985 60.1783 273.936 60.0294 273.837 59.915C273.738 59.8006 273.598 59.73 273.447 59.7189L228.165 56.5292Z" fill="#54B89E"/>
<path opacity="0.34" d="M227.333 56.7912L220.038 63.1508C220 63.1775 219.971 63.2157 219.957 63.2597C219.942 63.3037 219.942 63.3513 219.956 63.3956C219.97 63.4398 219.998 63.4783 220.035 63.5056C220.073 63.5329 220.118 63.5474 220.165 63.5471L266.093 66.717L273.621 60.1592C273.66 60.1239 273.687 60.0781 273.701 60.0274C273.714 59.9767 273.712 59.9232 273.695 59.8736C273.678 59.824 273.647 59.7804 273.606 59.7481C273.565 59.7157 273.515 59.6961 273.463 59.6917L228.125 56.5257C227.836 56.5071 227.552 56.6024 227.333 56.7912Z" fill="white"/>
<g style="mix-blend-mode:multiply" opacity="0.7">
<path d="M264.391 91.2872L272.315 84.3689L273.972 60.238C273.976 60.194 273.967 60.1497 273.946 60.1109C273.924 60.0722 273.892 60.0408 273.852 60.0211C273.813 60.0013 273.768 59.994 273.724 60.0002C273.68 60.0064 273.64 60.0258 273.607 60.0558L266.035 66.6531L264.391 91.2872Z" fill="#DABEBE"/>
</g>
<g style="mix-blend-mode:multiply" opacity="0.7">
<path d="M264.391 91.2879L272.315 84.3696L282.689 85.0829C282.778 85.0888 282.864 85.1212 282.935 85.1759C283.006 85.2306 283.059 85.3051 283.087 85.3901C283.116 85.475 283.118 85.5665 283.095 85.6529C283.071 85.7393 283.022 85.8168 282.954 85.8753L276.69 91.3355C276.245 91.7226 275.666 91.9215 275.077 91.8902L264.391 91.2879Z" fill="#DABEBE"/>
</g>
<path opacity="0.46" d="M259.553 73.9805L225.742 71.6577L225.626 73.3496L259.436 75.6724L259.553 73.9805Z" fill="white"/>
<path opacity="0.46" d="M259.178 79.3857L225.367 77.063L225.251 78.7549L259.061 81.0777L259.178 79.3857Z" fill="white"/>
<path d="M273.659 59.7905L266.007 66.4592L219.953 63.2893C219.859 63.4272 219.781 63.5746 219.719 63.7291L265.809 66.899L264.141 91.2082C264.303 91.1794 264.459 91.126 264.605 91.0497L266.265 66.8356L273.956 60.1353C273.933 60.0603 273.895 59.9909 273.844 59.9315C273.792 59.8721 273.729 59.8241 273.659 59.7905Z" fill="#6FC3AD"/>
<path d="M103.778 239.353C103.621 239.345 103.464 239.367 103.315 239.419C103.167 239.472 103.031 239.553 102.914 239.659L95.8966 245.772C95.4858 246.13 95.2336 246.636 95.1953 247.179L93.6104 270.371C93.6016 270.519 93.6515 270.665 93.7494 270.777C93.8472 270.889 93.9852 270.958 94.1334 270.969L139.344 274.072C139.777 274.101 140.204 273.959 140.533 273.676L147.522 267.581C147.795 267.345 147.963 267.01 147.99 266.65L149.599 243.181C149.604 243.107 149.595 243.032 149.571 242.961C149.548 242.89 149.51 242.825 149.461 242.768C149.412 242.712 149.353 242.666 149.286 242.633C149.219 242.6 149.146 242.58 149.072 242.575L103.778 239.353Z" fill="#58B4C9"/>
<path opacity="0.34" d="M102.911 239.614L95.6161 245.974C95.5781 246.001 95.5496 246.039 95.5348 246.083C95.52 246.127 95.5197 246.174 95.5338 246.219C95.548 246.263 95.5759 246.301 95.6135 246.329C95.6511 246.356 95.6964 246.37 95.7429 246.37L141.671 249.54L149.199 242.986C149.239 242.951 149.268 242.905 149.282 242.854C149.296 242.802 149.294 242.748 149.277 242.698C149.26 242.647 149.229 242.603 149.187 242.57C149.145 242.538 149.094 242.518 149.041 242.515L103.711 239.376C103.424 239.348 103.136 239.433 102.911 239.614Z" fill="white"/>
<g style="mix-blend-mode:multiply" opacity="0.7">
<path d="M140 274.131L147.925 267.217L149.581 243.086C149.583 243.042 149.573 242.999 149.551 242.961C149.529 242.923 149.496 242.893 149.457 242.873C149.418 242.853 149.374 242.845 149.331 242.85C149.288 242.855 149.246 242.872 149.213 242.9L141.644 249.497L140 274.131Z" fill="#DABEBE"/>
</g>
<g style="mix-blend-mode:multiply" opacity="0.7">
<path d="M140 274.131L147.925 267.216L158.298 267.93C158.388 267.935 158.473 267.968 158.544 268.023C158.615 268.077 158.668 268.152 158.697 268.237C158.725 268.322 158.728 268.413 158.704 268.5C158.68 268.586 158.632 268.663 158.564 268.722L152.295 274.182C151.852 274.57 151.275 274.769 150.687 274.737L140 274.131Z" fill="#DABEBE"/>
</g>
<path opacity="0.46" d="M135.162 256.805L101.352 254.482L101.235 256.174L135.046 258.497L135.162 256.805Z" fill="white"/>
<path opacity="0.46" d="M134.787 262.214L100.977 259.891L100.86 261.583L134.671 263.906L134.787 262.214Z" fill="white"/>
<path d="M149.276 242.615L141.624 249.283L95.5697 246.114C95.4756 246.25 95.3972 246.396 95.3359 246.549L141.426 249.719L139.766 274.032C139.928 274.002 140.084 273.947 140.23 273.87L141.89 249.656L149.577 242.956C149.554 242.88 149.515 242.811 149.463 242.752C149.412 242.694 149.348 242.647 149.276 242.615Z" fill="#71BFD1"/>
<path d="M220.768 242.337C220.608 242.326 220.448 242.347 220.296 242.398C220.145 242.449 220.004 242.529 219.884 242.635L212.867 248.749C212.457 249.107 212.205 249.612 212.165 250.155L210.228 278.371C210.218 278.52 210.268 278.666 210.366 278.779C210.464 278.891 210.602 278.959 210.751 278.97L250.937 281.743C251.37 281.773 251.797 281.63 252.126 281.347L259.12 275.253C259.255 275.135 259.365 274.992 259.445 274.832C259.524 274.671 259.571 274.497 259.583 274.318L261.541 245.824C261.548 245.749 261.539 245.672 261.516 245.6C261.493 245.527 261.456 245.46 261.406 245.403C261.357 245.345 261.296 245.298 261.228 245.264C261.16 245.23 261.086 245.211 261.01 245.206L220.768 242.337Z" fill="#DABEBE"/>
<path opacity="0.34" d="M219.919 242.602L212.624 248.962C212.586 248.988 212.557 249.027 212.543 249.071C212.528 249.115 212.527 249.162 212.542 249.207C212.556 249.251 212.584 249.289 212.621 249.317C212.659 249.344 212.704 249.358 212.751 249.358L253.654 252.163L261.183 245.61C261.223 245.575 261.253 245.529 261.267 245.478C261.281 245.427 261.28 245.372 261.262 245.322C261.245 245.272 261.214 245.227 261.171 245.195C261.129 245.163 261.078 245.145 261.024 245.142L220.719 242.345C220.575 242.333 220.43 242.349 220.293 242.393C220.156 242.438 220.028 242.509 219.919 242.602Z" fill="white"/>
<g style="mix-blend-mode:multiply" opacity="0.7">
<path d="M251.617 281.778L259.542 274.86L261.547 245.705C261.55 245.661 261.54 245.617 261.518 245.579C261.496 245.54 261.464 245.509 261.424 245.49C261.384 245.47 261.34 245.463 261.296 245.469C261.252 245.475 261.211 245.493 261.178 245.523L253.61 252.116L251.617 281.778Z" fill="#DABEBE"/>
</g>
<g style="mix-blend-mode:multiply" opacity="0.7">
<path d="M251.617 281.779L259.542 274.86L269.915 275.574C270.005 275.58 270.09 275.612 270.161 275.667C270.232 275.721 270.285 275.796 270.314 275.881C270.342 275.966 270.345 276.057 270.321 276.144C270.298 276.23 270.249 276.307 270.181 276.366L263.916 281.826C263.472 282.214 262.893 282.413 262.304 282.381L251.617 281.779Z" fill="#DABEBE"/>
</g>
<path opacity="0.46" d="M246.915 262.457L218.133 260.479L218.017 262.171L246.799 264.149L246.915 262.457Z" fill="white"/>
<path opacity="0.46" d="M269.725 241.22H240.875V242.916H269.725V241.22Z" fill="white"/>
<path d="M261.232 245.254L253.581 251.942L212.554 249.105C212.46 249.241 212.382 249.388 212.32 249.541L253.382 252.362L251.37 281.684C251.531 281.655 251.688 281.602 251.833 281.526L253.842 252.283L261.529 245.603C261.507 245.527 261.469 245.457 261.418 245.397C261.366 245.337 261.303 245.288 261.232 245.254Z" fill="#DABEBE"/>
<path d="M177.354 43.9798C177.194 43.9681 177.034 43.9879 176.883 44.0383C176.731 44.0886 176.591 44.1684 176.47 44.2731L169.453 50.391C169.042 50.7485 168.79 51.2544 168.751 51.7976L166.54 84.0038C166.53 84.1525 166.58 84.299 166.678 84.4111C166.776 84.5233 166.915 84.592 167.063 84.6021L187.477 86.0048C187.91 86.0318 188.336 85.8898 188.666 85.6086L195.656 79.5145C195.928 79.2762 196.096 78.9403 196.123 78.5793L198.354 46.0878C198.364 45.9367 198.314 45.7877 198.214 45.6735C198.115 45.5592 197.974 45.4888 197.823 45.4776L177.354 43.9798Z" fill="#FDD27B"/>
<path opacity="0.34" d="M176.505 44.2421L169.21 50.6017C169.172 50.6284 169.143 50.6665 169.129 50.7106C169.114 50.7546 169.113 50.8022 169.128 50.8464C169.142 50.8906 169.17 50.9292 169.207 50.9565C169.245 50.9837 169.29 50.9982 169.337 50.9979L190.48 52.4363L198.008 45.8983C198.048 45.8635 198.077 45.8178 198.091 45.7667C198.105 45.7157 198.104 45.6617 198.087 45.6114C198.071 45.5611 198.04 45.5168 197.998 45.4839C197.957 45.4511 197.907 45.4312 197.854 45.4268L177.317 43.9924C177.172 43.9784 177.025 43.9932 176.886 44.0361C176.746 44.0789 176.617 44.1489 176.505 44.2421Z" fill="white"/>
<g style="mix-blend-mode:multiply" opacity="0.7">
<path d="M188.164 86.053L196.089 79.1347L198.363 45.9855C198.366 45.9422 198.355 45.8991 198.334 45.8616C198.312 45.8241 198.28 45.7938 198.241 45.7744C198.202 45.755 198.159 45.7474 198.115 45.7525C198.072 45.7576 198.032 45.7753 197.999 45.8032L190.431 52.4006L188.164 86.053Z" fill="#DABEBE"/>
</g>
<g style="mix-blend-mode:multiply" opacity="0.7">
<path d="M188.164 86.0536L196.089 79.1353L206.462 79.8485C206.552 79.8544 206.637 79.8868 206.708 79.9415C206.779 79.9962 206.832 80.0708 206.861 80.1557C206.889 80.2407 206.892 80.3321 206.868 80.4186C206.844 80.505 206.796 80.5824 206.728 80.641L200.459 86.1011C200.016 86.4891 199.438 86.687 198.851 86.6519L188.164 86.0536Z" fill="#DABEBE"/>
</g>
<path opacity="0.46" d="M183.322 68.744L174.305 68.1245L174.188 69.8164L183.205 70.4359L183.322 68.744Z" fill="white"/>
<path opacity="0.46" d="M182.954 74.1507L173.938 73.5312L173.821 75.2232L182.838 75.8426L182.954 74.1507Z" fill="white"/>
<path d="M198.05 45.5381L190.398 52.2068L169.14 50.7447C169.047 50.8825 168.968 51.03 168.906 51.1845L190.2 52.6347L187.914 85.9583C188.076 85.9275 188.232 85.8728 188.377 85.7959L190.66 52.5673L198.347 45.8987C198.326 45.8208 198.289 45.7483 198.237 45.6861C198.186 45.6239 198.122 45.5734 198.05 45.5381Z" fill="#FDDA94"/>
<path d="M132.431 133.966C132.077 133.955 131.723 134.014 131.392 134.141C131.061 134.267 130.758 134.458 130.501 134.703L115.761 149.494C115.34 149.924 115.008 150.433 114.785 150.992C114.561 151.551 114.452 152.149 114.462 152.751V204.892C114.474 205.226 114.618 205.542 114.862 205.769C115.107 205.997 115.431 206.119 115.765 206.109H168.766C169.757 206.089 170.701 205.681 171.393 204.971L186.082 190.235C186.36 189.949 186.578 189.61 186.724 189.239C186.871 188.868 186.942 188.471 186.933 188.072V135.305C186.926 134.956 186.785 134.622 186.539 134.373C186.294 134.125 185.963 133.979 185.614 133.966H132.431Z" fill="#DABEBE"/>
<path opacity="0.34" d="M130.585 134.624L115.255 150.002C115.188 150.068 115.143 150.153 115.125 150.245C115.108 150.337 115.119 150.432 115.156 150.518C115.194 150.604 115.257 150.676 115.337 150.726C115.417 150.775 115.51 150.799 115.603 150.794H170.217L186.023 134.897C186.107 134.814 186.164 134.708 186.187 134.592C186.21 134.476 186.198 134.356 186.152 134.247C186.105 134.138 186.028 134.046 185.928 133.981C185.829 133.917 185.713 133.884 185.595 133.887H132.321C131.667 133.893 131.043 134.158 130.585 134.624Z" fill="white"/>
<g style="mix-blend-mode:multiply" opacity="0.7">
<path d="M170.227 206.061L186.936 189.336V135.079C186.93 134.978 186.895 134.881 186.835 134.799C186.776 134.718 186.695 134.655 186.6 134.617C186.506 134.58 186.404 134.571 186.305 134.59C186.205 134.61 186.114 134.657 186.04 134.726L170.227 150.679V206.061Z" fill="#DABEBE"/>
</g>
<path opacity="0.46" d="M156.767 171.898H129.398V168.098H156.759L156.767 171.898Z" fill="white"/>
<path opacity="0.46" d="M156.79 184.063H129.422V180.259H156.782L156.79 184.063Z" fill="white"/>
<path d="M186.082 134.125L170.007 150.291H115.112C114.922 150.611 114.769 150.951 114.656 151.305H169.634V205.923C170.006 205.83 170.363 205.683 170.692 205.487V151.04L186.795 134.842C186.733 134.679 186.637 134.531 186.515 134.408C186.392 134.284 186.244 134.188 186.082 134.125Z" fill="#DABEBE"/>
<path d="M222.875 194.436L202.039 193.005C201.331 192.956 200.718 193.49 200.67 194.198L200.084 202.721C200.036 203.428 200.57 204.041 201.277 204.089L222.114 205.521C222.821 205.569 223.434 205.035 223.482 204.328L224.068 195.805C224.117 195.098 223.583 194.485 222.875 194.436Z" fill="#DABEBE"/>
<path d="M215.643 198.241C215.577 197.969 215.453 197.715 215.281 197.494C215.109 197.273 214.892 197.092 214.645 196.961C214.369 196.815 214.058 196.746 213.747 196.763C213.435 196.779 213.133 196.879 212.874 197.052C212.658 197.187 212.461 197.35 212.287 197.535C212.14 197.328 211.967 197.14 211.772 196.977C211.54 196.769 211.255 196.628 210.948 196.569C210.642 196.511 210.325 196.536 210.033 196.644C209.766 196.736 209.522 196.884 209.317 197.078C209.112 197.272 208.95 197.508 208.844 197.769C208.733 198.042 208.68 198.334 208.688 198.629C208.697 198.923 208.768 199.212 208.895 199.477C209.335 200.392 210.27 201.458 211.689 202.615C211.753 202.67 211.833 202.702 211.917 202.708C212.002 202.713 212.085 202.692 212.156 202.647C213.714 201.684 214.787 200.769 215.326 199.921C215.494 199.679 215.609 199.404 215.664 199.115C215.718 198.825 215.711 198.527 215.643 198.241Z" fill="white"/>
<path d="M271.052 169.267H250.167C249.458 169.267 248.883 169.842 248.883 170.551V179.094C248.883 179.803 249.458 180.378 250.167 180.378H271.052C271.761 180.378 272.336 179.803 272.336 179.094V170.551C272.336 169.842 271.761 169.267 271.052 169.267Z" fill="#41B093"/>
<path d="M244.522 202.991L239.05 202.615L237.703 198.042L244.831 198.529L244.522 202.991Z" fill="white"/>
<path d="M244.16 204.088H244.073L239.092 203.747C239.044 203.743 239 203.721 238.968 203.684C238.936 203.648 238.92 203.601 238.922 203.553C238.926 203.505 238.949 203.461 238.985 203.43C239.021 203.399 239.068 203.383 239.116 203.387L244.097 203.727C244.34 203.744 244.579 203.663 244.762 203.504C244.946 203.344 245.058 203.118 245.076 202.875L245.373 198.552C245.384 198.385 245.428 198.222 245.502 198.071C245.576 197.921 245.68 197.787 245.806 197.676C245.932 197.566 246.079 197.482 246.238 197.428C246.397 197.374 246.565 197.352 246.732 197.364L247.287 197.399C247.313 197.398 247.339 197.402 247.363 197.411C247.387 197.42 247.409 197.434 247.428 197.452C247.446 197.471 247.46 197.493 247.469 197.517C247.478 197.541 247.482 197.567 247.481 197.593C247.479 197.619 247.472 197.644 247.459 197.667C247.447 197.69 247.43 197.71 247.41 197.726C247.389 197.742 247.365 197.753 247.34 197.759C247.315 197.765 247.288 197.765 247.263 197.76L246.708 197.724C246.588 197.716 246.468 197.731 246.354 197.769C246.24 197.807 246.135 197.867 246.045 197.946C245.954 198.025 245.88 198.12 245.826 198.228C245.773 198.335 245.741 198.452 245.733 198.572L245.436 202.895C245.413 203.218 245.269 203.521 245.032 203.742C244.796 203.963 244.484 204.087 244.16 204.088ZM240.099 205.348H240.051C239.96 205.343 239.871 205.319 239.789 205.278C239.707 205.237 239.635 205.18 239.576 205.11C239.457 204.972 239.398 204.793 239.409 204.611C239.415 204.52 239.438 204.431 239.479 204.35C239.519 204.268 239.575 204.195 239.643 204.135C239.711 204.075 239.791 204.029 239.878 204C239.964 203.971 240.056 203.961 240.146 203.969C240.237 203.975 240.326 203.998 240.408 204.038C240.489 204.078 240.562 204.134 240.622 204.203C240.682 204.272 240.727 204.351 240.756 204.438C240.784 204.524 240.795 204.615 240.788 204.706C240.783 204.796 240.759 204.884 240.719 204.965C240.679 205.046 240.623 205.119 240.555 205.178C240.428 205.287 240.266 205.348 240.099 205.348ZM240.099 204.326C240.018 204.325 239.941 204.355 239.881 204.409C239.848 204.437 239.821 204.471 239.802 204.51C239.783 204.549 239.772 204.591 239.77 204.635C239.766 204.678 239.771 204.722 239.785 204.764C239.798 204.805 239.82 204.844 239.849 204.876C239.908 204.94 239.989 204.979 240.075 204.987C240.163 204.992 240.249 204.963 240.317 204.908C240.35 204.879 240.377 204.844 240.396 204.805C240.415 204.765 240.426 204.722 240.428 204.678C240.432 204.635 240.427 204.592 240.413 204.551C240.399 204.51 240.377 204.473 240.349 204.441C240.291 204.375 240.21 204.333 240.123 204.326H240.099Z" fill="white"/>
<path d="M243.622 205.582H243.578C243.389 205.575 243.211 205.495 243.081 205.357C242.951 205.22 242.88 205.037 242.883 204.848C242.886 204.659 242.964 204.479 243.099 204.347C243.233 204.214 243.415 204.14 243.604 204.14C243.793 204.14 243.974 204.214 244.109 204.347C244.244 204.479 244.322 204.659 244.325 204.848C244.328 205.037 244.257 205.22 244.127 205.357C243.997 205.495 243.819 205.575 243.63 205.582H243.622ZM243.622 204.56C243.538 204.563 243.458 204.599 243.401 204.66C243.343 204.721 243.311 204.802 243.313 204.886C243.314 204.97 243.349 205.051 243.409 205.109C243.469 205.168 243.55 205.201 243.634 205.201C243.718 205.201 243.798 205.168 243.859 205.109C243.919 205.051 243.953 204.97 243.955 204.886C243.956 204.802 243.925 204.721 243.867 204.66C243.809 204.599 243.73 204.563 243.646 204.56H243.622Z" fill="white"/>
<path d="M198.269 145.779C204.37 140.462 205.006 131.206 199.689 125.105C194.373 119.004 185.117 118.368 179.016 123.685C172.915 129.002 172.279 138.257 177.595 144.358C182.912 150.459 192.168 151.095 198.269 145.779Z" fill="white"/>
<path d="M188.666 149.934C188.313 149.934 187.961 149.934 187.604 149.899C183.626 149.626 179.915 147.801 177.269 144.818C174.623 141.836 173.254 137.933 173.457 133.951C173.661 129.969 175.42 126.226 178.356 123.528C181.292 120.83 185.17 119.394 189.156 119.528C193.141 119.661 196.914 121.355 199.662 124.244C202.411 127.132 203.915 130.985 203.851 134.971C203.787 138.958 202.159 142.76 199.319 145.559C196.479 148.358 192.653 149.929 188.666 149.934ZM188.626 120.632C184.944 120.643 181.412 122.099 178.792 124.687C176.173 127.276 174.674 130.79 174.62 134.472C174.566 138.154 175.96 141.711 178.502 144.375C181.044 147.04 184.531 148.6 188.212 148.718C191.893 148.837 195.473 147.505 198.182 145.01C200.891 142.515 202.511 139.056 202.694 135.378C202.877 131.699 201.609 128.096 199.161 125.344C196.714 122.592 193.284 120.912 189.609 120.664C189.296 120.64 188.951 120.632 188.626 120.632Z" fill="#DABEBE"/>
<path d="M181.12 130.454C181.286 128.077 182.875 126.888 184.734 127.027C186.592 127.166 188.003 128.545 187.84 130.914C187.678 133.284 186.085 134.48 184.23 134.361C182.376 134.242 180.973 132.844 181.12 130.454ZM182.871 140.82L192.171 128.315C192.52 127.823 192.642 127.772 193.395 127.823C194.025 127.867 194.255 128.002 193.887 128.493L184.587 140.994C184.215 141.486 184.092 141.537 183.343 141.486C182.729 141.446 182.499 141.307 182.871 140.82ZM186.16 130.799C186.255 129.416 185.625 128.501 184.654 128.422C183.684 128.343 182.935 129.179 182.84 130.561C182.744 131.944 183.355 132.879 184.345 132.939C185.336 132.998 186.065 132.202 186.16 130.799ZM188.839 138.367C189.001 135.99 190.59 134.801 192.448 134.924C194.307 135.047 195.721 136.442 195.555 138.831C195.388 141.22 193.803 142.397 191.945 142.254C190.087 142.112 188.676 140.741 188.839 138.367ZM193.875 138.716C193.974 137.313 193.34 136.394 192.373 136.339C191.406 136.283 190.653 137.091 190.558 138.494C190.463 139.897 191.073 140.792 192.06 140.872C193.047 140.951 193.78 140.099 193.875 138.716Z" fill="#0D232B"/>
<path opacity="0.22" d="M69.375 224.34L83.5009 18.7399C83.6669 16.3159 84.3088 13.9484 85.3901 11.7726C86.4713 9.59683 87.9705 7.65537 89.8023 6.05915C91.634 4.46293 93.7622 3.24323 96.0655 2.46972C98.3687 1.69621 100.802 1.38406 103.226 1.55109L280.538 13.7275L69.375 224.34Z" fill="white"/>
<path d="M309.397 218.404H246.863C244.664 227.379 246.154 236.33 245.302 245.499C245.076 247.944 242.924 255.845 239.778 266.373C240.3 267.002 240.671 267.744 240.86 268.539C241.05 269.335 241.054 270.164 240.872 270.961C239.287 278.07 238.494 285.285 237.797 292.525C237.1 299.764 236.149 306.924 235.17 314.123C234.79 317.147 234.202 320.14 233.411 323.082C233.434 323.541 233.411 324 233.343 324.453C232.678 329.022 230.851 333.527 227.511 336.8C224.313 339.934 220.097 341.69 215.746 342.443C213.143 350.455 211.427 355.701 211.312 356.105H268.589C281.221 356.105 293.318 344.321 295.683 329.264L312.325 223.361C312.773 220.639 311.454 218.404 309.397 218.404ZM260.383 334.645H248.563L249.926 320.622H261.96L260.383 334.645ZM263.319 308.541H251.107L252.565 293.543H265.015L263.319 308.541ZM266.465 280.606H253.813L255.398 264.522H268.292L266.465 280.606ZM256.725 250.634L258.405 233.35H271.782L269.837 250.634H256.725ZM283.507 334.637H271.711L273.494 320.614H285.528L283.507 334.637ZM287.232 308.533H275.012L276.918 293.535H289.367L287.232 308.533ZM291.194 280.598H278.566L280.611 264.514H293.504L291.194 280.598ZM295.485 250.634H282.378L284.577 233.35H297.95L295.485 250.634Z" fill="#DABEBE"/>
<g style="mix-blend-mode:multiply" opacity="0.7">
<path d="M309.397 218.404H246.863C244.664 227.379 246.154 236.33 245.302 245.499C244.386 255.405 239.235 294.561 231.949 310.645C232.452 311.091 232.843 311.649 233.091 312.273C233.34 312.898 233.438 313.573 233.379 314.242C232.745 319.913 232.654 325.896 230.471 331.312C229.318 334.169 227.824 336.729 225.193 338.476C223.212 339.792 220.834 340.339 218.639 341.19C218.347 341.302 218.042 341.377 217.732 341.412C214.324 348.79 211.836 354.314 211.312 356.121H268.589C281.221 356.121 293.314 344.337 295.683 329.28L312.325 223.377C312.773 220.639 311.454 218.404 309.397 218.404ZM260.383 334.645H248.563L249.926 320.622H261.96L260.383 334.645ZM263.319 308.54H251.107L252.565 293.543H265.015L263.319 308.54ZM266.465 280.606H253.813L255.398 264.522H268.292L266.465 280.606ZM269.837 250.634H256.725L258.405 233.35H271.782L269.837 250.634ZM283.507 334.637H271.711L273.494 320.614H285.528L283.507 334.637ZM287.232 308.533H275.012L276.918 293.535H289.367L287.232 308.533ZM291.194 280.598H278.566L280.611 264.514H293.504L291.194 280.598ZM295.485 250.634H282.378L284.577 233.35H297.95L295.485 250.634Z" fill="#159B95"/>
</g>
<path d="M247.487 218.46H30.487C28.4266 218.46 27.0714 220.695 27.4558 223.441L42.2909 329.49C44.3989 344.547 56.29 356.367 68.926 356.367H212.76C225.392 356.367 236.971 344.567 238.678 329.49L250.684 223.441C250.962 220.695 249.543 218.46 247.487 218.46ZM64.821 334.863H52.9894L51.2063 320.82H63.2519L64.821 334.863ZM61.9087 308.711H49.6847L47.7788 293.69H60.2286L61.9087 308.711ZM58.7903 280.737H46.1344L44.0938 264.634H56.9874L58.7903 280.737ZM55.4381 250.753H42.3306L40.1354 233.446H53.5084L55.4381 250.753ZM87.9296 334.879H76.1257L74.7824 320.82H86.8162L87.9296 334.879ZM85.7978 308.727H73.5937L72.1395 293.706H84.5893L85.7978 308.727ZM83.5195 280.753H70.8874L69.3262 264.649H82.2238L83.5195 280.753ZM81.0905 250.753H67.979L66.3029 233.446H79.6799L81.0905 250.753ZM111.07 334.879H99.2541L98.315 320.836H110.349L111.07 334.879ZM109.727 308.727H97.5067L96.5002 293.706H108.95L109.727 308.727ZM108.284 280.753H95.6364L94.5587 264.649H107.456L108.284 280.753ZM106.739 250.753H93.6315L92.4745 233.446H105.847L106.739 250.753ZM134.218 334.863H122.379L121.859 320.82H133.897L134.218 334.863ZM133.655 308.711H121.416L120.865 293.69H133.311L133.655 308.711ZM133.029 280.749H120.385L119.791 264.645H132.689L133.029 280.749ZM132.388 250.753H119.28L118.642 233.446H132.019L132.388 250.753ZM157.382 334.879H145.455V320.82H157.382V334.879ZM157.612 308.727H145.277V293.702H157.596L157.612 308.727ZM157.854 280.753H145.083V264.645H157.854V280.753ZM158.115 250.741H144.873V233.43H158.115V250.741ZM180.451 334.867H168.631L168.956 320.824H180.974L180.451 334.867ZM181.458 308.715H169.238L169.586 293.694H182.036L181.458 308.715ZM182.535 280.741H169.88L170.252 264.638H183.154L182.535 280.741ZM183.688 250.753H170.581L170.977 233.446H184.354L183.688 250.753ZM203.56 334.863H191.756L192.505 320.82H204.538L203.56 334.863ZM205.351 308.711H193.147L193.939 293.69H206.389L205.351 308.711ZM207.269 280.737H194.636L195.492 264.634H208.386L207.269 280.737ZM209.341 250.753H196.233L197.153 233.446H210.526L209.341 250.753ZM226.704 334.879H214.884L216.053 320.836H228.087L226.704 334.879ZM229.28 308.727H217.06L218.308 293.706H230.758L229.28 308.727ZM232.053 280.753H219.385L220.725 264.649H233.622L232.053 280.753ZM234.989 250.753H221.882L223.324 233.446H236.697L234.989 250.753Z" fill="#2EBDB6"/>
<path d="M311.474 219.411C311.225 219.097 310.909 218.844 310.549 218.669C310.189 218.495 309.794 218.404 309.393 218.404H246.859V218.46H30.5132C29.1462 218.46 28.0883 219.45 27.6484 220.92H312.258C312.11 220.366 311.842 219.851 311.474 219.411Z" fill="#C0EBE9"/>
<path d="M273.249 205.863C273.249 205.906 273.249 205.95 273.249 205.994C272.81 208.623 271.951 211.165 270.705 213.522V217.215L268.387 217.187C265.478 221.09 261.615 224.32 257.443 227.244C255.656 228.492 250.176 232.185 249.276 232.855C249.637 232.605 248.714 233.477 248.424 233.695C248.262 233.936 248.008 234.297 247.969 234.368C247.822 234.614 247.687 234.871 247.572 235.125C247.026 236.159 246.53 237.213 245.988 238.235C244.696 240.544 243.285 242.783 241.76 244.944C239.053 248.839 236.109 252.567 233.379 256.435C230.871 260.001 228.41 263.654 225.252 266.689C218.084 273.576 208.214 275.181 198.657 275.827C178.449 277.186 158.344 272.098 138.112 274.681C127.592 276.025 117.016 277.059 106.456 278.049C95.7223 279.068 85.0357 279.072 74.262 278.691C63.726 278.319 53.2139 277.919 42.666 278.053C32.4708 278.184 22.2637 278.422 12.0923 277.59L10.2736 279.634V277.368C9.92907 277.286 9.59232 277.175 9.26711 277.035H3.71978V288.526C3.7071 289.112 3.81176 289.695 4.02761 290.24C4.24346 290.785 4.56613 291.282 4.97666 291.7C5.38718 292.119 5.87727 292.451 6.41811 292.678C6.95894 292.904 7.5396 293.02 8.12594 293.019H195.083C201.623 293.024 208.089 291.645 214.058 288.971C220.026 286.297 225.36 282.39 229.71 277.507L282.319 218.404H283.25V205.863H273.249Z" fill="#192E36"/>
<path d="M271.885 205.863L223.179 260.219C219.649 264.182 215.321 267.355 210.479 269.528C205.637 271.701 200.389 272.825 195.082 272.827H17.7218L25.3098 264.284C22.4569 263.143 19.6145 261.969 16.7828 260.762L4.82033 274.234C4.2575 274.867 3.88983 275.651 3.76157 276.488C3.63332 277.326 3.74994 278.184 4.0974 278.957C4.44486 279.73 5.00836 280.386 5.72008 280.847C6.4318 281.307 7.26142 281.552 8.1091 281.552H195.082C201.623 281.554 208.091 280.171 214.06 277.493C220.028 274.815 225.361 270.903 229.709 266.016L283.249 205.863H271.885Z" fill="#56656B"/>
<path d="M283.797 205.863V218.404L336.663 278.87L353.804 279.302L283.797 205.863Z" fill="#0D232B"/>
<path d="M357.33 277.051C357.313 276.005 356.916 275 356.213 274.226L295.482 205.863H283.82L343.308 272.827H313.114C312.643 279.611 311.993 286.299 311.775 293.035H352.936C353.522 293.036 354.103 292.92 354.644 292.694C355.185 292.467 355.675 292.135 356.085 291.716C356.496 291.298 356.819 290.801 357.034 290.256C357.25 289.711 357.355 289.128 357.342 288.542L357.33 277.051Z" fill="#42535A"/>
<path d="M353.511 284.33L283.797 205.875V218.416L339.294 281.556H312.457C312.164 285.392 311.898 289.216 311.775 293.047H352.936C356.72 293.035 356.031 287.163 353.511 284.33Z" fill="#0D232B"/>
<path d="M352.575 358.121H3.79809C2.77981 358.113 1.81407 358.004 1.10522 357.817C0.396359 357.631 0 357.381 0 357.121C0 356.861 0.396359 356.612 1.10522 356.425C1.81407 356.238 2.77981 356.129 3.79809 356.121H352.575C353.593 356.129 354.559 356.238 355.267 356.425C355.976 356.612 356.373 356.861 356.373 357.121C356.373 357.381 355.976 357.631 355.267 357.817C354.559 358.004 353.593 358.113 352.575 358.121Z" fill="#A7C7D3"/>
</svg>
