<svg width="407" height="379" viewBox="0 0 407 379" fill="none" xmlns="http://www.w3.org/2000/svg">
<path d="M24.1797 81.6841L12.1376 102.851C10.7712 105.257 10.9784 108.557 13.0835 112.192L25.1256 91.025C23.0204 87.3899 22.8133 84.0896 24.1797 81.6841Z" fill="#2EBDB6"/>
<path d="M36.3061 77.4835C34.8419 77.5681 33.3778 77.6526 31.9136 77.7371C24.0955 78.1884 21.0451 83.9769 25.1255 91.0226L31.3123 87.2627C28.309 82.0813 30.5563 77.8155 36.3061 77.4835Z" fill="#4F575F"/>
<path d="M336.913 370.726L348.955 349.559C347.57 351.996 344.571 353.515 340.295 353.533L328.252 374.7C332.529 374.682 335.528 373.163 336.913 370.726Z" fill="#2EBDB6"/>
<path d="M348.383 340.904C347.706 339.604 347.03 338.303 346.353 337.003C349.03 342.146 346.452 346.271 340.396 346.294L340.295 353.534C348.528 353.5 352.026 347.901 348.383 340.904Z" fill="#4F575F"/>
<path d="M25.1328 91.0239L13.0906 112.19L157.84 362.137L169.882 340.971L25.1328 91.0239Z" fill="#4E8A87"/>
<path d="M192.934 354.148L180.892 375.315L328.252 374.7L340.294 353.533L192.934 354.148Z" fill="#2EBDB6"/>
<path d="M31.312 87.2643L25.1303 91.0238L169.88 340.971L176.068 337.209L31.312 87.2643Z" fill="#4F575F"/>
<path d="M193.035 346.909L192.932 354.149L340.292 353.534L340.395 346.293L193.035 346.909Z" fill="#4F575F"/>
<path d="M36.9913 77.4641C30.7401 77.4878 28.1947 81.882 31.3142 87.264L176.067 337.21C179.175 342.583 186.786 346.936 193.035 346.908L340.397 346.293C346.648 346.269 349.193 341.874 346.078 336.501L201.326 86.5547C198.212 81.1727 190.601 76.8209 184.353 76.8493L36.9913 77.4641Z" fill="#EBF2FF"/>
<path d="M193.227 339.072L330.277 338.5C333.936 338.485 336.21 334.52 334.377 331.355L194.827 90.3907C193.126 87.449 188.105 84.5478 184.615 84.5631L43.3125 85.1515C41.5476 85.1589 40.4503 87.0715 41.3348 88.5988L183.02 333.253C184.728 336.2 189.752 339.088 193.227 339.072Z" fill="white"/>
<path d="M169.881 340.972L157.839 362.139C162.072 369.448 172.396 375.352 180.893 375.316L192.935 354.149C184.438 354.185 174.114 348.281 169.881 340.972Z" fill="#2EBDB6"/>
<path d="M176.071 337.208L169.884 340.968C174.118 348.277 184.442 354.181 192.939 354.145L193.04 346.905C186.791 346.934 179.18 342.581 176.071 337.208Z" fill="#4F575F"/>
<path d="M218.727 366.275C217.588 368.267 214.827 369.86 212.505 369.854C210.222 369.87 209.221 368.293 210.382 366.261C211.521 364.27 214.345 362.659 216.605 362.683C218.911 362.626 219.849 364.221 218.727 366.275ZM291.079 365.937C289.94 367.929 287.156 369.561 284.874 369.578C282.552 369.572 281.613 367.978 282.752 365.986C283.891 363.994 286.674 362.361 288.957 362.345C291.279 362.351 292.218 363.945 291.079 365.937ZM308.924 365.885C307.785 367.877 305.024 369.47 302.719 369.526C300.459 369.503 299.458 367.926 300.597 365.934C301.718 363.879 304.542 362.269 306.802 362.292C309.147 362.259 310.086 363.853 308.924 365.885ZM236.555 366.16C235.416 368.152 232.632 369.785 230.349 369.802C228.067 369.818 227.088 368.201 228.227 366.209C229.366 364.217 232.15 362.585 234.433 362.568C236.755 362.575 237.694 364.168 236.555 366.16Z" fill="#4F575F"/>
<path d="M275.75 361.055L261.453 361.111L268.103 370.876L275.75 361.055Z" fill="#2A3134"/>
<path d="M261.452 361.11L249.818 361.154L246.375 370.957L268.102 370.875L261.452 361.11Z" fill="#4F575F"/>
<path d="M45.9954 145.135C47.4683 147.661 47.5228 151.739 46.0709 154.262C44.6381 156.751 42.2792 156.754 40.7839 154.189L23.3743 124.323C21.9392 121.861 21.8847 117.783 23.3365 115.261C24.8155 112.691 27.189 112.872 28.5858 115.269L45.9954 145.135Z" fill="white"/>
<path d="M50.5231 145.099L33.1132 115.232C32.3958 114.002 31.4555 113.418 30.5179 113.351L25.9899 113.387C26.9275 113.453 27.8673 114.037 28.5844 115.268L45.9945 145.134C48.3137 149.114 46.8448 156.14 43.4154 156.134L47.944 156.099C48.9189 156.1 49.8909 155.454 50.5985 154.226C52.0502 151.703 51.9954 147.625 50.5231 145.099Z" fill="#E2CCCC"/>
<path d="M50.6034 154.228C49.9077 155.444 48.9084 156.084 47.9203 156.096L43.413 156.113C46.9476 156.229 48.2592 149.031 45.999 145.136L50.507 145.119C52.0028 147.646 52.0447 151.707 50.6034 154.228Z" fill="#DABEBE"/>
<path d="M274.758 314.886L271.106 321.243C268.638 325.53 263.364 328.205 255.846 328.258C240.718 328.364 222.248 317.797 214.597 304.672C210.741 298.057 210.36 292.054 212.861 287.708L216.514 281.352C214.013 285.698 214.394 291.701 218.25 298.315C225.901 311.441 244.371 322.007 259.499 321.901C267.016 321.849 272.291 319.174 274.758 314.886Z" fill="#4E8A87"/>
<path d="M273.024 297.932C280.675 311.058 274.635 321.796 259.497 321.902C244.369 322.008 225.899 311.441 218.248 298.316C210.587 285.174 216.642 274.444 231.77 274.338C246.908 274.232 265.363 284.79 273.024 297.932Z" fill="#2EBDB6"/>
<path d="M256.114 291.738L246.841 308.152C246.44 308.862 245.208 308.578 244.493 308.169L234.711 302.576C233.998 302.168 233.124 301.242 233.523 300.537C233.838 299.96 234.898 299.953 235.881 300.521L243.872 305.09L252.563 289.707C252.884 289.139 253.933 289.132 254.921 289.691C255.633 290.098 256.506 291.022 256.114 291.738Z" fill="#EBF2FF"/>
<g opacity="0.9">
<path opacity="0.4" d="M121.693 193.583C103.779 162.931 120.836 132.846 156.318 132.601C184.825 132.442 217.709 151.318 232.009 175.945C249.949 206.641 232.826 236.691 197.454 236.898C169.121 237.143 136.088 218.34 121.693 193.583Z" fill="#EBF2FF"/>
<path opacity="0.9" d="M138.409 190.912C125.925 169.55 137.812 148.584 162.539 148.413C182.406 148.303 205.322 161.457 215.288 178.619C227.791 200.012 215.857 220.954 191.207 221.098C171.461 221.269 148.44 208.165 138.409 190.912Z" fill="#EBF2FF"/>
<path d="M187.779 203.46C175.877 203.559 161.334 195.242 155.322 184.901C149.294 174.59 154.052 166.131 165.983 166.05C177.869 165.982 192.383 174.281 198.394 184.622C204.422 194.933 199.664 203.392 187.779 203.46Z" fill="#E0EBFF"/>
</g>
<path d="M341.241 55.4479C330.207 57.5262 314.308 55.9207 305.404 48.8341C302.068 46.4563 300.185 43.4033 298.996 41.1436C297.241 37.1744 295.613 37.1133 297.336 32.0612L297.142 31.8443C302.389 33.7852 308.665 36.2411 320.305 36.442C323.395 36.4953 326.578 36.2168 329.738 35.6923L341.241 55.4479Z" fill="#DABEBE"/>
<path d="M140.112 159.869L129.303 141.157C127.128 137.373 125.419 133.326 124.348 128.904C120.022 112.774 124.654 92.453 136.481 71.5858L156.562 36.2808L168.01 56.0968L147.927 91.4038C136.147 112.189 131.468 132.591 135.795 148.72C137.96 156.679 139.858 158.939 140.112 159.869Z" fill="#B37F7F"/>
<path d="M242.45 27.7479L231.003 7.94659L287.368 7.71208L298.815 27.5134L242.45 27.7479Z" fill="#E7D4D4"/>
<path d="M197.483 30.4677C186.524 34.5647 174.94 36.9301 165.165 36.968C162.076 37.0018 159.204 36.8404 156.56 36.282L168.007 56.098C170.696 56.5786 173.523 56.8178 176.612 56.785C186.387 56.7476 197.972 54.3758 208.931 50.2711L197.483 30.4677Z" fill="#DABEBE"/>
<path d="M242.444 27.7354L231.005 7.94809C224.057 17.419 211.265 25.3124 197.483 30.465L208.93 50.2684C222.708 45.1078 235.496 37.2057 242.444 27.7354Z" fill="#DABEBE"/>
<path d="M321.289 90.7086C309.383 111.53 290.833 131.939 268.192 148.209C241.903 167.156 210.668 181.053 177.839 191.075C160.937 183.422 147.673 173.297 140.37 160.335C140.382 160.13 140.223 160.039 140.109 159.867C139.85 158.919 137.962 156.695 135.792 148.718C131.465 132.59 136.144 112.188 147.924 91.4024L168.007 56.0954C170.695 56.5759 173.523 56.8152 176.611 56.7824C198.678 56.6979 229.969 44.7381 242.444 27.7355C248.208 27.7127 221.562 27.818 298.819 27.5129C291.473 49.0424 319.468 59.4685 341.291 55.358L321.289 90.7086Z" fill="#C49C9C"/>
<path d="M327.629 63.5124C326.479 63.4424 325.347 63.3389 324.228 63.2116L313.349 82.4402C301.808 102.623 283.748 122.159 262.514 137.419C239.457 154.037 210.818 167.766 177.343 178.254C165.288 172.448 153.268 164.202 146.532 152.707C146.065 151.621 144.862 149.847 144 147.375C145.693 153.183 147.229 155.233 147.871 156.651C154.609 168.148 166.631 176.394 178.682 182.198C212.157 171.71 240.797 157.981 263.853 141.363C285.088 126.103 303.148 106.567 314.688 86.3843L327.629 63.5124Z" fill="#B37F7F"/>
<path d="M177.299 178.311C210.774 167.822 239.413 154.093 262.47 137.475C283.705 122.215 301.765 102.679 313.305 82.4966L324.185 63.268C316.91 62.4404 310.322 60.415 304.84 57.2803C296.856 52.7151 291.499 46.0329 289.191 35.0501L246.449 35.2273C230.747 53.1625 198.962 64.2052 176.917 64.2894C175.406 64.3053 173.937 64.2657 172.496 64.1696L155.01 94.9102C145.997 110.813 138.991 130.406 144.119 147.941C150.141 162.106 163.488 171.658 177.299 178.311Z" fill="#E2CCCC"/>
<path d="M281.712 75.6495L191.192 141.701L184.715 104.9L201.001 118.301L281.712 75.6495Z" fill="#B37F7F"/>
<path d="M375.192 376.099L99.0587 376.871C98.2525 376.866 97.4876 376.775 96.926 376.616C96.3643 376.458 96.0499 376.244 96.0493 376.022C96.0486 375.799 96.3619 375.584 96.9226 375.422C97.4834 375.261 98.2477 375.165 99.0539 375.156L375.187 374.383C375.994 374.388 376.759 374.48 377.32 374.638C377.882 374.797 378.196 375.01 378.197 375.233C378.198 375.456 377.884 375.671 377.324 375.832C376.763 375.994 375.998 376.089 375.192 376.099Z" fill="#4F575F"/>
</svg>
