<svg width="1221" height="1128" viewBox="0 0 1221 1128" fill="none" xmlns="http://www.w3.org/2000/svg">
<path d="M385.149 59.6558C385.149 59.6558 539.8 68.2372 588.779 96.8005C588.779 96.8005 581.839 172.019 578.308 242.034L576.883 253.248C592.367 260.233 607.282 268.416 621.493 277.722C621.493 277.722 633.916 289.742 638.594 316.508C646.799 336.222 656.579 355.244 667.839 373.387C681.253 371.002 695.173 368.317 709.599 365.333L711.087 320.629C673.137 311.18 687.697 303.404 687.697 303.404L691.848 302.32C698.332 300.614 705.045 299.945 711.737 300.337L711.768 299.098L718.057 106.807C718.057 106.807 481.713 5.47242 385.149 59.6558ZM673.477 137.632L663.192 137.353C656.314 137.136 649.468 136.702 642.591 136.268C635.744 135.742 628.898 135.215 622.082 134.472C615.235 133.728 608.389 132.953 601.605 131.839C608.482 131.684 615.36 131.87 622.237 132.087C629.114 132.303 635.961 132.737 642.807 133.17C649.654 133.698 656.532 134.224 663.347 134.968L673.601 136.113C677.009 136.61 680.417 137.012 683.824 137.6C680.386 137.724 676.947 137.632 673.477 137.632ZM685.962 155.6C682.492 155.693 679.054 155.6 675.615 155.631L665.299 155.321C658.421 155.135 651.575 154.701 644.728 154.237C637.882 153.741 631.035 153.214 624.188 152.44C617.373 151.727 610.527 150.922 603.711 149.807C610.619 149.652 617.497 149.838 624.374 150.086C631.221 150.271 638.098 150.705 644.945 151.17C651.792 151.665 658.638 152.192 665.484 152.967L675.708 154.113C679.116 154.609 682.554 154.98 685.962 155.6ZM620.316 178.246C628.557 178.834 636.766 179.671 644.976 180.508C653.186 181.406 661.395 182.336 669.574 183.482L681.811 185.248C685.9 185.929 689.99 186.518 694.048 187.323C689.897 187.23 685.777 186.952 681.656 186.766L669.295 185.867C661.055 185.279 652.845 184.442 644.635 183.575C636.457 182.676 628.247 181.747 620.068 180.601C611.89 179.455 603.711 178.277 595.564 176.79C603.835 177.007 612.075 177.596 620.316 178.246ZM684.444 273.323C683.763 280.975 683.98 288.688 683.824 296.341C683.608 303.993 683.205 311.614 683.174 319.142C683.143 321.032 683.143 322.89 683.174 324.687C683.236 325.585 683.236 326.298 683.329 327.258L683.608 330.202C683.976 332.627 683.698 335.106 682.802 337.389C682.145 338.763 681.1 339.915 679.797 340.703C678.715 341.337 677.53 341.777 676.296 342.004C672.273 342.613 668.182 342.634 664.152 342.066C660.311 341.602 656.469 341.013 652.659 340.332C652.582 340.317 652.513 340.274 652.467 340.211C652.421 340.147 652.401 340.069 652.411 339.991C652.426 339.923 652.46 339.86 652.51 339.811C652.559 339.761 652.622 339.727 652.69 339.712C656.531 339.216 660.373 338.845 664.214 338.566C667.827 338.393 671.41 337.832 674.902 336.893C676.451 336.305 677.288 335.716 677.381 335.034C677.609 333.647 677.588 332.231 677.319 330.852L676.885 328.095C676.73 327.166 676.637 325.957 676.544 324.935C676.513 322.921 676.513 320.939 676.575 318.987C677.009 311.18 677.783 303.559 678.806 295.907C679.921 288.564 681.47 281.284 682.43 273.943C678.098 272.808 673.605 272.41 669.14 272.765C666.823 272.917 664.523 273.259 662.263 273.788C661.116 274.035 660.063 274.376 658.917 274.685C657.627 275.028 656.311 275.266 654.982 275.398C649.908 275.732 644.815 275.188 639.926 273.788C635.132 272.539 630.48 270.795 626.047 268.583L625.83 268.49C625.386 268.169 624.894 267.918 624.374 267.747C623.94 267.601 623.469 267.611 623.042 267.777C622.539 268.035 622.144 268.464 621.927 268.986C621.617 269.604 621.388 270.26 621.245 270.937L621.214 270.968C621.207 271.008 621.191 271.047 621.168 271.08C621.145 271.114 621.114 271.142 621.079 271.163C621.043 271.183 621.004 271.196 620.963 271.2C620.922 271.204 620.881 271.199 620.842 271.185C620.783 271.175 620.73 271.144 620.69 271.099C620.651 271.054 620.628 270.997 620.625 270.937C620.522 270.146 620.511 269.345 620.594 268.552C620.745 267.637 621.178 266.792 621.834 266.136C622.621 265.479 623.629 265.146 624.653 265.206C625.516 265.211 626.37 265.39 627.162 265.733C631.747 266.879 636.394 267.963 641.01 268.769C645.502 269.635 650.066 270.071 654.641 270.07C655.757 270.101 656.779 269.915 657.863 269.853C659.102 269.729 660.403 269.512 661.673 269.512C664.186 269.418 666.702 269.511 669.201 269.791C674.099 270.346 678.961 271.183 683.762 272.3C683.974 272.352 684.161 272.476 684.292 272.652C684.422 272.827 684.486 273.042 684.475 273.26L684.444 273.323ZM680.479 243.83L668.118 244.357C659.908 244.728 651.668 244.821 643.427 244.914C635.187 244.945 626.977 244.976 618.736 244.76C610.496 244.574 602.255 244.357 594.014 243.768C602.255 243.055 610.464 242.715 618.705 242.374C626.946 242.034 635.186 241.941 643.396 241.816C651.637 241.785 659.877 241.755 668.118 241.971L680.479 242.312C684.599 242.529 688.719 242.653 692.84 242.963C688.719 243.365 684.599 243.552 680.479 243.83ZM685.095 234.041L674.778 233.761C667.901 233.545 661.055 233.111 654.208 232.678C647.362 232.15 640.484 231.624 633.668 230.881C626.822 230.137 620.006 229.363 613.191 228.248C620.1 228.093 626.977 228.278 633.823 228.495C640.701 228.712 647.547 229.146 654.425 229.58C661.272 230.106 668.118 230.633 674.933 231.376L685.188 232.523C688.596 233.018 692.003 233.421 695.411 234.01C691.972 234.134 688.534 234.041 685.095 234.041ZM611.053 210.248C617.962 210.093 624.84 210.279 631.717 210.527C638.594 210.713 645.441 211.147 652.287 211.611C659.134 212.107 665.98 212.634 672.827 213.408L683.081 214.554C686.489 215.05 689.897 215.453 693.304 216.041C689.835 216.134 686.396 216.041 682.958 216.072L672.641 215.762C665.795 215.577 658.917 215.143 652.071 214.678C645.224 214.183 638.378 213.656 631.531 212.881C624.715 212.169 617.869 211.394 611.053 210.248ZM686.52 201.264L676.204 200.985C669.326 200.799 662.48 200.334 655.602 199.901C648.756 199.374 641.909 198.847 635.094 198.105C628.247 197.36 621.432 196.586 614.616 195.471C621.494 195.316 628.371 195.502 635.248 195.719C642.126 195.935 648.972 196.37 655.819 196.803C662.697 197.33 669.543 197.856 676.358 198.6L686.613 199.777C690.021 200.272 693.428 200.644 696.836 201.233C693.397 201.357 689.959 201.264 686.52 201.264ZM690.981 171.648L680.665 171.369C673.787 171.183 666.941 170.718 660.094 170.284C653.248 169.758 646.401 169.231 639.555 168.488C632.708 167.744 625.893 166.969 619.077 165.854C625.986 165.699 632.863 165.885 639.71 166.102C646.587 166.319 653.434 166.753 660.311 167.186C667.158 167.713 674.004 168.24 680.82 168.983L691.074 170.161C694.482 170.656 697.92 171.028 701.297 171.616C697.858 171.74 694.42 171.648 690.981 171.648ZM693.335 123.877L680.974 122.979C672.734 122.39 664.524 121.553 656.315 120.686C648.136 119.787 639.926 118.858 631.748 117.712C623.569 116.566 615.391 115.388 607.243 113.901C615.515 114.118 623.755 114.707 631.996 115.357C640.236 115.946 648.446 116.783 656.656 117.619C664.865 118.548 673.075 119.447 681.222 120.624L693.49 122.359C697.58 123.04 701.669 123.629 705.727 124.434C701.576 124.342 697.456 124.063 693.335 123.877ZM571.616 369.794C570.112 364.911 567.382 360.495 563.686 356.968L562.632 365.333C482.395 385.624 437.288 388.444 413.434 387.173C444.042 391.138 504.545 395.073 596.4 384.075C587.726 383.921 573.041 377.972 571.616 369.794ZM580.693 282.028C580.693 282.028 577.812 280.324 573.785 277.691L573.227 282.121C575.706 281.837 578.208 281.805 580.693 282.028Z" fill="#111928"/>
<path d="M389.766 383.052C393.795 382.703 397.844 382.642 401.882 382.869C405.851 383.008 409.767 383.391 413.675 383.891C414.518 383.999 415.287 384.43 415.818 385.093C416.35 385.757 416.603 386.6 416.524 387.447C416.445 388.293 416.041 389.076 415.396 389.63C414.751 390.184 413.917 390.466 413.068 390.416C408.973 390.225 404.911 389.581 400.958 388.494C398.952 387.957 396.992 387.263 395.095 386.417C393.156 385.577 391.358 384.442 389.766 383.052ZM389.766 383.052C393.932 383.304 397.805 383.288 401.729 383.426C405.641 383.495 409.524 383.652 413.428 383.868L412.821 390.393C408.83 389.88 404.887 389.044 401.031 387.893C397.071 386.807 393.279 385.178 389.766 383.052Z" fill="#111928"/>
<path d="M817.068 145.567C818.037 154.06 818.864 162.513 820.041 170.841C820.65 174.994 821.273 179.145 822.241 183.13C822.673 185.094 823.227 187.028 823.9 188.923C824.21 189.819 824.581 190.693 825.012 191.538L825.698 193.147C825.984 193.758 826.204 194.397 826.353 195.055C826.976 197.57 826.922 200.205 826.199 202.693C825.598 204.975 824.656 207.152 823.404 209.152C821.05 212.917 818.246 216.38 815.054 219.465C814.275 220.227 813.497 220.985 812.69 221.712L811.479 222.798L810.869 223.333C810.725 223.454 810.59 223.586 810.466 223.728C809.981 224.333 809.74 225.097 809.79 225.871C809.904 226.749 810.261 227.578 810.82 228.264C812.929 231.736 816.306 234.252 820.237 235.277C820.382 235.307 820.517 235.369 820.634 235.459C820.751 235.55 820.845 235.666 820.91 235.798L820.935 235.851C824.348 242.754 828.374 249.338 832.964 255.522C837.347 261.645 842.388 267.269 847.998 272.293C850.638 274.6 853.679 276.403 856.969 277.612C858.462 278.132 860.035 278.385 861.616 278.359C862.37 278.349 863.121 278.275 863.861 278.137C864.671 278.003 865.664 277.738 866.557 277.546C870.148 276.727 873.676 275.654 877.115 274.334C878.703 273.72 880.221 272.94 881.645 272.006C882.244 271.615 882.794 271.154 883.285 270.633C883.468 270.454 883.631 270.255 883.769 270.04L883.883 269.864C883.905 269.931 883.883 269.656 883.895 270.307L888.712 267.591C891.865 270.077 894.705 272.937 897.168 276.108C899.626 279.161 901.732 282.482 903.446 286.007C906.958 292.904 908.884 300.499 909.082 308.236C909.084 308.314 909.059 308.391 909.009 308.451C908.959 308.511 908.889 308.551 908.812 308.563C908.735 308.574 908.656 308.557 908.59 308.515C908.525 308.473 908.477 308.407 908.456 308.332L908.452 308.314C907.589 304.696 906.424 301.157 904.97 297.734C903.587 294.352 901.869 291.116 899.843 288.076C897.851 285.061 895.603 282.224 893.124 279.596C890.733 277.022 888.086 274.699 885.224 272.663L890.041 269.948C890.064 270.58 889.973 271.212 889.773 271.812C889.648 272.209 889.488 272.594 889.294 272.963C888.972 273.602 888.577 274.201 888.116 274.748C887.323 275.685 886.418 276.521 885.42 277.236C883.648 278.508 881.743 279.586 879.739 280.449C875.988 282.065 872.085 283.301 868.088 284.137C867.083 284.348 866.197 284.588 865.094 284.775C863.925 284.983 862.737 285.064 861.55 285.016C859.242 284.952 856.964 284.488 854.814 283.646C850.854 282.027 847.228 279.688 844.119 276.748C838.302 271.212 833.386 264.8 829.551 257.745C825.703 250.906 822.212 243.872 819.093 236.671L819.79 237.244C815.425 235.989 811.644 233.231 809.117 229.456C808.283 228.517 807.72 227.369 807.489 226.135C807.299 224.771 807.615 223.385 808.376 222.237C808.565 221.948 808.777 221.676 809.01 221.422L809.533 220.834L810.565 219.65C811.251 218.86 811.905 218.044 812.554 217.23C815.131 214.046 817.321 210.569 819.08 206.87C820.789 203.691 821.413 200.042 820.859 196.476C820.774 196.096 820.639 195.728 820.459 195.384L820.242 194.844L819.89 194.059C819.386 192.993 818.955 191.893 818.601 190.768C817.911 188.631 817.357 186.453 816.941 184.246C816.177 179.96 815.695 175.629 815.499 171.28C815.041 162.694 815.354 154.085 816.433 145.556C816.439 145.514 816.452 145.474 816.473 145.438C816.494 145.401 816.522 145.369 816.555 145.344C816.588 145.318 816.626 145.299 816.666 145.288C816.707 145.277 816.749 145.274 816.79 145.279C816.862 145.29 816.928 145.324 816.978 145.376C817.029 145.428 817.06 145.495 817.068 145.567ZM908.767 228.865C909.385 231.963 909.438 235.148 908.923 238.265C908.446 241.425 907.485 244.492 906.074 247.36C904.647 250.257 902.677 252.852 900.269 255.005C897.91 257.15 895.091 258.728 892.028 259.617C894.371 257.707 896.534 255.586 898.489 253.281C900.359 251.031 901.953 248.565 903.238 245.937C905.81 240.509 907.669 234.77 908.767 228.865Z" fill="#151F32"/>
<path d="M917.195 215.144C941.167 271.534 1005.64 287.652 1012.3 192.276C1016.54 131.572 963.631 80.5973 923.631 83.2787C913.508 82.3208 903.299 82.8454 893.327 84.8358C879.629 87.7439 866.6 93.202 854.92 100.925C840.425 109.883 827.603 121.299 817.032 134.662C815.806 146.141 818.357 157.706 824.298 167.604C835.091 185.059 853.493 190.356 863.729 191.964C867.208 192.572 870.784 192.276 874.116 191.104C877.447 189.931 880.421 187.923 882.752 185.27C884.401 183.319 885.641 181.056 886.4 178.617C887.339 175.044 888.993 171.699 891.261 168.784C893.53 165.868 896.366 163.442 899.597 161.653C907.586 157.699 917.365 158.894 922.004 182.931C925.864 202.938 922.288 211.63 917.195 215.144ZM554.412 565.96C565.263 564.131 576.21 562.927 587.199 562.353C598.126 561.627 609.051 561.377 619.976 561.39C630.901 561.427 641.824 561.743 652.747 562.529C663.733 563.165 674.673 564.438 685.512 566.341C674.663 568.182 663.716 569.391 652.727 569.963C641.8 570.685 630.873 570.938 619.948 570.912C609.022 570.861 598.097 570.547 587.174 569.758C576.19 569.12 565.251 567.852 554.412 565.96Z" fill="#151F32"/>
<path d="M668.245 538.75C650.759 539.558 633.269 540.163 615.779 540.757L589.542 541.672L576.423 542.091C572.233 542.119 568.055 542.54 563.943 543.347C555.797 544.966 548.043 548.152 541.112 552.728L535.827 556.395C534.166 557.537 532.58 558.784 531.078 560.128C528.158 562.807 525.647 565.9 523.628 569.31C521.638 572.714 520.163 576.394 519.252 580.23C518.804 582.14 518.502 584.082 518.351 586.037C518.231 587.01 518.261 587.994 518.216 588.971L518.209 592.216L518.129 618.456L517.878 670.934L517.382 723.409C517.077 758.393 516.482 793.373 515.596 828.348L514.027 880.809L513.623 893.924C513.571 896.082 513.455 898.357 513.455 900.42C513.425 902.406 513.545 904.391 513.816 906.358C514.87 914.338 518.316 921.811 523.701 927.794C526.428 930.771 529.556 933.353 532.995 935.466C536.51 937.492 540.285 939.027 544.217 940.027C548.31 940.874 552.48 941.301 556.66 941.3L569.761 941.776C587.236 942.256 604.716 942.668 622.199 942.81C692.13 943.436 762.003 941.24 831.816 936.223C866.677 933.741 901.472 930.56 936.191 926.943C944.875 926.071 953.531 924.971 962.201 923.996C970.884 923.046 979.507 921.914 988.113 920.744L1001.03 919.038L1004.27 918.624L1005.88 918.417C1006.01 918.411 1006.13 918.386 1006.25 918.343L1006.81 918.196C1008.51 917.691 1010.15 917.008 1011.71 916.159C1014.88 914.438 1017.68 912.12 1019.97 909.332C1022.25 906.463 1024 903.212 1025.13 899.732C1026.28 896.061 1026.94 892.255 1027.09 888.412C1027.24 886.43 1027.25 884.439 1027.1 882.457L1026.92 879.443L1026.84 877.929L1026.69 876.212C1025.94 867.093 1025.8 858.343 1025.69 849.487C1025.56 831.84 1025.99 814.255 1026.77 796.684C1028.32 761.546 1031.59 726.521 1036.03 691.648C1044.82 621.801 1060.39 552.975 1082.51 486.142C1093.68 452.753 1107.44 420.288 1123.66 389.043C1127.6 381.179 1132.03 373.567 1136.4 365.946C1140.96 358.631 1144.81 350.904 1147.92 342.866C1150.89 334.783 1152.91 326.379 1153.92 317.826C1154.45 313.615 1154.29 309.347 1153.45 305.188C1153.1 303.155 1152.24 301.245 1150.94 299.644C1149.64 298.042 1147.95 296.803 1146.03 296.046L1145.99 296.03C1145.83 295.974 1145.7 295.856 1145.63 295.704C1145.55 295.552 1145.55 295.378 1145.6 295.219C1145.66 295.061 1145.78 294.931 1145.93 294.859C1146.08 294.787 1146.25 294.779 1146.41 294.835C1148.65 295.509 1150.66 296.794 1152.21 298.546C1153.71 300.321 1154.81 302.395 1155.44 304.63C1156.63 308.992 1157.07 313.526 1156.73 318.036C1156.12 326.919 1154.46 335.699 1151.79 344.194C1149 352.638 1145.42 360.801 1141.1 368.574C1137.19 376.357 1133 383.976 1129.41 391.912C1121.78 407.547 1115.25 423.7 1108.89 439.877C1102.83 456.186 1097.11 472.607 1091.95 489.22C1081.58 522.442 1073 556.194 1066.25 590.333C1062.78 607.384 1059.72 624.519 1056.84 641.681C1054.07 658.863 1051.61 676.093 1049.47 693.369C1047.36 710.647 1045.34 727.939 1043.81 745.279C1042.26 762.618 1040.99 779.975 1039.99 797.35C1039 814.718 1038.37 832.113 1038.28 849.452C1038.28 858.083 1038.33 866.839 1038.91 875.164C1040.04 884.701 1039.2 894.368 1036.45 903.567C1034.8 908.396 1032.3 912.89 1029.06 916.837C1025.74 920.787 1021.68 924.052 1017.11 926.448C1014.81 927.661 1012.39 928.625 1009.88 929.323L1008.85 929.579C1008.44 929.681 1008.02 929.758 1007.6 929.811L1005.96 930.001L1002.68 930.382L989.561 931.855C980.809 932.854 972.065 933.81 963.339 934.575C954.606 935.368 945.885 936.286 937.146 936.975L910.933 939.046L884.694 940.657C875.95 941.225 867.198 941.608 858.448 942.025C849.699 942.44 840.952 942.887 832.198 943.166C797.203 944.709 762.186 945.272 727.189 945.933C692.188 946.494 657.187 946.825 622.187 946.928L569.676 946.995L556.544 946.982C551.974 947.13 547.401 946.811 542.895 946.029C533.599 944.149 525.1 939.471 518.537 932.623C510.224 923.941 505.478 912.45 505.242 900.432C505.169 898.123 505.21 896.024 505.188 893.81L505.146 880.689L505.026 828.205C505.13 793.219 505.5 758.237 506.136 723.257L507.09 670.788L508.287 618.323L508.932 592.09L509.034 588.777C509.115 587.572 509.129 586.363 509.301 585.166C509.558 582.767 509.998 580.39 510.617 578.057C513.095 568.706 518.346 560.324 525.678 554.014C527.479 552.49 529.375 551.082 531.354 549.799C533.2 548.598 534.945 547.399 536.97 546.167C544.872 541.368 553.63 538.15 562.759 536.691C567.267 535.983 571.832 535.695 576.394 535.831L589.512 536.009L615.75 536.44C633.243 536.713 650.736 536.995 668.233 537.48C668.398 537.485 668.554 537.553 668.669 537.67C668.785 537.788 668.85 537.945 668.851 538.11C668.853 538.274 668.791 538.433 668.677 538.552C668.564 538.672 668.409 538.743 668.245 538.75Z" fill="#151F32"/>
<path d="M833.154 536.623C840.066 534.726 847.126 533.414 854.259 532.701C861.298 531.939 868.342 531.55 875.388 531.481C882.434 531.41 889.483 531.673 896.535 532.307C903.681 532.887 910.764 534.076 917.707 535.861C910.797 537.771 903.737 539.088 896.603 539.797C889.563 540.558 882.52 540.947 875.474 541.003C868.428 541.062 861.379 540.8 854.326 540.165C847.182 539.581 840.099 538.396 833.154 536.623ZM1015.94 920.656C1017.16 930.58 1017.69 940.504 1018.09 950.427C1018.44 960.351 1018.64 970.275 1018.27 980.199C1017.81 990.122 1016.89 1000.05 1016.66 1009.97C1016.64 1012.45 1016.56 1014.93 1016.59 1017.41C1016.61 1018.65 1016.63 1019.87 1016.55 1021.23C1016.42 1022.55 1016.14 1023.86 1015.72 1025.12C1014.84 1027.7 1013.34 1030.03 1011.34 1031.89C1009.35 1033.74 1006.92 1035.08 1004.28 1035.77C1000.05 1036.86 995.558 1036.25 991.77 1034.07C987.982 1031.89 985.195 1028.32 984.007 1024.12C983.592 1022.69 983.364 1021.22 983.328 1019.74L983.245 1016.01C983.025 1006.08 982.758 996.158 982.844 986.235C983.113 966.387 983.91 946.54 985.914 926.692C985.921 926.613 985.958 926.54 986.017 926.487C986.076 926.434 986.152 926.405 986.231 926.405C986.31 926.405 986.387 926.434 986.445 926.487C986.504 926.54 986.541 926.613 986.549 926.692C988.552 946.54 989.349 966.387 989.618 986.235C989.704 996.158 989.438 1006.08 989.218 1016.01L989.14 1019.72C989.129 1020.72 989.232 1021.72 989.446 1022.69C989.892 1024.68 990.824 1026.53 992.157 1028.07C993.533 1029.65 995.265 1030.87 997.21 1031.65C999.242 1032.4 1001.43 1032.65 1003.57 1032.37C1005.81 1032.03 1007.92 1031.11 1009.7 1029.71C1011.47 1028.31 1012.85 1026.47 1013.7 1024.37C1014.52 1022.15 1014.85 1019.77 1014.66 1017.41C1014.69 1014.93 1014.61 1012.45 1014.6 1009.97C1014.36 1000.05 1013.44 990.122 1012.98 980.199C1012.61 970.275 1012.81 960.351 1013.16 950.427C1013.56 940.504 1014.1 930.58 1015.31 920.656C1015.32 920.578 1015.36 920.507 1015.41 920.455C1015.47 920.403 1015.55 920.375 1015.63 920.375C1015.7 920.375 1015.78 920.403 1015.84 920.455C1015.9 920.507 1015.93 920.578 1015.94 920.656ZM562.836 942.882C564.048 951.355 564.582 959.828 564.98 968.3C565.33 976.773 565.531 985.245 565.162 993.718C564.707 1002.19 563.782 1010.66 563.548 1019.14C563.571 1021.4 563.133 1023.64 562.262 1025.73C561.391 1027.82 560.104 1029.71 558.481 1031.29C556.775 1032.95 554.731 1034.23 552.488 1035.04C550.244 1035.84 547.854 1036.16 545.478 1035.96C543.103 1035.76 540.798 1035.05 538.72 1033.88C536.643 1032.71 534.841 1031.11 533.437 1029.18C531.963 1027.14 530.969 1024.79 530.529 1022.31C530.251 1020.07 530.12 1017.81 530.138 1015.55C529.918 1007.07 529.652 998.602 529.738 990.129C529.888 973.142 530.912 956.175 532.807 939.294C532.816 939.216 532.854 939.145 532.912 939.093C532.971 939.041 533.046 939.012 533.124 939.012C533.203 939.012 533.278 939.041 533.337 939.093C533.395 939.145 533.433 939.216 533.442 939.294C535.336 956.175 536.361 973.142 536.511 990.129C536.597 998.602 536.331 1007.07 536.111 1015.55C536.08 1017.64 535.93 1019.94 536.088 1021.47C536.478 1024.78 538.143 1027.8 540.728 1029.89C543.313 1031.98 546.614 1032.99 549.927 1032.68C553.24 1032.38 556.303 1030.79 558.463 1028.26C560.623 1025.73 561.709 1022.46 561.489 1019.14C561.256 1010.66 560.331 1002.19 559.876 993.718C559.506 985.245 559.707 976.773 560.058 968.3C560.455 959.828 560.989 951.355 562.201 942.882C562.212 942.805 562.25 942.736 562.309 942.685C562.367 942.635 562.442 942.607 562.519 942.607C562.596 942.607 562.671 942.635 562.729 942.685C562.787 942.736 562.825 942.805 562.836 942.882ZM711.81 300.255C718.113 300.898 724.421 301.901 730.488 302.095L730.324 302.089L734.135 301.885C734.715 301.851 735.286 302.049 735.721 302.434C736.156 302.82 736.421 303.363 736.457 303.943C736.493 304.524 736.298 305.095 735.914 305.532C735.53 305.969 734.988 306.235 734.408 306.274C732.999 306.364 731.569 306.433 730.135 306.456C730.007 306.458 729.879 306.44 729.757 306.401L729.573 306.341C726.238 305.292 722.834 304.481 719.385 303.913C715.954 303.398 712.495 303.09 709.026 302.992C705.556 302.893 702.082 302.987 698.622 303.273C695.087 303.642 691.576 304.206 688.103 304.963L688.454 304.825C687.943 305.033 687.484 305.35 687.109 305.754C686.734 306.159 686.452 306.64 686.284 307.165C686.047 308.115 686.902 309.295 687.845 310.312C690.184 312.274 692.849 313.812 695.718 314.856C697.191 315.376 698.633 315.967 700.128 316.43L704.651 317.711C707.717 318.389 710.789 319.079 713.856 319.627C714.093 319.669 714.314 319.774 714.498 319.93L714.653 320.063C718.141 322.986 721.832 325.659 725.696 328.062C729.463 330.483 733.427 332.581 737.547 334.336C741.454 336.042 745.658 336.963 749.921 337.046C753.873 337.103 757.734 335.856 760.906 333.499L761.002 333.427C761.536 333.031 762.181 332.81 762.846 332.797C763.511 332.783 764.164 332.977 764.714 333.351C768.464 335.913 772.261 338.404 775.973 341.024C779.703 343.618 783.409 346.249 787.09 348.916C790.781 351.57 794.387 354.354 798.039 357.067C801.67 359.813 805.25 362.637 808.778 365.54C808.838 365.588 808.877 365.657 808.889 365.733C808.9 365.808 808.884 365.886 808.842 365.95C808.8 366.015 808.736 366.061 808.662 366.081C808.588 366.101 808.509 366.094 808.441 366.059C804.353 364.017 800.317 361.895 796.333 359.693C792.369 357.46 788.36 355.297 784.434 353.005C780.495 350.734 776.585 348.418 772.704 346.057C768.801 343.731 764.981 341.275 761.116 338.891L764.923 338.743C760.604 342.06 755.252 343.742 749.813 343.491C744.745 343.186 739.789 341.881 735.228 339.653C730.842 337.596 726.703 335.049 722.89 332.061C719.127 329.116 715.603 325.878 712.352 322.376L713.148 322.812C710.056 321.925 707.049 320.86 704.009 319.899C700.99 318.854 697.976 317.814 695.002 316.607C691.933 315.446 689.038 313.869 686.397 311.921C685.613 311.345 684.966 310.604 684.5 309.751C684.034 308.897 683.761 307.952 683.7 306.981C683.74 305.905 684.113 304.868 684.769 304.014C685.36 303.21 686.096 302.523 686.938 301.987C686.981 301.96 687.027 301.938 687.076 301.921L687.29 301.85C690.765 300.595 694.311 299.545 697.909 298.704C701.588 297.874 705.35 297.464 709.122 297.483C716.648 297.536 724.097 299.013 731.075 301.834L730.514 301.72C731.62 301.743 732.73 301.812 733.861 301.902L734.135 306.291L730.324 306.087L730.16 306.08C726.964 305.584 723.808 304.865 720.713 303.928C717.648 303.034 714.631 302.01 711.663 300.857C711.592 300.83 711.534 300.778 711.499 300.711C711.464 300.643 711.455 300.566 711.473 300.492C711.491 300.419 711.535 300.354 711.597 300.311C711.659 300.267 711.734 300.247 711.81 300.255ZM712.47 277.795C724.688 278.694 736.732 281.209 748.289 285.272C759.896 289.084 771.256 293.612 782.303 298.829C793.314 304.073 804.126 309.709 814.6 315.924C825.138 322.042 835.29 328.801 845.001 336.161C833.994 330.921 823.147 325.537 812.301 320.178C801.433 314.869 790.608 309.524 779.675 304.437C768.799 299.217 757.75 294.428 746.636 289.796C735.519 285.062 724.106 281.053 712.47 277.795ZM246.918 652.175C250.573 656.11 254.26 660.075 257.977 663.948C259.341 658.805 260.859 653.693 262.283 648.52C257.172 649.821 252.05 651.039 246.918 652.175ZM260.332 666.426C264.266 670.577 268.231 674.76 272.259 678.849L273.436 680.026C274.489 674.45 275.636 668.874 276.813 663.297C271.298 664.351 265.846 665.373 260.332 666.426ZM275.605 682.225C280.995 687.647 286.417 693.007 291.962 698.242L293.48 687.089L294.781 676.339C288.368 678.26 282.018 680.305 275.605 682.225ZM292.984 699.233C295.184 701.278 297.414 703.354 299.707 705.367C303.331 708.713 307.08 711.966 310.859 715.126C311.231 707.288 311.665 699.471 312.161 691.674C305.748 694.184 299.366 696.662 292.984 699.233ZM332.607 707.629C326.194 710.851 319.751 713.98 313.338 717.202C318.468 721.431 323.814 725.391 329.354 729.067C330.47 729.842 331.585 730.554 332.731 731.236L332.607 707.629ZM355.16 715.932C348.624 721.57 341.963 727.053 335.364 732.629C335.31 732.668 335.245 732.69 335.179 732.691C338.641 734.729 342.281 736.45 346.052 737.834C349.197 739.094 352.547 739.766 355.935 739.817C358.194 739.821 360.438 739.433 362.565 738.67C360.025 731.08 357.577 723.521 355.16 715.932ZM246.918 652.175C250.573 656.11 254.26 660.075 257.977 663.948C259.341 658.805 260.859 653.693 262.283 648.52C257.172 649.821 252.05 651.039 246.918 652.175ZM260.332 666.426C264.266 670.577 268.231 674.76 272.259 678.849L273.436 680.026C274.489 674.45 275.636 668.874 276.813 663.297C271.298 664.351 265.846 665.373 260.332 666.426ZM275.605 682.225C280.995 687.647 286.417 693.007 291.962 698.242L293.48 687.089L294.781 676.339C288.368 678.26 282.018 680.305 275.605 682.225ZM292.984 699.233C295.184 701.278 297.414 703.354 299.707 705.367C303.331 708.713 307.08 711.966 310.859 715.126C311.231 707.288 311.665 699.471 312.161 691.674C305.748 694.184 299.366 696.662 292.984 699.233ZM332.607 707.629C326.194 710.851 319.751 713.98 313.338 717.202C318.468 721.431 323.814 725.391 329.354 729.067C330.47 729.842 331.585 730.554 332.731 731.236L332.607 707.629ZM355.16 715.932C348.624 721.57 341.963 727.053 335.364 732.629C335.31 732.668 335.245 732.69 335.179 732.691C338.641 734.729 342.281 736.45 346.052 737.834C349.197 739.094 352.547 739.766 355.935 739.817C358.194 739.821 360.438 739.433 362.565 738.67C360.025 731.08 357.577 723.521 355.16 715.932ZM246.918 652.175C250.573 656.11 254.26 660.075 257.977 663.948C259.341 658.805 260.859 653.693 262.283 648.52C257.172 649.821 252.05 651.039 246.918 652.175ZM260.332 666.426C264.266 670.577 268.231 674.76 272.259 678.849L273.436 680.026C274.489 674.45 275.636 668.874 276.813 663.297C271.298 664.351 265.846 665.373 260.332 666.426ZM275.605 682.225C280.995 687.647 286.417 693.007 291.962 698.242L293.48 687.089L294.781 676.339C288.368 678.26 282.018 680.305 275.605 682.225ZM292.984 699.233C295.184 701.278 297.414 703.354 299.707 705.367C303.331 708.713 307.08 711.966 310.859 715.126C311.231 707.288 311.665 699.471 312.161 691.674C305.748 694.184 299.366 696.662 292.984 699.233ZM332.607 707.629C326.194 710.851 319.751 713.98 313.338 717.202C318.468 721.431 323.814 725.391 329.354 729.067C330.47 729.842 331.585 730.554 332.731 731.236L332.607 707.629ZM355.16 715.932C348.624 721.57 341.963 727.053 335.364 732.629C335.31 732.668 335.245 732.69 335.179 732.691C338.641 734.729 342.281 736.45 346.052 737.834C349.197 739.094 352.547 739.766 355.935 739.817C358.194 739.821 360.438 739.433 362.565 738.67C360.025 731.08 357.577 723.521 355.16 715.932ZM246.918 652.175C250.573 656.11 254.26 660.075 257.977 663.948C259.341 658.805 260.859 653.693 262.283 648.52C257.172 649.821 252.05 651.039 246.918 652.175ZM260.332 666.426C264.266 670.577 268.231 674.76 272.259 678.849L273.436 680.026C274.489 674.45 275.636 668.874 276.813 663.297C271.298 664.351 265.846 665.373 260.332 666.426ZM275.605 682.225C280.995 687.647 286.417 693.007 291.962 698.242L293.48 687.089L294.781 676.339C288.368 678.26 282.018 680.305 275.605 682.225ZM292.984 699.233C295.184 701.278 297.414 703.354 299.707 705.367C303.331 708.713 307.08 711.966 310.859 715.126C311.231 707.288 311.665 699.471 312.161 691.674C305.748 694.184 299.366 696.662 292.984 699.233ZM332.607 707.629C326.194 710.851 319.751 713.98 313.338 717.202C318.468 721.431 323.814 725.391 329.354 729.067C330.47 729.842 331.585 730.554 332.731 731.236L332.607 707.629ZM355.16 715.932C348.624 721.57 341.963 727.053 335.364 732.629C335.31 732.668 335.245 732.69 335.179 732.691C338.641 734.729 342.281 736.45 346.052 737.834C349.197 739.094 352.547 739.766 355.935 739.817C358.194 739.821 360.438 739.433 362.565 738.67C360.025 731.08 357.577 723.521 355.16 715.932ZM246.918 652.175C250.573 656.11 254.26 660.075 257.977 663.948C259.341 658.805 260.859 653.693 262.283 648.52C257.172 649.821 252.05 651.039 246.918 652.175ZM260.332 666.426C264.266 670.577 268.231 674.76 272.259 678.849L273.436 680.026C274.489 674.45 275.636 668.874 276.813 663.297C271.298 664.351 265.846 665.373 260.332 666.426ZM275.605 682.225C280.995 687.647 286.417 693.007 291.962 698.242L293.48 687.089L294.781 676.339C288.368 678.26 282.018 680.305 275.605 682.225ZM292.984 699.233C295.184 701.278 297.414 703.354 299.707 705.367C303.331 708.713 307.08 711.966 310.859 715.126C311.231 707.288 311.665 699.471 312.161 691.674C305.748 694.184 299.366 696.662 292.984 699.233ZM332.607 707.629C326.194 710.851 319.751 713.98 313.338 717.202C318.468 721.431 323.814 725.391 329.354 729.067C330.47 729.842 331.585 730.554 332.731 731.236L332.607 707.629ZM355.16 715.932C348.624 721.57 341.963 727.053 335.364 732.629C335.31 732.668 335.245 732.69 335.179 732.691C338.641 734.729 342.281 736.45 346.052 737.834C349.197 739.094 352.547 739.766 355.935 739.817C358.194 739.821 360.438 739.433 362.565 738.67C360.025 731.08 357.577 723.521 355.16 715.932ZM246.918 652.175C250.573 656.11 254.26 660.075 257.977 663.948C259.341 658.805 260.859 653.693 262.283 648.52C257.172 649.821 252.05 651.039 246.918 652.175ZM260.332 666.426C264.266 670.577 268.231 674.76 272.259 678.849L273.436 680.026C274.489 674.45 275.636 668.874 276.813 663.297C271.298 664.351 265.846 665.373 260.332 666.426ZM275.605 682.225C280.995 687.647 286.417 693.007 291.962 698.242L293.48 687.089L294.781 676.339C288.368 678.26 282.018 680.305 275.605 682.225ZM292.984 699.233C295.184 701.278 297.414 703.354 299.707 705.367C303.331 708.713 307.08 711.966 310.859 715.126C311.231 707.288 311.665 699.471 312.161 691.674C305.748 694.184 299.366 696.662 292.984 699.233ZM332.607 707.629C326.194 710.851 319.751 713.98 313.338 717.202C318.468 721.431 323.814 725.391 329.354 729.067C330.47 729.842 331.585 730.554 332.731 731.236L332.607 707.629ZM355.16 715.932C348.624 721.57 341.963 727.053 335.364 732.629C335.31 732.668 335.245 732.69 335.179 732.691C338.641 734.729 342.281 736.45 346.052 737.834C349.197 739.094 352.547 739.766 355.935 739.817C358.194 739.821 360.438 739.433 362.565 738.67C360.025 731.08 357.577 723.521 355.16 715.932ZM246.918 652.175C250.573 656.11 254.26 660.075 257.977 663.948C259.341 658.805 260.859 653.693 262.283 648.52C257.172 649.821 252.05 651.039 246.918 652.175ZM260.332 666.426C264.266 670.577 268.231 674.76 272.259 678.849L273.436 680.026C274.489 674.45 275.636 668.874 276.813 663.297C271.298 664.351 265.846 665.373 260.332 666.426ZM275.605 682.225C280.995 687.647 286.417 693.007 291.962 698.242L293.48 687.089L294.781 676.339C288.368 678.26 282.018 680.305 275.605 682.225ZM292.984 699.233C295.184 701.278 297.414 703.354 299.707 705.367C303.331 708.713 307.08 711.966 310.859 715.126C311.231 707.288 311.665 699.471 312.161 691.674C305.748 694.184 299.366 696.662 292.984 699.233ZM332.607 707.629C326.194 710.851 319.751 713.98 313.338 717.202C318.468 721.431 323.814 725.391 329.354 729.067C330.47 729.842 331.585 730.554 332.731 731.236L332.607 707.629ZM355.16 715.932C348.624 721.57 341.963 727.053 335.364 732.629C335.31 732.668 335.245 732.69 335.179 732.691C338.641 734.729 342.281 736.45 346.052 737.834C349.197 739.094 352.547 739.766 355.935 739.817C358.194 739.821 360.438 739.433 362.565 738.67C360.025 731.08 357.577 723.521 355.16 715.932ZM246.918 652.175C250.573 656.11 254.26 660.075 257.977 663.948C259.341 658.805 260.859 653.693 262.283 648.52C257.172 649.821 252.05 651.039 246.918 652.175ZM260.332 666.426C264.266 670.577 268.231 674.76 272.259 678.849L273.436 680.026C274.489 674.45 275.636 668.874 276.813 663.297C271.298 664.351 265.846 665.373 260.332 666.426ZM275.605 682.225C280.995 687.647 286.417 693.007 291.962 698.242L293.48 687.089L294.781 676.339C288.368 678.26 282.018 680.305 275.605 682.225ZM292.984 699.233C295.184 701.278 297.414 703.354 299.707 705.367C303.331 708.713 307.08 711.966 310.859 715.126C311.231 707.288 311.665 699.471 312.161 691.674C305.748 694.184 299.366 696.662 292.984 699.233ZM332.607 707.629C326.194 710.851 319.751 713.98 313.338 717.202C318.468 721.431 323.814 725.391 329.354 729.067C330.47 729.842 331.585 730.554 332.731 731.236L332.607 707.629ZM355.16 715.932C348.624 721.57 341.963 727.053 335.364 732.629C335.31 732.668 335.245 732.69 335.179 732.691C338.641 734.729 342.281 736.45 346.052 737.834C349.197 739.094 352.547 739.766 355.935 739.817C358.194 739.821 360.438 739.433 362.565 738.67C360.025 731.08 357.577 723.521 355.16 715.932ZM366.993 802.954C363.306 807.416 359.651 811.846 355.933 816.244C361.634 817.731 367.334 819.094 373.127 820.241C371.022 814.508 369.007 808.748 366.993 802.954ZM392.179 813.829L388.524 804.349C384.528 809.894 380.5 815.408 376.473 820.953C382.545 822.224 388.617 823.339 394.751 824.268C395.308 824.33 395.866 824.392 396.454 824.486C395 820.952 393.543 817.391 392.179 813.829ZM409.807 803.791C406.244 810.761 402.867 817.855 399.429 824.919C406.771 825.972 414.175 826.839 421.548 827.428C417.708 819.527 413.834 811.597 409.807 803.791ZM437.379 807.137L423.717 827.646C427.651 827.924 431.585 828.172 435.52 828.265C439.578 828.42 443.637 828.42 447.695 828.388L437.379 807.137ZM463.681 806.362C459.684 813.705 455.626 820.985 451.568 828.265C459.857 828.024 468.129 827.362 476.351 826.282C476.581 826.253 476.808 826.212 477.033 826.159C472.48 819.589 468.141 812.96 463.681 806.362ZM490.974 800.693C487.442 809.026 483.817 817.267 480.224 825.569C485.663 824.719 491.036 823.487 496.302 821.883C501.143 820.681 505.878 819.085 510.46 817.112L510.491 813.829C503.955 809.491 497.448 805.112 490.974 800.693ZM652.192 482.842L526.476 393.186C512.553 383.858 496.687 377.827 480.083 375.551C463.48 373.275 446.576 374.814 430.656 380.051C407.359 388.013 382.854 405.113 364.173 439.655C364.173 439.655 281.985 595.514 245.924 651.092C246.172 651.34 246.451 651.65 246.668 651.898C246.672 651.898 246.676 651.897 246.68 651.896C246.684 651.894 246.687 651.892 246.69 651.889C246.693 651.886 246.695 651.882 246.697 651.878C246.698 651.874 246.699 651.87 246.699 651.866C252.213 650.008 257.738 648.232 263.273 646.538C263.38 646.498 263.495 646.48 263.61 646.487C263.724 646.494 263.836 646.524 263.939 646.577C264.041 646.629 264.131 646.702 264.203 646.792C264.275 646.881 264.328 646.985 264.357 647.096C264.388 647.239 264.388 647.386 264.357 647.529V647.591C263.118 652.951 261.941 658.341 260.609 663.732C266.556 662.462 272.484 661.223 278.391 660.014C278.773 659.939 279.168 660.018 279.493 660.232C279.817 660.446 280.045 660.78 280.126 661.16C280.157 661.366 280.157 661.575 280.126 661.78C278.763 667.79 277.461 673.8 275.974 679.81C282.387 678.169 288.893 676.62 295.337 674.915C295.414 674.894 295.495 674.888 295.574 674.899C295.654 674.909 295.731 674.935 295.8 674.975C295.869 675.016 295.93 675.07 295.978 675.134C296.026 675.198 296.061 675.271 296.08 675.349C296.106 675.418 296.116 675.492 296.111 675.566L294.469 687.214L293.168 697.84C299.798 694.959 306.376 692.026 312.902 689.042C313.162 688.924 313.457 688.913 313.724 689.012C313.991 689.111 314.208 689.311 314.328 689.569C314.388 689.705 314.419 689.853 314.42 690.002V690.064C314.328 697.871 314.163 705.657 313.925 713.423C320.462 710.047 326.998 706.607 333.535 703.292C333.947 703.084 334.424 703.045 334.864 703.184C335.304 703.323 335.672 703.629 335.89 704.036C336.013 704.287 336.076 704.562 336.075 704.841L335.952 728.076C342.302 723.119 348.622 718.132 355.004 713.268L355.066 713.237C355.175 713.15 355.3 713.086 355.435 713.048C355.569 713.01 355.71 713 355.848 713.017C355.987 713.034 356.121 713.079 356.242 713.149C356.363 713.219 356.468 713.312 356.553 713.423C356.623 713.539 356.675 713.664 356.708 713.795C358.845 722.004 360.9 730.245 362.873 738.517C363.369 738.337 363.855 738.13 364.329 737.897C358.876 741.553 351.658 741.181 345.555 739.384C339.393 737.396 333.503 734.649 328.021 731.205C317.166 724.331 306.953 716.493 297.506 707.785C288.119 699.048 279.01 690.033 270.429 680.554C262.158 671.414 254.196 662.028 246.73 652.176C246.668 652.145 246.606 652.145 246.606 652.083C246.606 652.052 246.637 652.052 246.637 652.021C246.42 651.712 246.141 651.433 245.924 651.092C238.892 661.966 233.626 668.999 231.054 670.3C231.054 670.3 301.1 764.478 361.85 775.383C363.833 751.466 366.312 727.55 369.843 703.757C373.251 679.965 377.402 656.235 382.545 632.721C387.466 609.102 394.019 585.853 402.155 563.141C406.242 551.715 411.353 540.683 417.428 530.179C420.569 524.936 424.392 520.133 428.798 515.897C431.049 513.778 433.675 512.097 436.543 510.941C437.951 510.324 439.486 510.051 441.021 510.142C442.555 510.234 444.047 510.688 445.372 511.467C444.032 510.85 442.565 510.557 441.091 510.611C439.616 510.665 438.175 511.064 436.883 511.777C434.286 513.135 431.948 514.938 429.975 517.105C426.056 521.525 422.753 526.454 420.154 531.758C414.82 542.388 410.355 553.432 406.802 564.783C403.116 576.09 399.863 587.615 396.951 599.171C393.946 610.756 391.157 622.374 388.741 634.085C383.536 657.443 379.106 680.988 374.739 704.532L361.85 775.383L354.448 815.903C354.82 815.996 355.192 816.058 355.563 816.151C359.188 811.008 362.874 805.897 366.623 800.754C366.756 800.583 366.95 800.471 367.165 800.442C367.379 800.413 367.596 800.47 367.77 800.599C367.903 800.694 368.01 800.822 368.079 800.971V801.002C370.402 806.795 372.788 812.619 375.08 818.443C379.294 812.433 383.476 806.392 387.751 800.444C387.975 800.126 388.315 799.909 388.697 799.839C389.08 799.769 389.474 799.853 389.796 800.072C390.014 800.263 390.193 800.495 390.322 800.754L394.753 812.867C395.93 816.12 397.045 819.404 398.191 822.719C401.909 815.903 405.689 809.087 409.282 802.211C409.349 802.072 409.467 801.964 409.612 801.912C409.757 801.86 409.917 801.867 410.057 801.931C410.15 802.024 410.243 802.117 410.336 802.211C414.301 810.482 418.452 818.598 422.666 826.746L436.514 803.976C436.684 803.694 436.958 803.491 437.277 803.41C437.595 803.328 437.934 803.376 438.217 803.542C438.386 803.685 438.532 803.852 438.651 804.038L438.682 804.069L449.587 825.228C453.707 817.576 457.796 809.862 462.04 802.241L462.071 802.21C462.176 802.014 462.319 801.841 462.492 801.701C462.665 801.561 462.865 801.458 463.079 801.397C463.293 801.336 463.517 801.319 463.738 801.347C463.959 801.375 464.172 801.447 464.364 801.559C464.615 801.677 464.821 801.872 464.952 802.117C469.414 808.871 473.906 815.593 478.305 822.377C482.053 814.478 485.709 806.547 489.55 798.709V798.616C489.689 798.377 489.913 798.199 490.177 798.118C490.442 798.038 490.727 798.061 490.975 798.182C491.023 798.22 491.075 798.252 491.13 798.276C497.636 803.139 504.08 808.065 510.523 813.022L510.864 787.929C510.279 788.185 509.645 788.312 509.005 788.3C507.732 788.251 506.527 787.71 505.643 786.792C504.759 785.874 504.266 784.649 504.266 783.374C504.266 782.1 504.759 780.875 505.643 779.956C506.527 779.038 507.732 778.498 509.005 778.449C509.689 778.425 510.368 778.563 510.989 778.852L513.591 589.193C513.591 589.193 511.856 554.063 555.289 541.949L691.259 543.096C691.259 543.096 668.177 510.134 652.192 482.842ZM264.14 637.895C262.864 637.856 261.653 637.322 260.764 636.405C259.874 635.488 259.377 634.262 259.377 632.984C259.377 631.707 259.874 630.481 260.764 629.564C261.653 628.647 262.864 628.113 264.14 628.074C265.414 628.117 266.621 628.653 267.507 629.568C268.393 630.484 268.888 631.709 268.889 632.983C268.889 634.257 268.394 635.482 267.508 636.398C266.623 637.315 265.414 637.852 264.14 637.895ZM276.718 654.438C275.444 654.389 274.239 653.848 273.355 652.93C272.472 652.012 271.978 650.787 271.978 649.512C271.978 648.237 272.472 647.012 273.355 646.094C274.239 645.176 275.444 644.635 276.718 644.586C277.989 644.638 279.191 645.18 280.072 646.098C280.954 647.015 281.446 648.238 281.446 649.511C281.446 650.783 280.955 652.006 280.074 652.924C279.193 653.842 277.989 654.385 276.718 654.438ZM296.018 668.999C294.746 668.954 293.541 668.417 292.657 667.501C291.773 666.585 291.279 665.361 291.279 664.088C291.279 662.815 291.773 661.592 292.657 660.676C293.541 659.76 294.746 659.223 296.018 659.178C297.288 659.226 298.49 659.764 299.371 660.68C300.253 661.595 300.745 662.816 300.745 664.087C300.746 665.358 300.253 666.579 299.372 667.495C298.491 668.41 297.288 668.95 296.018 668.999ZM314.142 683.187C312.864 683.144 311.653 682.606 310.764 681.687C309.875 680.768 309.379 679.54 309.379 678.261C309.379 676.983 309.875 675.754 310.764 674.835C311.653 673.916 312.864 673.378 314.142 673.336C315.417 673.382 316.624 673.921 317.51 674.839C318.396 675.758 318.891 676.984 318.892 678.26C318.892 679.536 318.397 680.762 317.512 681.681C316.626 682.6 315.417 683.14 314.142 683.187ZM333.814 695.765C332.541 695.72 331.336 695.183 330.452 694.267C329.568 693.351 329.074 692.127 329.074 690.854C329.074 689.581 329.568 688.358 330.452 687.442C331.336 686.526 332.541 685.989 333.814 685.944C335.084 685.992 336.285 686.53 337.167 687.446C338.048 688.361 338.541 689.582 338.541 690.853C338.541 692.124 338.049 693.345 337.168 694.261C336.287 695.177 335.084 695.716 333.814 695.765ZM357.049 706.019C355.771 705.976 354.56 705.438 353.671 704.519C352.783 703.6 352.286 702.371 352.286 701.093C352.286 699.814 352.783 698.586 353.671 697.667C354.56 696.748 355.771 696.21 357.049 696.167C358.324 696.214 359.531 696.753 360.417 697.671C361.303 698.589 361.798 699.816 361.798 701.092C361.798 702.368 361.303 703.594 360.418 704.513C359.533 705.431 358.324 705.972 357.049 706.019ZM242.145 670.981C240.913 670.937 239.746 670.417 238.89 669.53C238.033 668.643 237.555 667.458 237.555 666.226C237.555 664.993 238.033 663.808 238.89 662.921C239.746 662.034 240.913 661.514 242.145 661.47C243.374 661.517 244.538 662.038 245.392 662.925C246.245 663.811 246.722 664.994 246.722 666.224C246.722 667.455 246.246 668.638 245.393 669.524C244.54 670.411 243.374 670.934 242.145 670.981ZM258.905 690.033C257.671 689.992 256.501 689.474 255.642 688.586C254.784 687.699 254.304 686.512 254.304 685.278C254.304 684.043 254.784 682.857 255.642 681.969C256.501 681.082 257.671 680.563 258.905 680.522C260.136 680.567 261.302 681.087 262.158 681.973C263.013 682.86 263.492 684.044 263.492 685.276C263.492 686.509 263.014 687.693 262.159 688.58C261.304 689.467 260.136 689.989 258.905 690.033ZM276.439 708.312C275.207 708.268 274.04 707.748 273.184 706.861C272.328 705.974 271.849 704.789 271.849 703.556C271.849 702.323 272.328 701.139 273.184 700.252C274.04 699.365 275.207 698.844 276.439 698.801C277.669 698.848 278.833 699.369 279.686 700.255C280.54 701.142 281.017 702.324 281.017 703.555C281.017 704.785 280.541 705.968 279.687 706.855C278.834 707.742 277.669 708.265 276.439 708.312ZM295.492 728.913C294.254 728.871 293.081 728.35 292.221 727.46C291.36 726.57 290.879 725.38 290.879 724.142C290.879 722.904 291.36 721.714 292.221 720.824C293.081 719.934 294.254 719.413 295.492 719.371C296.726 719.416 297.896 719.938 298.754 720.828C299.611 721.717 300.091 722.905 300.091 724.141C300.091 725.376 299.612 726.564 298.755 727.454C297.898 728.344 296.726 728.867 295.492 728.913ZM314.544 745.673C313.307 745.632 312.134 745.111 311.273 744.22C310.413 743.33 309.932 742.141 309.932 740.902C309.932 739.664 310.413 738.475 311.273 737.584C312.134 736.694 313.307 736.173 314.544 736.131C315.779 736.177 316.948 736.699 317.806 737.588C318.664 738.478 319.143 739.665 319.144 740.901C319.144 742.137 318.665 743.324 317.807 744.214C316.95 745.104 315.779 745.628 314.544 745.673ZM335.115 757.848C333.878 757.81 332.706 757.293 331.845 756.405C330.984 755.518 330.502 754.329 330.502 753.093C330.502 751.856 330.984 750.668 331.845 749.78C332.706 748.893 333.878 748.375 335.115 748.337C336.348 748.378 337.517 748.897 338.375 749.784C339.234 750.671 339.713 751.857 339.714 753.091C339.714 754.325 339.235 755.511 338.377 756.399C337.519 757.286 336.348 757.807 335.115 757.848ZM355.685 767.018C354.447 766.976 353.275 766.455 352.414 765.565C351.553 764.675 351.072 763.485 351.072 762.247C351.072 761.009 351.553 759.819 352.414 758.929C353.275 758.039 354.447 757.518 355.685 757.476C356.919 757.522 358.088 758.044 358.946 758.934C359.803 759.823 360.282 761.01 360.283 762.246C360.283 763.481 359.804 764.668 358.947 765.558C358.09 766.448 356.919 766.972 355.685 767.018ZM368.851 788.301C367.578 788.252 366.372 787.712 365.489 786.793C364.605 785.875 364.111 784.65 364.111 783.375C364.111 782.101 364.605 780.876 365.489 779.957C366.372 779.039 367.578 778.499 368.851 778.45C370.122 778.502 371.324 779.043 372.205 779.961C373.086 780.879 373.578 782.102 373.578 783.374C373.578 784.646 373.087 785.869 372.206 786.787C371.326 787.705 370.122 788.248 368.851 788.301ZM394.038 793.01C392.767 792.964 391.562 792.426 390.679 791.51C389.796 790.595 389.303 789.372 389.303 788.1C389.303 786.827 389.796 785.605 390.679 784.689C391.562 783.773 392.767 783.236 394.038 783.189C395.308 783.238 396.509 783.776 397.39 784.691C398.272 785.607 398.764 786.827 398.764 788.098C398.765 789.369 398.273 790.59 397.392 791.505C396.511 792.421 395.308 792.961 394.038 793.01ZM423.19 796.17C421.912 796.127 420.701 795.589 419.812 794.67C418.923 793.751 418.426 792.522 418.426 791.244C418.426 789.966 418.923 788.737 419.812 787.818C420.701 786.899 421.912 786.361 423.19 786.318C424.465 786.365 425.672 786.904 426.558 787.822C427.444 788.74 427.939 789.966 427.94 791.243C427.94 792.519 427.445 793.745 426.56 794.664C425.674 795.582 424.465 796.123 423.19 796.17ZM455.47 795.767C454.194 795.729 452.983 795.194 452.094 794.278C451.204 793.361 450.707 792.134 450.707 790.857C450.707 789.58 451.204 788.353 452.094 787.437C452.983 786.52 454.194 785.986 455.47 785.947C456.744 785.989 457.952 786.525 458.838 787.44C459.725 788.356 460.221 789.581 460.221 790.856C460.221 792.13 459.726 793.355 458.84 794.271C457.954 795.188 456.744 795.725 455.47 795.767ZM484.591 792.235C483.318 792.186 482.113 791.646 481.229 790.728C480.345 789.809 479.851 788.584 479.851 787.31C479.851 786.035 480.345 784.81 481.229 783.892C482.113 782.973 483.318 782.433 484.591 782.384C485.863 782.436 487.065 782.977 487.946 783.895C488.827 784.813 489.32 786.036 489.32 787.308C489.32 788.58 488.829 789.804 487.948 790.722C487.067 791.64 485.863 792.183 484.591 792.235ZM480.224 825.569C485.663 824.719 491.036 823.487 496.302 821.883C501.143 820.681 505.878 819.085 510.46 817.112L510.491 813.829C503.955 809.491 497.448 805.112 490.974 800.693C487.442 809.026 483.817 817.267 480.224 825.569ZM451.568 828.265C459.857 828.024 468.129 827.362 476.351 826.282C476.581 826.253 476.808 826.212 477.033 826.159C472.48 819.589 468.141 812.96 463.681 806.362C459.684 813.705 455.626 820.985 451.568 828.265ZM423.717 827.646C427.651 827.924 431.585 828.172 435.52 828.265C439.578 828.42 443.637 828.42 447.695 828.388L437.379 807.137L423.717 827.646ZM399.429 824.919C406.771 825.972 414.175 826.839 421.548 827.428C417.708 819.527 413.834 811.597 409.807 803.791C406.244 810.761 402.867 817.855 399.429 824.919ZM388.524 804.349C384.528 809.894 380.5 815.408 376.473 820.953C382.545 822.224 388.617 823.339 394.751 824.268C395.308 824.33 395.866 824.392 396.454 824.486C395 820.952 393.543 817.391 392.179 813.829L388.524 804.349ZM355.933 816.244C361.634 817.731 367.334 819.094 373.127 820.241C371.022 814.508 369.007 808.748 366.993 802.954C363.306 807.416 359.651 811.846 355.933 816.244ZM355.935 739.817C358.194 739.821 360.438 739.433 362.565 738.67C360.025 731.08 357.577 723.521 355.16 715.932C348.624 721.57 341.963 727.053 335.364 732.629C335.31 732.668 335.245 732.69 335.179 732.691C338.641 734.729 342.281 736.45 346.052 737.834C349.197 739.094 352.547 739.766 355.935 739.817ZM332.731 731.236L332.607 707.629C326.194 710.851 319.751 713.98 313.338 717.202C318.468 721.431 323.814 725.391 329.354 729.067C330.47 729.842 331.585 730.554 332.731 731.236ZM299.707 705.367C303.331 708.713 307.08 711.966 310.859 715.126C311.231 707.288 311.665 699.471 312.161 691.674C305.748 694.184 299.366 696.662 292.984 699.233C295.184 701.278 297.414 703.354 299.707 705.367ZM291.962 698.242L293.48 687.089L294.781 676.339C288.368 678.26 282.018 680.305 275.605 682.225C280.995 687.647 286.417 693.007 291.962 698.242ZM272.259 678.849L273.436 680.026C274.489 674.45 275.636 668.874 276.813 663.297C271.298 664.351 265.846 665.373 260.332 666.426C264.266 670.577 268.231 674.76 272.259 678.849ZM262.283 648.52C257.172 649.821 252.05 651.039 246.918 652.175C250.573 656.11 254.26 660.075 257.977 663.948C259.341 658.805 260.859 653.693 262.283 648.52ZM490.974 800.693C487.442 809.026 483.817 817.267 480.224 825.569C485.663 824.719 491.036 823.487 496.302 821.883C501.143 820.681 505.878 819.085 510.46 817.112L510.491 813.829C503.955 809.491 497.448 805.112 490.974 800.693ZM496.797 823.401C490.247 825.654 483.55 827.455 476.753 828.791C463.095 831.01 449.258 831.933 435.426 831.548C421.623 830.951 407.882 829.336 394.316 826.716C387.842 825.476 381.429 823.989 375.047 822.316C374.875 822.36 374.696 822.368 374.52 822.342C374.345 822.315 374.176 822.254 374.024 822.162C373.993 822.131 373.993 822.1 373.963 822.069C367.829 820.427 361.787 818.517 355.839 816.338C355.746 816.462 355.653 816.462 355.592 816.369C355.58 816.356 355.571 816.342 355.566 816.326C355.56 816.31 355.558 816.293 355.561 816.276C355.189 816.152 354.82 816.028 354.448 815.903L348.621 847.813C348.621 847.813 437.905 882.82 510.025 847.813L510.459 817.732C506.062 819.977 501.492 821.873 496.797 823.401ZM373.312 844.312C373.151 844.474 372.975 844.619 372.785 844.746C372.537 844.917 372.266 845.052 371.98 845.149C371.818 845.243 371.639 845.306 371.454 845.335C371.299 845.366 371.143 845.397 370.958 845.427C370.701 845.465 370.443 845.485 370.183 845.489C368.947 845.451 367.775 844.934 366.914 844.046C366.053 843.159 365.571 841.971 365.571 840.734C365.571 839.497 366.053 838.309 366.914 837.422C367.775 836.534 368.947 836.017 370.183 835.979C370.875 835.974 371.56 836.111 372.197 836.381C372.403 836.476 372.6 836.59 372.785 836.722C372.974 836.85 373.151 836.995 373.312 837.156C374.116 838.002 374.614 839.093 374.726 840.255C374.839 841.418 374.559 842.584 373.932 843.569C373.76 843.843 373.55 844.094 373.312 844.312ZM395.339 853.08C394.103 853.042 392.93 852.525 392.069 851.637C391.208 850.749 390.726 849.561 390.726 848.324C390.726 847.088 391.208 845.9 392.069 845.012C392.93 844.124 394.103 843.607 395.339 843.569C396.572 843.61 397.741 844.129 398.6 845.016C399.458 845.903 399.938 847.089 399.938 848.323C399.938 849.557 399.459 850.743 398.601 851.63C397.744 852.518 396.572 853.038 395.339 853.08ZM419.689 856.147C418.453 856.109 417.28 855.591 416.419 854.704C415.558 853.816 415.076 852.628 415.076 851.391C415.076 850.155 415.558 848.966 416.419 848.079C417.28 847.191 418.453 846.674 419.689 846.636C420.922 846.677 422.091 847.196 422.95 848.083C423.808 848.97 424.288 850.155 424.288 851.39C424.288 852.624 423.809 853.81 422.951 854.697C422.094 855.585 420.922 856.105 419.689 856.147ZM446.362 855.403C445.126 855.366 443.953 854.848 443.092 853.96C442.231 853.073 441.75 851.884 441.75 850.648C441.75 849.411 442.231 848.223 443.092 847.335C443.953 846.448 445.126 845.93 446.362 845.892C447.596 845.933 448.765 846.452 449.623 847.339C450.481 848.226 450.961 849.412 450.961 850.646C450.962 851.88 450.482 853.066 449.625 853.954C448.767 854.841 447.596 855.362 446.362 855.403ZM473.036 851.593C471.8 851.555 470.627 851.037 469.766 850.15C468.905 849.262 468.424 848.074 468.424 846.837C468.424 845.601 468.905 844.412 469.766 843.525C470.627 842.637 471.8 842.12 473.036 842.082C474.27 842.123 475.439 842.642 476.297 843.529C477.155 844.416 477.635 845.601 477.635 846.836C477.636 848.07 477.156 849.256 476.299 850.143C475.441 851.031 474.27 851.551 473.036 851.593ZM495.93 845.489C494.694 845.451 493.521 844.934 492.66 844.046C491.799 843.159 491.318 841.971 491.318 840.734C491.318 839.497 491.799 838.309 492.66 837.422C493.521 836.534 494.694 836.017 495.93 835.979C497.163 836.02 498.332 836.539 499.19 837.426C500.048 838.313 500.528 839.498 500.528 840.732C500.528 841.966 500.049 843.152 499.192 844.04C498.334 844.927 497.163 845.447 495.93 845.489ZM463.681 806.362C459.684 813.705 455.626 820.985 451.568 828.265C459.857 828.024 468.129 827.362 476.351 826.282C476.581 826.253 476.808 826.212 477.033 826.159C472.48 819.589 468.141 812.96 463.681 806.362ZM437.379 807.137L423.717 827.646C427.651 827.924 431.585 828.172 435.52 828.265C439.578 828.42 443.637 828.42 447.695 828.388L437.379 807.137ZM409.807 803.791C406.244 810.761 402.867 817.855 399.429 824.919C406.771 825.972 414.175 826.839 421.548 827.428C417.708 819.527 413.834 811.597 409.807 803.791ZM392.179 813.829L388.524 804.349C384.528 809.894 380.5 815.408 376.473 820.953C382.545 822.224 388.617 823.339 394.751 824.268C395.308 824.33 395.866 824.392 396.454 824.486C395 820.952 393.543 817.391 392.179 813.829ZM366.993 802.954C363.306 807.416 359.651 811.846 355.933 816.244C361.634 817.731 367.334 819.094 373.127 820.241C371.022 814.508 369.007 808.748 366.993 802.954ZM355.16 715.932C348.624 721.57 341.963 727.053 335.364 732.629C335.31 732.668 335.245 732.69 335.179 732.691C338.641 734.729 342.281 736.45 346.052 737.834C349.197 739.094 352.547 739.766 355.935 739.817C358.194 739.821 360.438 739.433 362.565 738.67C360.025 731.08 357.577 723.521 355.16 715.932ZM332.607 707.629C326.194 710.851 319.751 713.98 313.338 717.202C318.468 721.431 323.814 725.391 329.354 729.067C330.47 729.842 331.585 730.554 332.731 731.236L332.607 707.629ZM292.984 699.233C295.184 701.278 297.414 703.354 299.707 705.367C303.331 708.713 307.08 711.966 310.859 715.126C311.231 707.288 311.665 699.471 312.161 691.674C305.748 694.184 299.366 696.662 292.984 699.233ZM275.605 682.225C280.995 687.647 286.417 693.007 291.962 698.242L293.48 687.089L294.781 676.339C288.368 678.26 282.018 680.305 275.605 682.225ZM260.332 666.426C264.266 670.577 268.231 674.76 272.259 678.849L273.436 680.026C274.489 674.45 275.636 668.874 276.813 663.297C271.298 664.351 265.846 665.373 260.332 666.426ZM246.918 652.175C250.573 656.11 254.26 660.075 257.977 663.948C259.341 658.805 260.859 653.693 262.283 648.52C257.172 649.821 252.05 651.039 246.918 652.175ZM355.16 715.932C348.624 721.57 341.963 727.053 335.364 732.629C335.31 732.668 335.245 732.69 335.179 732.691C338.641 734.729 342.281 736.45 346.052 737.834C349.197 739.094 352.547 739.766 355.935 739.817C358.194 739.821 360.438 739.433 362.565 738.67C360.025 731.08 357.577 723.521 355.16 715.932ZM332.607 707.629C326.194 710.851 319.751 713.98 313.338 717.202C318.468 721.431 323.814 725.391 329.354 729.067C330.47 729.842 331.585 730.554 332.731 731.236L332.607 707.629ZM292.984 699.233C295.184 701.278 297.414 703.354 299.707 705.367C303.331 708.713 307.08 711.966 310.859 715.126C311.231 707.288 311.665 699.471 312.161 691.674C305.748 694.184 299.366 696.662 292.984 699.233ZM275.605 682.225C280.995 687.647 286.417 693.007 291.962 698.242L293.48 687.089L294.781 676.339C288.368 678.26 282.018 680.305 275.605 682.225ZM260.332 666.426C264.266 670.577 268.231 674.76 272.259 678.849L273.436 680.026C274.489 674.45 275.636 668.874 276.813 663.297C271.298 664.351 265.846 665.373 260.332 666.426ZM246.918 652.175C250.573 656.11 254.26 660.075 257.977 663.948C259.341 658.805 260.859 653.693 262.283 648.52C257.172 649.821 252.05 651.039 246.918 652.175ZM355.16 715.932C348.624 721.57 341.963 727.053 335.364 732.629C335.31 732.668 335.245 732.69 335.179 732.691C338.641 734.729 342.281 736.45 346.052 737.834C349.197 739.094 352.547 739.766 355.935 739.817C358.194 739.821 360.438 739.433 362.565 738.67C360.025 731.08 357.577 723.521 355.16 715.932ZM332.607 707.629C326.194 710.851 319.751 713.98 313.338 717.202C318.468 721.431 323.814 725.391 329.354 729.067C330.47 729.842 331.585 730.554 332.731 731.236L332.607 707.629ZM292.984 699.233C295.184 701.278 297.414 703.354 299.707 705.367C303.331 708.713 307.08 711.966 310.859 715.126C311.231 707.288 311.665 699.471 312.161 691.674C305.748 694.184 299.366 696.662 292.984 699.233ZM275.605 682.225C280.995 687.647 286.417 693.007 291.962 698.242L293.48 687.089L294.781 676.339C288.368 678.26 282.018 680.305 275.605 682.225ZM260.332 666.426C264.266 670.577 268.231 674.76 272.259 678.849L273.436 680.026C274.489 674.45 275.636 668.874 276.813 663.297C271.298 664.351 265.846 665.373 260.332 666.426ZM246.918 652.175C250.573 656.11 254.26 660.075 257.977 663.948C259.341 658.805 260.859 653.693 262.283 648.52C257.172 649.821 252.05 651.039 246.918 652.175ZM355.16 715.932C348.624 721.57 341.963 727.053 335.364 732.629C335.31 732.668 335.245 732.69 335.179 732.691C338.641 734.729 342.281 736.45 346.052 737.834C349.197 739.094 352.547 739.766 355.935 739.817C358.194 739.821 360.438 739.433 362.565 738.67C360.025 731.08 357.577 723.521 355.16 715.932ZM332.607 707.629C326.194 710.851 319.751 713.98 313.338 717.202C318.468 721.431 323.814 725.391 329.354 729.067C330.47 729.842 331.585 730.554 332.731 731.236L332.607 707.629ZM292.984 699.233C295.184 701.278 297.414 703.354 299.707 705.367C303.331 708.713 307.08 711.966 310.859 715.126C311.231 707.288 311.665 699.471 312.161 691.674C305.748 694.184 299.366 696.662 292.984 699.233ZM275.605 682.225C280.995 687.647 286.417 693.007 291.962 698.242L293.48 687.089L294.781 676.339C288.368 678.26 282.018 680.305 275.605 682.225ZM260.332 666.426C264.266 670.577 268.231 674.76 272.259 678.849L273.436 680.026C274.489 674.45 275.636 668.874 276.813 663.297C271.298 664.351 265.846 665.373 260.332 666.426ZM246.918 652.175C250.573 656.11 254.26 660.075 257.977 663.948C259.341 658.805 260.859 653.693 262.283 648.52C257.172 649.821 252.05 651.039 246.918 652.175ZM355.16 715.932C348.624 721.57 341.963 727.053 335.364 732.629C335.31 732.668 335.245 732.69 335.179 732.691C338.641 734.729 342.281 736.45 346.052 737.834C349.197 739.094 352.547 739.766 355.935 739.817C358.194 739.821 360.438 739.433 362.565 738.67C360.025 731.08 357.577 723.521 355.16 715.932ZM332.607 707.629C326.194 710.851 319.751 713.98 313.338 717.202C318.468 721.431 323.814 725.391 329.354 729.067C330.47 729.842 331.585 730.554 332.731 731.236L332.607 707.629ZM292.984 699.233C295.184 701.278 297.414 703.354 299.707 705.367C303.331 708.713 307.08 711.966 310.859 715.126C311.231 707.288 311.665 699.471 312.161 691.674C305.748 694.184 299.366 696.662 292.984 699.233ZM275.605 682.225C280.995 687.647 286.417 693.007 291.962 698.242L293.48 687.089L294.781 676.339C288.368 678.26 282.018 680.305 275.605 682.225ZM260.332 666.426C264.266 670.577 268.231 674.76 272.259 678.849L273.436 680.026C274.489 674.45 275.636 668.874 276.813 663.297C271.298 664.351 265.846 665.373 260.332 666.426ZM246.918 652.175C250.573 656.11 254.26 660.075 257.977 663.948C259.341 658.805 260.859 653.693 262.283 648.52C257.172 649.821 252.05 651.039 246.918 652.175ZM355.16 715.932C348.624 721.57 341.963 727.053 335.364 732.629C335.31 732.668 335.245 732.69 335.179 732.691C338.641 734.729 342.281 736.45 346.052 737.834C349.197 739.094 352.547 739.766 355.935 739.817C358.194 739.821 360.438 739.433 362.565 738.67C360.025 731.08 357.577 723.521 355.16 715.932ZM332.607 707.629C326.194 710.851 319.751 713.98 313.338 717.202C318.468 721.431 323.814 725.391 329.354 729.067C330.47 729.842 331.585 730.554 332.731 731.236L332.607 707.629ZM292.984 699.233C295.184 701.278 297.414 703.354 299.707 705.367C303.331 708.713 307.08 711.966 310.859 715.126C311.231 707.288 311.665 699.471 312.161 691.674C305.748 694.184 299.366 696.662 292.984 699.233ZM275.605 682.225C280.995 687.647 286.417 693.007 291.962 698.242L293.48 687.089L294.781 676.339C288.368 678.26 282.018 680.305 275.605 682.225ZM260.332 666.426C264.266 670.577 268.231 674.76 272.259 678.849L273.436 680.026C274.489 674.45 275.636 668.874 276.813 663.297C271.298 664.351 265.846 665.373 260.332 666.426ZM246.918 652.175C250.573 656.11 254.26 660.075 257.977 663.948C259.341 658.805 260.859 653.693 262.283 648.52C257.172 649.821 252.05 651.039 246.918 652.175ZM355.16 715.932C348.624 721.57 341.963 727.053 335.364 732.629C335.31 732.668 335.245 732.69 335.179 732.691C338.641 734.729 342.281 736.45 346.052 737.834C349.197 739.094 352.547 739.766 355.935 739.817C358.194 739.821 360.438 739.433 362.565 738.67C360.025 731.08 357.577 723.521 355.16 715.932ZM332.607 707.629C326.194 710.851 319.751 713.98 313.338 717.202C318.468 721.431 323.814 725.391 329.354 729.067C330.47 729.842 331.585 730.554 332.731 731.236L332.607 707.629ZM292.984 699.233C295.184 701.278 297.414 703.354 299.707 705.367C303.331 708.713 307.08 711.966 310.859 715.126C311.231 707.288 311.665 699.471 312.161 691.674C305.748 694.184 299.366 696.662 292.984 699.233ZM275.605 682.225C280.995 687.647 286.417 693.007 291.962 698.242L293.48 687.089L294.781 676.339C288.368 678.26 282.018 680.305 275.605 682.225ZM260.332 666.426C264.266 670.577 268.231 674.76 272.259 678.849L273.436 680.026C274.489 674.45 275.636 668.874 276.813 663.297C271.298 664.351 265.846 665.373 260.332 666.426ZM246.918 652.175C250.573 656.11 254.26 660.075 257.977 663.948C259.341 658.805 260.859 653.693 262.283 648.52C257.172 649.821 252.05 651.039 246.918 652.175Z" fill="#151F32"/>
<path d="M836.754 204.433C837.988 204.391 839.158 203.87 840.017 202.982C840.875 202.093 841.355 200.906 841.355 199.671C841.355 198.435 840.875 197.248 840.017 196.36C839.158 195.471 837.988 194.951 836.754 194.908C835.519 194.951 834.349 195.471 833.491 196.36C832.633 197.248 832.153 198.435 832.153 199.671C832.153 200.906 832.633 202.093 833.491 202.982C834.349 203.87 835.519 204.391 836.754 204.433ZM912.296 210.348C913.531 210.305 914.701 209.784 915.559 208.896C916.418 208.007 916.897 206.82 916.897 205.585C916.897 204.35 916.418 203.163 915.559 202.274C914.701 201.386 913.531 200.865 912.296 200.822C911.062 200.865 909.892 201.386 909.034 202.274C908.176 203.163 907.696 204.35 907.696 205.585C907.696 206.82 908.176 208.007 909.034 208.896C909.892 209.784 911.062 210.305 912.296 210.348ZM850.32 238.597C850.401 240.363 850.062 242.122 849.33 243.731C848.625 245.362 847.631 246.853 846.397 248.131C845.147 249.429 843.638 250.448 841.968 251.123C840.326 251.824 838.524 252.069 836.754 251.833C838.198 250.758 839.548 249.973 840.747 248.967C841.949 248.036 843.079 247.016 844.127 245.914C846.282 243.757 848.109 241.313 850.32 238.597ZM828.046 184.879C828.868 183.37 830.182 182.189 831.768 181.53C833.33 180.813 835.091 180.658 836.754 181.093C835.935 182.604 834.62 183.786 833.032 184.441C831.468 185.149 829.71 185.304 828.046 184.879ZM917.194 215.145C916.702 216 915.987 216.705 915.124 217.185C914.262 217.664 913.285 217.899 912.299 217.866C911.307 217.866 910.33 217.618 909.458 217.146C908.59 216.695 907.875 215.999 907.399 215.145C909.374 215.278 910.805 215.51 912.302 215.486C913.938 215.469 915.572 215.355 917.194 215.145Z" fill="#151F32"/>
<path d="M767.07 524.248C768.007 513.891 766.805 503.451 763.539 493.578C760.392 483.742 755.461 474.57 748.993 466.519C745.782 462.524 742.219 458.827 738.345 455.473L726.73 444.893C719.018 437.776 711.164 430.92 703.559 423.579C688.843 408.443 675.891 391.686 664.953 373.629C653.78 355.758 644.121 336.983 636.078 317.502C636.018 317.353 635.972 317.198 635.942 317.039L635.93 316.975C635.298 313.546 634.587 310.131 633.628 306.786C632.692 303.442 631.563 300.154 630.247 296.94C628.918 293.75 627.376 290.654 625.631 287.671C623.946 284.768 621.975 282.04 619.746 279.529L620.153 279.849C611.455 274.222 602.639 268.78 593.607 263.766C584.737 258.597 575.364 254.343 565.633 251.071C563.269 250.352 560.834 249.892 558.371 249.7C557.313 249.528 556.23 249.581 555.194 249.856C554.158 250.131 553.192 250.621 552.358 251.295C551.717 251.978 551.323 252.857 551.241 253.79C551.29 254.843 551.588 255.869 552.109 256.785C553.327 258.925 554.831 260.888 556.58 262.621C564.071 269.697 572.355 275.884 581.267 281.058C581.485 281.193 581.65 281.398 581.736 281.638C581.822 281.879 581.825 282.142 581.743 282.384C581.661 282.627 581.499 282.834 581.285 282.973C581.07 283.112 580.814 283.174 580.56 283.15C576.891 282.847 573.198 283.047 569.583 283.742C565.968 284.384 562.504 285.696 559.372 287.612C556.262 289.516 553.696 292.191 551.924 295.379C550.176 298.613 549.103 302.168 548.769 305.829C548.747 306.038 548.656 306.233 548.511 306.385L548.481 306.416C545.408 309.409 543.314 313.263 542.474 317.469C542.2 319.5 542.568 321.565 543.526 323.377C544.544 325.198 545.949 326.775 547.642 327.994L547.669 328.017C547.845 328.164 547.97 328.363 548.027 328.585C548.083 328.807 548.068 329.041 547.984 329.254C546.852 332.098 546.007 335.048 545.464 338.06C544.877 341.007 544.846 344.039 545.373 346.998C545.605 348.389 546.135 349.713 546.926 350.881C547.717 352.048 548.751 353.031 549.957 353.762C552.578 355.066 555.496 355.657 558.418 355.475L557.349 357.307L552.329 348.094C552.179 347.819 552.129 347.501 552.188 347.193C552.247 346.885 552.411 346.607 552.652 346.407C552.893 346.207 553.197 346.097 553.51 346.096C553.823 346.095 554.127 346.204 554.369 346.402C559.961 350.759 564.984 355.799 569.322 361.405C570.415 362.888 571.36 364.474 572.144 366.141C572.55 367.025 572.872 367.945 573.104 368.89C573.184 369.294 573.288 369.694 573.416 370.086C573.489 370.428 573.61 370.759 573.775 371.068C575.322 373.793 577.635 376.005 580.427 377.429C583.317 379.037 586.401 380.269 589.603 381.096C592.685 381.981 595.913 382.235 599.095 381.842C600.243 381.745 601.399 381.883 602.491 382.249C603.584 382.615 604.59 383.2 605.448 383.969C606.919 385.163 608.258 386.513 609.44 387.994C611.678 390.81 613.682 393.804 615.432 396.946C618.876 403.121 621.83 409.558 624.265 416.196C625.511 419.491 626.533 422.985 627.676 425.99C628.948 429.159 630.27 432.32 631.687 435.467C637.296 448.06 643.495 460.443 649.985 472.639C662.685 497.124 677.642 520.37 694.659 542.077C698.935 547.442 703.581 552.439 708.28 557.351L715.691 564.27C718.168 566.35 720.857 568.162 723.714 569.677C729.447 572.681 735.803 574.303 742.274 574.414C748.745 574.525 755.152 573.121 760.985 570.316L760.115 570.933L760.238 570.84L760.873 570.366C760.946 570.312 761.024 570.265 761.106 570.225C767.571 567.08 773.55 563.019 778.856 558.167C781.5 555.783 784.022 553.073 786.672 550.384L794.514 542.355L826.071 510.422L826.084 510.408C826.189 510.304 826.301 510.207 826.42 510.119C838.665 501.156 850.641 491.621 862.264 481.769C873.893 471.907 885.272 461.734 896.034 450.944C906.883 440.258 916.829 428.693 925.771 416.368C930.178 410.185 933.926 403.559 936.954 396.596C940.128 389.687 941.435 382.066 940.744 374.493C940.73 374.412 940.749 374.329 940.797 374.262C940.845 374.195 940.917 374.15 940.998 374.137C941.079 374.126 941.161 374.146 941.227 374.193C941.293 374.24 941.339 374.311 941.355 374.391C942.351 382.106 941.307 389.949 938.326 397.135C935.511 404.33 931.951 411.212 927.703 417.666C919.112 430.453 909.389 442.442 898.653 453.49C888.054 464.63 876.924 475.248 865.371 485.373C853.799 495.496 841.964 505.232 829.651 514.546L829.999 514.243L798.949 546.668L791.14 554.728C788.547 557.375 785.979 560.16 783.076 562.804C777.336 568.085 770.863 572.51 763.859 575.942L764.726 575.327L764.602 575.42L763.992 575.879C763.91 575.94 763.823 575.993 763.732 576.037C757.007 579.277 749.626 580.921 742.163 580.842C734.688 580.746 727.341 578.891 720.715 575.429C717.429 573.704 714.335 571.634 711.486 569.255L703.65 561.995C698.696 556.968 694.016 551.677 689.632 546.146C672.553 523.98 657.581 500.267 644.912 475.316C638.438 462.961 632.381 450.406 626.903 437.543C625.519 434.339 624.212 431.076 622.949 427.782C621.687 424.273 620.825 421.079 619.662 417.862C617.401 411.428 614.658 405.175 611.457 399.153C609.898 396.19 608.101 393.359 606.083 390.687C605.129 389.429 604.045 388.276 602.849 387.246C602.016 386.406 600.898 385.909 599.716 385.855C595.98 386.255 592.202 385.89 588.612 384.782C585.106 383.792 581.743 382.354 578.605 380.504C575.228 378.653 572.482 375.836 570.718 372.413C570.494 371.946 570.325 371.455 570.217 370.948C570.075 370.423 569.949 369.921 569.899 369.62C569.73 368.875 569.492 368.148 569.186 367.448C568.519 365.96 567.708 364.54 566.766 363.208C562.697 357.746 557.965 352.81 552.679 348.515L554.719 346.823L559.551 356.136L559.6 356.231C559.672 356.37 559.716 356.522 559.729 356.677C559.743 356.833 559.726 356.99 559.678 357.139C559.631 357.288 559.555 357.426 559.454 357.545C559.354 357.665 559.231 357.764 559.092 357.835C558.903 357.933 558.692 357.978 558.48 357.968C555.107 358.099 551.759 357.334 548.777 355.75C547.306 354.846 546.045 353.638 545.079 352.207C544.113 350.776 543.465 349.155 543.178 347.452C542.614 344.213 542.665 340.897 543.326 337.676C543.921 334.509 544.834 331.409 546.052 328.426L546.394 329.684C544.453 328.262 542.85 326.428 541.701 324.314C540.571 322.127 540.148 319.644 540.49 317.206C540.873 314.862 541.698 312.612 542.92 310.576C544.093 308.557 545.52 306.698 547.166 305.042L546.879 305.627C547.289 301.722 548.433 297.929 550.251 294.448C552.15 290.956 554.916 288.012 558.284 285.9C561.614 283.813 565.307 282.368 569.169 281.64C573.003 280.86 576.925 280.614 580.826 280.909L580.118 283C571 277.766 562.464 271.575 554.657 264.532C552.662 262.648 550.938 260.496 549.536 258.138C548.749 256.8 548.303 255.289 548.236 253.739C548.291 252.056 548.94 250.447 550.069 249.198C551.187 248.151 552.519 247.359 553.973 246.876C555.428 246.393 556.969 246.231 558.492 246.401C561.221 246.536 563.928 246.972 566.562 247.699C576.648 250.793 586.389 254.918 595.63 260.009C604.908 264.867 613.933 270.141 622.834 275.597L622.858 275.612C622.997 275.698 623.126 275.8 623.241 275.917C625.857 278.678 628.145 281.734 630.059 285.021C631.954 288.201 633.632 291.505 635.081 294.911C636.504 298.308 637.729 301.785 638.75 305.324C639.789 308.852 640.568 312.441 641.258 316.044L641.11 315.518C649.194 334.634 658.638 353.146 669.367 370.913C679.969 388.742 692.514 405.342 706.771 420.409C714.036 427.76 721.774 434.848 729.257 442.086L740.575 452.895C744.527 456.479 748.147 460.413 751.391 464.648C757.797 473.144 762.55 482.769 765.401 493.021C768.397 503.174 769.176 513.852 767.684 524.332C767.672 524.413 767.629 524.487 767.563 524.536C767.498 524.585 767.416 524.607 767.335 524.595C767.253 524.584 767.18 524.541 767.13 524.476C767.081 524.411 767.059 524.329 767.07 524.248Z" fill="#111928"/>
<path d="M547.051 327.198L554.191 329.097L546.932 330.476C546.495 330.556 546.045 330.46 545.678 330.209C545.312 329.958 545.06 329.572 544.977 329.136C544.894 328.699 544.987 328.248 545.236 327.88C545.484 327.512 545.868 327.257 546.304 327.171C546.552 327.125 546.807 327.134 547.051 327.198ZM547.664 304.088L561.643 304.34L547.99 307.353C547.779 307.4 547.56 307.405 547.346 307.367C547.132 307.329 546.928 307.249 546.745 307.133C546.563 307.016 546.405 306.864 546.28 306.686C546.156 306.509 546.068 306.308 546.021 306.096C545.974 305.884 545.97 305.665 546.008 305.452C546.046 305.238 546.125 305.034 546.242 304.851C546.359 304.668 546.51 304.51 546.688 304.386C546.866 304.262 547.066 304.174 547.278 304.127C547.405 304.1 547.534 304.087 547.664 304.088ZM562.703 365.646C538.284 373.87 513.332 380.413 488.021 385.232C475.33 387.632 462.503 389.252 449.614 390.082C443.166 390.517 436.704 390.781 430.239 390.778C427.009 390.83 423.777 390.795 420.544 390.674C417.306 390.614 414.074 390.391 410.86 390.075L410.946 390.079L410.914 390.078H410.897L410.82 390.074C407.07 389.744 403.349 389.148 399.684 388.29C395.923 387.467 392.324 386.027 389.034 384.027C388.786 383.867 388.603 383.623 388.522 383.339C388.44 383.055 388.463 382.752 388.588 382.484C388.714 382.216 388.931 382.003 389.202 381.884C389.472 381.765 389.776 381.748 390.058 381.836L390.127 381.858C406.903 387.125 424.59 388.645 442.096 389.7C459.658 390.73 477.293 390.439 494.914 389.88C503.756 389.524 512.476 389.274 521.432 388.755C530.176 388.366 539.003 387.79 547.834 387.262L600.864 383.573C600.947 383.567 601.03 383.594 601.094 383.646C601.159 383.699 601.202 383.774 601.213 383.857C601.224 383.94 601.203 384.024 601.155 384.092C601.106 384.16 601.034 384.207 600.952 384.223C583.539 387.756 565.977 390.493 548.334 392.667C539.514 393.759 530.672 394.614 521.727 395.354C512.997 396.006 504.013 396.664 495.138 396.883C477.302 397.452 459.447 396.958 441.669 395.403C423.799 393.971 406.196 390.193 389.312 384.167L390.405 381.998C393.4 383.973 396.713 385.418 400.198 386.27C403.746 387.164 407.361 387.773 411.006 388.09L410.914 388.086L410.946 388.085L411.033 388.089C423.786 388.887 436.588 388.18 449.176 385.983C461.818 384.105 474.358 381.631 486.953 379.438C512.145 374.961 537.206 369.603 562.538 365.011C562.62 364.996 562.704 365.013 562.774 365.057C562.844 365.102 562.894 365.172 562.915 365.252C562.936 365.332 562.926 365.418 562.886 365.491C562.847 365.564 562.781 365.619 562.703 365.646ZM667.837 373.399C671.199 372.063 674.597 370.961 677.996 369.879C681.405 368.848 684.81 367.819 688.242 366.943C691.661 366 695.105 365.189 698.549 364.387C701.982 363.527 705.461 362.901 708.917 362.156L706.359 365.223C706.4 361.269 706.685 357.324 706.836 353.374C707.093 349.427 707.354 345.481 707.731 341.538C708.094 337.595 708.545 333.655 709.085 329.718C709.674 325.782 710.247 321.846 711.145 317.92C711.785 321.896 712.102 325.861 712.434 329.827C712.713 333.791 712.907 337.752 713.016 341.71C713.137 345.669 713.141 349.624 713.141 353.579C713.035 357.53 713.062 361.486 712.847 365.434L712.835 365.642C712.797 366.337 712.524 366.998 712.061 367.517C711.599 368.036 710.974 368.383 710.288 368.501C706.782 369.102 703.302 369.82 699.773 370.306C696.257 370.849 692.739 371.383 689.198 371.785C685.67 372.254 682.114 372.57 678.561 372.884C674.999 373.148 671.436 373.391 667.837 373.399ZM558.945 98.8904C547.977 96.0016 536.51 95.5534 525.35 97.5775C509.241 101.22 482.37 90.7539 482.37 90.7539C482.37 90.7539 473.085 85.2743 474.955 100.432C474.955 100.432 481.222 140.229 476.892 165.262C472.528 190.327 475.743 191.509 480.764 189.18C485.749 186.817 509.011 188.917 532.995 189.212C556.944 189.507 556.058 184.685 554.352 171.561C552.614 158.438 558.945 98.8904 558.945 98.8904ZM548.513 166.64C549.956 177.697 550.711 181.798 530.468 181.535C510.224 181.272 490.573 179.501 486.374 181.502C482.141 183.47 479.418 182.454 483.093 161.324C486.766 140.163 481.485 106.567 481.485 106.567C479.876 93.7721 487.752 98.3978 487.752 98.3978C487.752 98.3978 510.423 107.224 524.004 104.139C533.432 102.441 543.118 102.822 552.384 105.255C552.384 105.255 547.036 155.551 548.513 166.64Z" fill="#111928"/>
<path d="M537.559 157.392C538.503 164.626 538.997 167.309 525.753 167.137C512.507 166.965 499.65 165.806 496.902 167.116C494.133 168.403 492.351 167.738 494.756 153.914C497.159 140.068 493.703 118.087 493.703 118.087C492.651 109.716 497.804 112.742 497.804 112.742C497.804 112.742 512.637 118.517 521.523 116.499C527.692 115.388 534.029 115.637 540.091 117.229C540.091 117.229 536.592 150.136 537.559 157.392ZM402.203 96.8028C410.167 95.951 418.186 95.7151 426.186 96.0971C434.193 96.332 442.169 97.1916 450.042 98.6679C442.078 99.5268 434.059 99.7628 426.058 99.3736C418.052 99.1315 410.077 98.272 402.203 96.8028ZM414.877 190.412C422.841 189.56 430.859 189.324 438.86 189.706C446.866 189.941 454.842 190.8 462.715 192.277C454.751 193.136 446.733 193.372 438.732 192.982C430.726 192.74 422.75 191.881 414.877 190.412ZM406.618 160.456C414.583 159.604 422.601 159.368 430.601 159.75C438.608 159.985 446.584 160.844 454.457 162.321C446.493 163.18 438.474 163.416 430.473 163.026C422.467 162.784 414.492 161.925 406.618 160.456ZM420.622 222.12C437.149 221.141 453.658 221.155 470.163 221.413C486.665 221.77 503.163 222.376 519.642 223.985C503.114 224.972 486.605 224.956 470.101 224.691C453.599 224.328 437.101 223.72 420.622 222.12ZM418.824 352.666C435.093 349.804 451.458 347.933 467.846 346.303C484.243 344.772 500.665 343.489 517.182 343.205C500.913 346.073 484.549 347.944 468.16 349.567C451.761 351.091 435.34 352.373 418.824 352.666ZM407.612 115.161C414.141 113.76 420.785 112.966 427.46 112.791C434.13 112.468 440.815 112.772 447.429 113.697C440.901 115.105 434.256 115.899 427.58 116.067C420.911 116.383 414.226 116.079 407.612 115.161ZM409.395 132.89C415.924 131.488 422.569 130.695 429.244 130.519C435.913 130.196 442.599 130.5 449.212 131.425C442.685 132.833 436.04 133.627 429.364 133.796C422.694 134.111 416.009 133.807 409.395 132.89ZM416.571 177.414C423.1 176.012 429.744 175.219 436.419 175.043C443.089 174.721 449.774 175.024 456.388 175.949C449.86 177.357 443.215 178.151 436.54 178.32C429.87 178.635 423.185 178.332 416.571 177.414ZM417.468 147.518C423.997 146.117 430.641 145.323 437.316 145.147C443.986 144.825 450.671 145.128 457.285 146.053C450.757 147.462 444.112 148.256 437.436 148.424C430.766 148.739 424.082 148.436 417.468 147.518ZM414.502 285.787C431.03 284.809 447.538 284.823 464.043 285.081C480.545 285.438 497.043 286.044 513.522 287.652C496.994 288.639 480.485 288.624 463.981 288.359C447.479 287.995 430.981 287.388 414.502 285.787ZM416.559 240.493C430.272 238.959 444.003 238.418 457.738 238.121C471.475 237.923 485.216 237.975 498.975 239.028C485.262 240.57 471.531 241.109 457.796 241.4C444.059 241.591 430.318 241.539 416.559 240.493ZM420.25 258.221C433.964 256.687 447.695 256.147 461.43 255.85C475.166 255.651 488.907 255.703 502.667 256.757C488.954 258.298 475.223 258.838 461.488 259.128C447.751 259.319 434.009 259.267 420.25 258.221ZM432.871 317.786C446.584 316.252 460.315 315.711 474.05 315.414C487.787 315.216 501.529 315.267 515.287 316.321C501.575 317.863 487.844 318.402 474.108 318.692C460.372 318.884 446.63 318.832 432.871 317.786ZM436.563 335.514C450.276 333.98 464.007 333.44 477.742 333.143C491.479 332.944 505.22 332.996 518.979 334.049C505.266 335.591 491.535 336.131 477.8 336.421C464.063 336.612 450.322 336.56 436.563 335.514ZM435.103 302.745C448.816 301.212 462.547 300.671 476.282 300.374C490.019 300.176 503.76 300.227 517.519 301.281C503.806 302.823 490.075 303.362 476.34 303.652C462.603 303.843 448.862 303.791 435.103 302.745ZM436.959 272.85C450.673 271.316 464.403 270.775 478.138 270.478C491.875 270.28 505.617 270.331 519.375 271.385C505.663 272.927 491.932 273.466 478.196 273.756C464.46 273.947 450.718 273.895 436.959 272.85ZM561.44 364.446C561.141 364.445 560.851 364.337 560.625 364.142C560.398 363.946 560.25 363.675 560.206 363.379C560.162 363.082 560.227 362.78 560.387 362.527C560.548 362.274 560.794 362.088 561.08 362.001C561.237 361.939 561.405 361.91 561.573 361.915C561.742 361.92 561.907 361.959 562.06 362.029C562.213 362.1 562.35 362.201 562.463 362.325C562.576 362.45 562.663 362.597 562.718 362.756C562.773 362.915 562.795 363.084 562.783 363.252C562.772 363.42 562.726 363.584 562.649 363.734C562.572 363.884 562.466 364.016 562.336 364.124C562.207 364.232 562.057 364.312 561.896 364.361C561.75 364.413 561.596 364.442 561.44 364.446Z" fill="#111928"/>
<path d="M488.882 845.095C489.576 852.536 490.385 859.965 491.595 867.308C492.657 874.611 494.311 881.815 496.539 888.85C497.114 890.543 497.796 892.198 498.579 893.805C498.959 894.612 499.385 895.321 499.83 896.1C500.31 896.955 500.839 897.793 501.266 898.675C503.061 902.141 504.47 905.795 505.467 909.57C507.55 917.086 508.311 924.906 507.715 932.683C507.426 936.649 506.635 940.563 505.362 944.331C504.095 948.331 501.888 951.969 498.925 954.94C497.355 956.488 495.516 957.737 493.498 958.623C492.491 959.077 491.443 959.434 490.368 959.689L487.51 960.251C484.049 961.112 480.683 962.315 477.462 963.845C470.229 966.513 462.658 968.156 454.969 968.727C447.422 969.476 439.893 969.696 432.381 969.724C417.358 969.746 402.396 969.236 387.426 968.791C379.943 968.555 372.463 968.248 364.985 967.871C357.501 967.627 350.023 967.256 342.542 966.914C312.612 965.6 282.745 963.229 252.938 960.407L252.818 960.396C252.134 960.331 251.493 960.032 251.004 959.55C250.514 959.069 250.205 958.433 250.129 957.751C250.031 956.961 250.038 956.163 250.15 955.375C250.227 954.737 250.347 954.105 250.511 953.484C250.814 952.325 251.235 951.199 251.765 950.125C252.238 949.084 252.804 948.087 253.454 947.147C254.043 946.207 254.702 945.313 255.426 944.472C258.155 941.194 261.311 938.295 264.809 935.854C271.555 931.168 278.782 927.217 286.368 924.069C290.124 922.547 293.896 921.07 297.703 919.734C301.516 918.485 305.373 917.117 309.148 915.969C316.725 913.584 324.32 911.28 331.84 908.78C346.903 904.078 361.553 898.142 375.64 891.032C382.567 887.446 388.869 882.763 394.301 877.166C399.713 871.463 402.903 864.01 403.293 856.158C403.295 856.116 403.305 856.075 403.322 856.037C403.34 855.999 403.364 855.965 403.395 855.936C403.426 855.908 403.461 855.886 403.501 855.872C403.54 855.857 403.581 855.85 403.623 855.852C403.702 855.857 403.777 855.891 403.833 855.947C403.89 856.003 403.923 856.078 403.928 856.158C404.213 864.388 401.457 872.435 396.188 878.763C390.921 884.99 384.62 890.261 377.562 894.347C363.625 902.36 348.943 909.004 333.724 914.185C326.212 916.917 318.686 919.583 311.113 922.075C307.291 923.299 303.668 924.659 299.938 925.941C296.26 927.297 292.637 928.783 289.044 930.301C281.923 933.263 275.128 936.957 268.77 941.324C265.718 943.414 262.938 945.877 260.495 948.656C259.903 949.308 259.365 950.007 258.886 950.745C258.384 951.428 257.949 952.157 257.587 952.923C257.217 953.623 256.92 954.359 256.701 955.119C256.603 955.458 256.529 955.802 256.477 956.151C256.413 956.415 256.43 956.931 256.395 956.749L253.588 954.094C283.304 957.391 313.036 960.537 342.783 963.534C350.227 964.201 357.672 964.898 365.125 965.468C372.58 965.997 380.043 966.401 387.507 966.766C402.423 967.554 417.371 967.549 432.286 966.752C439.724 966.325 447.149 965.685 454.448 964.575C461.665 963.641 468.725 961.747 475.44 958.944C478.935 957.175 482.601 955.767 486.382 954.743L487.893 954.455L489.026 954.21C489.769 954.031 490.494 953.779 491.189 953.458C492.601 952.831 493.883 951.946 494.97 950.848C499.433 945.627 502.004 939.054 502.268 932.191C502.915 925.024 502.385 917.8 500.699 910.804C499.861 907.32 498.702 903.921 497.236 900.652C496.89 899.827 496.452 899.061 496.06 898.263C495.618 897.396 495.133 896.47 494.762 895.563C493.996 893.765 493.345 891.921 492.811 890.041C490.82 882.71 489.544 875.204 489.001 867.627C488.363 860.14 488.111 852.624 488.247 845.11C488.249 845.026 488.284 844.946 488.345 844.888C488.407 844.83 488.488 844.798 488.572 844.8C488.651 844.804 488.725 844.836 488.782 844.89C488.839 844.944 488.874 845.017 488.882 845.095Z" fill="#151F32"/>
<path d="M466.63 886.382C467.872 888.811 468.517 891.501 468.511 894.23C468.553 897.038 467.934 899.816 466.706 902.341C465.472 904.892 463.58 907.066 461.224 908.64C458.975 910.192 456.387 911.183 453.676 911.529C455.791 910.088 457.79 908.482 459.652 906.726C461.394 905.069 462.82 903.108 463.859 900.94C465.895 896.366 466.843 891.383 466.63 886.382ZM497.483 951.747C497.483 951.747 515.528 958.013 505.558 990.78C505.558 990.78 507.018 1002.97 463.582 1000.69L244.88 1000.97C244.88 1000.97 228.691 965.19 262.314 958.172L317.217 963.254C317.217 963.254 303.556 930.579 307.366 919.911C313.218 910.367 322.069 903.032 332.534 899.056C342.999 895.08 354.487 894.686 365.2 897.937C365.2 897.937 362.943 950.366 403.356 968.287C403.356 968.287 462.801 965.294 497.483 951.747ZM334.621 735.835C332.028 742.859 329.491 749.902 327.324 757.041C325.038 764.084 323.242 771.277 321.95 778.568C321.665 780.346 321.478 782.139 321.389 783.939C321.308 785.642 321.36 787.53 321.355 789.477C321.346 793.336 321.039 797.188 320.436 800.999C319.391 808.868 316.487 816.375 311.967 822.901C307.143 829.477 300.294 834.289 292.471 836.597C290.563 837.163 288.626 837.623 286.668 837.976L281.128 838.798C277.309 839.691 273.405 840.171 269.483 840.23C261.706 839.466 254.127 837.316 247.106 833.883C240.169 830.804 233.477 827.34 226.88 823.732C200.59 809.166 174.842 793.874 148.865 778.859C122.896 763.847 97.378 748.09 72.03 732.082L71.929 732.018C71.3485 731.651 70.9119 731.096 70.6927 730.445C70.4734 729.794 70.4848 729.087 70.7249 728.444C71.0018 727.677 71.38 726.951 71.8493 726.285C72.2201 725.741 72.6254 725.22 73.0628 724.728C73.8877 723.817 74.8009 722.991 75.789 722.261C77.6375 720.871 79.6547 719.721 81.7924 718.838C85.8318 717.149 90.0782 716.006 94.4195 715.439C102.789 714.367 111.247 714.174 119.656 714.864C127.925 715.583 136.245 716.835 144.246 718.157C152.278 719.467 160.326 720.662 168.401 721.586C176.473 722.515 184.57 723.219 192.669 723.509C200.752 723.887 208.85 723.767 216.918 723.151C224.946 722.569 232.857 720.892 240.431 718.167C248.091 715.548 254.551 710.258 258.628 703.264C258.667 703.193 258.732 703.138 258.809 703.113C258.887 703.088 258.971 703.093 259.045 703.128C259.119 703.163 259.176 703.226 259.205 703.302C259.234 703.378 259.233 703.463 259.201 703.538C255.552 711.168 249.21 717.179 241.396 720.415C233.743 723.756 225.638 725.947 217.345 726.92C200.903 728.831 184.302 728.937 167.838 727.235C159.625 726.53 151.434 725.635 143.286 724.471C135.119 723.238 127.225 722.194 119.173 721.608C111.257 720.992 103.299 721.163 95.4171 722.12C91.6323 722.589 87.9194 723.52 84.3617 724.894C82.6981 725.536 81.1228 726.386 79.6739 727.425C79.0036 727.893 78.3816 728.427 77.8171 729.019C77.5707 729.286 77.34 729.568 77.1262 729.863C76.9451 730.077 76.7156 730.557 76.7674 730.382L75.4627 726.744L150.655 775.954L169.58 788.059C175.935 792.022 182.356 795.871 188.779 799.717C201.624 807.405 214.748 814.649 228.209 821.138C234.943 824.367 241.756 827.423 248.666 830.07C255.294 832.893 262.36 834.551 269.552 834.97C273.122 834.792 276.663 834.235 280.116 833.309C281.066 833.102 282.068 832.962 283.053 832.817L285.68 832.415C287.407 832.092 289.115 831.675 290.797 831.166C297.468 829.2 303.34 825.162 307.564 819.636C311.671 813.832 314.409 807.172 315.571 800.157C316.217 796.577 316.646 792.962 316.856 789.331C316.956 787.532 316.994 785.675 317.188 783.639C317.383 781.704 317.684 779.78 318.089 777.877C319.728 770.466 321.99 763.205 324.85 756.174C327.643 749.174 330.627 742.276 334.041 735.575C334.079 735.5 334.146 735.443 334.226 735.417C334.306 735.391 334.394 735.398 334.469 735.436C334.538 735.473 334.592 735.534 334.62 735.607C334.648 735.68 334.648 735.761 334.621 735.835Z" fill="#151F32"/>
<path d="M296.11 762.617C296.12 765.345 295.48 768.036 294.241 770.467C293.009 772.991 291.202 775.19 288.965 776.888C286.712 778.605 284.041 779.69 281.229 780.029C278.521 780.398 275.764 780.112 273.189 779.195C275.728 778.865 278.236 778.336 280.691 777.611C282.994 776.92 285.152 775.816 287.059 774.351C290.942 771.191 294.04 767.175 296.11 762.617ZM294.093 834.869C294.093 834.869 307.36 848.613 283.658 873.338C283.658 873.338 279.45 884.874 241.736 863.206L46.5103 764.627C46.5103 764.627 48.2391 725.392 81.4037 734.326L128.085 763.67C128.085 763.67 130.664 728.349 138.884 720.554C148.417 714.684 159.627 712.141 170.76 713.324C181.892 714.506 192.319 719.346 200.406 727.088C200.406 727.088 174.699 772.837 202.652 807.087C202.652 807.087 257.033 831.281 294.093 834.869Z" fill="#151F32"/>
<path d="M960.334 228.865L963.753 251.357C964.938 258.828 966.185 266.276 967.643 273.672C969.008 281.09 970.774 288.409 972.823 295.632C974.671 302.942 977.642 309.921 981.632 316.32C976.531 310.553 972.701 303.777 970.391 296.432C967.831 289.221 965.836 281.822 964.425 274.301C961.509 259.336 960.138 244.11 960.334 228.865ZM965.058 119.16C965.058 119.16 1011.12 76.8157 1067.81 171.624C1124.51 266.432 1123.79 305.826 1146.24 302.012C1146.24 302.012 1090.07 345.649 1020.39 272.848C950.7 200.048 965.058 119.16 965.058 119.16Z" fill="#151F32"/>
<path d="M964.73 272.876C964.364 269.468 964.511 266.024 965.164 262.66C965.943 259.28 967.279 256.054 969.118 253.114C972.928 247.303 978.008 242.432 983.973 238.867C989.854 235.319 996.111 232.437 1002.63 230.274C1009.13 228.052 1015.8 226.373 1022.57 225.253L1022.11 225.359C1027.69 223.64 1033.52 222.872 1039.35 223.088C1045.22 223.207 1051.01 224.422 1056.43 226.668C1057.76 227.311 1059.12 227.887 1060.41 228.597C1061.67 229.365 1062.95 230.101 1064.18 230.908L1067.7 233.585C1068.77 234.438 1069.75 235.273 1070.84 236.083C1075.1 239.349 1079.69 242.364 1084.29 245.35L1112.17 263.193C1121.61 269.146 1130.65 275.731 1139.2 282.903C1141.39 284.805 1143.4 286.896 1145.21 289.151C1146.21 290.38 1147.02 291.75 1147.61 293.217C1147.77 293.634 1147.89 294.066 1147.97 294.508L1148.1 295.179C1148.13 295.517 1148.13 295.856 1148.09 296.193C1147.86 297.349 1147.2 298.373 1146.24 299.057C1143.63 300.637 1140.73 301.661 1137.71 302.063C1134.91 302.586 1132.14 302.932 1129.36 303.204C1118.25 304.219 1107.19 304.458 1096.13 304.613C1085.06 304.732 1074.01 304.714 1062.95 304.66L1046.37 304.429L1038.08 304.272C1035.33 304.261 1032.5 304.108 1029.93 304.292C1024.68 304.692 1019.65 306.516 1015.36 309.568C1011.08 312.62 1007.71 316.784 1005.62 321.611C1000.97 331.618 996.532 341.722 991.991 351.775C983.026 371.936 974.307 392.198 965.837 412.56C949.237 453.408 933.462 494.606 920.617 536.7L920.577 536.833C920.544 536.937 920.503 537.038 920.454 537.136C917.912 542.107 914.833 546.785 911.273 551.086C907.748 555.464 903.589 559.291 898.934 562.441C894.161 565.712 888.62 567.688 882.854 568.174C877.309 568.395 872.097 568.093 866.703 568.08L834.612 567.541L802.547 566.734C802.46 566.732 802.378 566.695 802.318 566.632C802.258 566.569 802.225 566.485 802.227 566.398C802.23 566.314 802.265 566.234 802.324 566.175C802.384 566.116 802.463 566.081 802.547 566.078L834.563 564.909L866.552 564.01C871.83 563.806 877.324 563.862 882.423 563.446C887.329 562.83 892.002 560.994 896.014 558.105C904.157 551.932 910.663 543.857 914.963 534.587L914.801 535.022C926.979 492.394 942.057 450.649 959.927 410.077C968.622 389.722 977.763 369.572 987.349 349.627C992.091 339.633 997.067 329.752 1002.07 319.886C1004.63 314.604 1008.54 310.097 1013.41 306.826C1018.27 303.586 1023.92 301.742 1029.76 301.495C1041.05 301.805 1051.89 302.306 1062.98 302.483C1074.02 302.741 1085.06 302.799 1096.09 302.507C1107.09 302.337 1118.08 301.57 1129 300.211C1131.71 299.833 1134.4 299.382 1137.01 298.778C1139.47 298.349 1141.82 297.46 1143.94 296.158C1144.29 295.863 1144.37 295.614 1144.34 295.66C1144.32 295.649 1144.32 295.684 1144.32 295.643L1144.22 295.307C1144.17 295.069 1144.1 294.837 1144 294.618C1143.49 293.546 1142.84 292.552 1142.05 291.668C1140.31 289.692 1138.41 287.871 1136.36 286.224C1127.66 279.593 1118.59 273.47 1109.18 267.886C1099.81 262.1 1090.38 256.339 1081.06 250.288C1076.43 247.207 1071.81 244.109 1067.33 240.612C1066.21 239.763 1065.1 238.797 1064.02 237.918L1060.97 235.544C1059.89 234.831 1058.78 234.184 1057.7 233.494C1056.58 232.862 1055.39 232.356 1054.24 231.773C1044.53 227.743 1033.76 227.077 1023.63 229.882L1023.39 229.943C1023.32 229.963 1023.24 229.978 1023.16 229.988C1016.62 230.82 1010.16 232.188 1003.85 234.077C997.51 235.911 991.396 238.445 985.619 241.631C979.822 244.697 974.773 249.005 970.832 254.247C968.933 256.912 967.491 259.875 966.567 263.014C965.694 266.209 965.296 269.514 965.384 272.825C965.387 272.868 965.381 272.911 965.367 272.951C965.352 272.992 965.331 273.03 965.302 273.062C965.273 273.094 965.238 273.12 965.2 273.139C965.161 273.158 965.119 273.169 965.076 273.171C964.992 273.173 964.91 273.144 964.846 273.089C964.783 273.035 964.741 272.959 964.73 272.876Z" fill="#151F32"/>
<path d="M739.526 454.24L772.752 414.996C775.498 411.716 778.224 408.421 780.889 405.097L784.831 400.103C786.074 398.56 787.205 396.929 788.216 395.224C791.635 387.24 795.722 379.559 800.435 372.263C809.897 357.289 822.877 344.856 838.244 336.045C845.974 331.678 854.28 328.421 862.917 326.369C871.622 324.208 880.616 323.452 889.559 324.13L887.011 324.981L906.816 306.257L906.872 306.204C907.273 305.824 907.782 305.579 908.329 305.502C924.684 302.854 941.374 303.073 957.653 306.15C965.775 307.813 973.594 310.711 980.837 314.745C988.134 318.613 994.327 324.274 998.834 331.194C993.766 324.884 987.282 319.857 979.908 316.521C972.629 313.179 964.914 310.885 956.992 309.706C941.096 307.576 924.96 308.03 909.208 311.05L910.721 310.296L891.341 329.459C891.035 329.762 890.668 329.997 890.264 330.146C889.861 330.296 889.429 330.357 889 330.327L888.791 330.311C880.601 329.839 872.386 330.626 864.433 332.643C848.263 336.682 833.431 344.881 821.409 356.425C815.335 362.168 809.896 368.547 805.185 375.453C800.435 382.457 796.219 389.809 792.572 397.446C791.358 399.405 789.987 401.262 788.473 403C787.083 404.678 785.683 406.321 784.244 407.928C781.379 411.15 778.474 414.316 775.552 417.465C769.733 423.782 763.725 429.912 757.727 436.045C751.729 442.179 745.697 448.276 739.526 454.24Z" fill="#151F32"/>
<path d="M987.56 355.258L945.579 454.239C945.579 454.239 960.333 336.513 894.884 331.373L889.175 327.22L906.62 310.353C906.62 310.353 992.739 314.16 987.56 355.258Z" fill="#151F32"/>
<path d="M385.151 59.6562C386.729 86.5857 387.912 113.521 388.701 140.461C389.576 167.4 390.089 194.344 390.532 221.29C390.859 248.237 391.107 275.185 390.996 302.138C390.972 329.09 390.547 356.047 389.721 383.011C388.136 356.082 386.949 329.147 386.161 302.206C385.288 275.267 384.775 248.323 384.34 221.377C384.021 194.43 383.772 167.482 383.885 140.529C383.912 113.577 384.334 86.6196 385.151 59.6562Z" fill="#111928"/>
</svg>
