<svg width="93" height="79" viewBox="0 0 93 79" fill="none" xmlns="http://www.w3.org/2000/svg">
<g clip-path="url(#clip0_9056_77610)">
<rect width="93" height="79" rx="6" fill="#F6F7F9"/>
<path d="M11.0867 25.994C13.7742 38.138 15.8891 52.9983 19.2904 64.9622C27.9257 67.1211 33.4845 68.3132 40.6632 70.0355C46.6337 66.2476 52.504 63.1371 58.4742 59.3489C63.834 62.5641 67.2351 66.1093 72.183 69.9276C74.0201 70.2031 76.6432 70.0139 78.5552 69.6988C78.5654 69.7054 78.5757 69.7126 78.5859 69.719C78.7383 69.8172 78.9644 69.7815 79.0889 69.6542C79.1506 69.5914 79.178 69.5242 79.2712 69.3773C79.5061 68.8356 79.2767 68.0661 79.2491 67.507C78.6686 55.8864 78.792 45.0115 78.9669 33.4161C78.9705 33.1727 78.7724 33.0274 78.5519 33.0011C77.9421 32.9286 77.0048 32.1028 76.4473 31.786C71.161 28.7831 69.5295 28.0186 59.7698 22.1113C59.8603 22.0609 59.935 22.0136 60.0614 21.8695C67.1947 22.9429 74.1697 21.7701 81.4275 21.8346C81.5811 21.836 81.7009 21.8739 81.808 21.745C81.9333 21.5944 81.9648 21.3219 81.8044 21.1117C81.7684 20.9382 81.6406 20.7783 81.4198 20.7548C74.5255 20.0176 67.5677 20.1093 60.6952 21.0278C60.659 21.0328 60.6261 21.0419 60.5945 21.0536C61.2204 20.552 61.372 19.6138 61.4088 18.7857C61.5211 16.2667 61.3078 13.5401 60.3284 11.2106C60.2482 11.0194 60.0777 10.732 59.9079 10.5029C65.2445 10.1003 70.5449 10.4951 75.8162 11.4242C76.3388 11.516 76.5632 10.7162 76.037 10.6235C70.4785 9.64411 64.876 9.22966 59.2433 9.72489C59.1788 9.73043 59.1221 9.74813 59.0734 9.77414C58.8955 9.49969 58.6833 9.26507 58.4305 9.12176C56.8468 8.22619 56.6324 10.857 56.7389 12.0027C53.7584 12.1637 50.7684 12.4116 47.8745 13.1525C45.0968 13.8635 42.4076 14.9722 41.1778 17.6589C40.0141 17.2314 38.8123 17.1014 37.4954 17.3482C35.7734 16.9572 33.2195 18.176 32.1358 19.9494C30.914 21.948 30.6786 24.7819 31.1641 27.0736C31.6497 29.3652 32.7724 31.3857 34.1867 33.2535C35.157 34.535 35.9264 35.153 36.6153 35.6012C36.7592 35.6948 36.96 35.817 37.1896 35.9507C36.9821 36.102 36.7763 36.255 36.5683 36.4055C36.2262 36.6532 35.8835 36.9 35.5402 37.1459C35.4392 37.2184 34.7868 37.8315 34.7602 37.8331C34.4006 37.8561 33.2566 36.9536 32.9121 36.7519C24.8575 32.037 23.3079 30.1982 16.0271 25.4385C15.7502 25.2572 15.4171 25.4996 15.4027 25.7967C15.359 26.7023 15.7707 27.7456 15.9643 28.629C16.0529 29.0346 16.1442 29.4393 16.2335 29.8446L15.9441 28.8008C14.1742 28.1543 12.5307 27.2045 11.0867 25.994ZM59.4685 10.5372C59.471 10.5521 59.4727 10.5668 59.4754 10.5823C59.4699 10.5676 59.4635 10.5527 59.4577 10.538L59.4688 10.5372H59.4685ZM58.314 10.198C58.7279 10.3538 58.911 11.4491 59.0079 11.9429C58.8853 11.8787 58.929 11.892 57.5573 11.9604C57.4491 11.3774 57.2015 9.77912 58.314 10.198ZM49.5074 13.6328C52.5662 13.0203 55.6951 12.8789 58.8034 12.7298C58.9561 12.7226 59.0635 12.6482 59.1288 12.5472C59.5056 14.431 59.9707 17.943 59.8166 19.8644C59.7822 20.2897 59.8077 21.5704 59.02 21.0807C58.7389 20.9058 58.4675 19.8979 58.4446 19.6027C58.4028 19.0737 57.5725 19.0693 57.6146 19.6027C57.6555 20.1262 57.9394 21.0857 58.4047 21.6929C58.304 21.6667 58.1969 21.6814 58.107 21.7339C53.9819 24.0081 50.0192 26.5092 46.2026 29.262C46.2903 28.8348 46.3623 28.3977 46.4212 27.9517C48.0245 26.894 48.8426 24.4668 50.7657 22.9872C52.0265 22.0172 53.6165 21.7441 54.9849 20.9758C56.3405 20.215 57.412 19.0596 58.8194 18.3752C59.2995 18.1419 58.8792 17.4259 58.4003 17.6586C57.3708 18.1594 56.5356 18.8842 55.6215 19.5587C54.564 20.3384 53.404 20.7678 52.1972 21.258C50.2743 22.0385 48.9325 23.4135 47.7854 25.1139C47.2883 25.8512 45.2689 28.8113 44.5897 26.8293C44.2565 25.8579 44.9493 24.6917 45.5176 24.0131C45.6591 23.8448 45.8036 23.6792 45.9511 23.5162C46.0106 23.4799 46.0607 23.4285 46.0928 23.3612C47.1303 22.2261 48.2618 21.1487 48.9499 19.6594C49.0957 19.344 48.8393 19.056 48.582 19.0297C48.4782 18.9827 48.3537 18.9783 48.2245 19.0502C47.088 19.6824 45.7345 19.5075 44.6104 20.1306C43.8864 19.2649 43.0611 18.5436 41.9372 17.9856C43.2351 15.1061 46.6292 14.2091 49.5074 13.6328ZM45.9605 22.3132C45.7738 21.7917 45.4556 21.2558 45.1103 20.7744C45.8911 20.3334 46.8674 20.3193 47.7597 20.098C47.2492 20.9058 46.6151 21.6113 45.9603 22.3132H45.9605ZM29.7692 35.7457V36.141C29.7692 36.408 30.1842 36.4083 30.1842 36.141V35.9938C31.6215 36.8523 33.0615 37.7064 34.4628 38.6299C34.5768 38.7052 34.7683 38.7104 34.8817 38.6299C35.9218 37.8911 36.9564 37.1447 37.9856 36.3909C38.8311 36.8352 39.7685 37.2502 40.1846 37.2098L40.2136 37.2344C40.6203 37.5761 41.2102 36.9918 40.8007 36.6476C37.0701 33.5108 32.7146 29.4498 32.781 24.1257C32.8499 18.6322 38.9064 16.19 42.9952 19.6633C43.3892 20.0029 43.7559 20.3727 44.0922 20.7694C44.1243 20.8596 44.1918 20.9404 44.279 20.9963C44.7972 21.6476 45.2321 22.3868 45.2913 23.0331C44.7595 23.6077 44.1143 24.3041 43.8808 25.1358C43.5748 26.2258 43.5516 28.4414 45.1549 28.391C45.2833 28.3868 45.411 28.3704 45.5364 28.3423C44.9728 31.936 43.3267 34.8769 41.3468 37.9294C41.0552 38.379 41.7735 38.7954 42.0634 38.3483C43.7295 35.7797 45.1206 33.3129 45.9041 30.4965C49.9401 27.537 54.1421 24.8674 58.5256 22.4505C58.7116 22.3481 58.7561 22.1735 58.7146 22.0161C58.7514 22.0451 58.7887 22.0722 58.8269 22.0963C58.7533 22.269 58.7804 22.4834 58.9866 22.6082C69.3674 28.8957 70.868 29.5608 76.54 32.7942C77.0219 33.0689 77.5744 33.5102 78.1324 33.7202C78.1031 35.6663 78.0771 37.6126 78.0536 39.559C77.9717 39.5036 77.8895 39.4489 77.8074 39.3938C77.5849 39.2449 77.3769 39.6041 77.5982 39.7524C77.9117 39.9621 77.9523 40.011 78.0486 39.9989C77.9498 48.5874 77.9468 56.6727 78.3184 65.3429C78.3494 66.0645 78.3826 66.786 78.4185 67.5073C78.4318 67.7729 78.39 68.2712 78.4368 68.6294C75.7445 66.8801 73.1032 65.0549 70.4715 63.2162C70.9416 63.1772 71.3828 62.974 71.7179 62.6421C72.053 62.3102 72.2605 61.8709 72.3039 61.4012C72.3288 61.1356 71.9138 61.1373 71.8889 61.4012C71.82 62.1388 71.1925 62.7486 70.4555 62.8031C70.3031 62.8142 70.2405 62.9558 70.2635 63.0709C66.6292 60.53 63.0049 57.9747 59.2746 55.576C59.2635 55.4654 59.2131 55.36 59.1382 55.2836C59.1849 55.213 59.2069 55.129 59.2007 55.0446C58.8347 47.0403 58.9655 39.0474 58.9052 31.0382C58.9011 30.5042 58.0711 30.5031 58.0752 31.0382C58.1353 39.0474 58.0047 47.0403 58.3707 55.0446C58.3768 55.1771 58.4327 55.2767 58.5129 55.3434C56.8542 56.4753 55.1807 57.5852 53.4928 58.673C52.2206 59.3745 50.956 60.0895 49.6991 60.818L49.5857 60.6476C49.4382 60.4263 49.0786 60.6338 49.2274 60.857L49.3411 61.0277C46.5852 62.633 43.8671 64.3024 41.1891 66.0346C31.4859 62.4531 33.2372 63.2364 25.4402 59.6926C25.0965 59.5365 24.536 59.3985 24.3324 59.1298C24.1241 58.8554 24.0012 57.9042 23.9099 57.5672C23.6056 56.4412 23.3049 55.3143 23.0052 54.1872C23.0689 54.0972 23.0752 53.9595 22.9568 53.8806L22.9159 53.853C19.8291 42.218 16.3719 27.1933 16.2847 26.6068C23.314 31.2603 24.0231 32.305 29.7692 35.7457Z" fill="#151F32"/>
<path d="M62.0587 18.703C62.0293 18.7301 62.0033 18.7611 61.9862 18.7993C61.7596 19.3092 61.9106 19.9071 62.3915 20.218C62.8826 20.5356 63.515 20.3445 63.8166 19.8625C64.1115 19.3908 64.0227 18.7658 63.5482 18.4496C62.9999 18.0835 62.2515 18.3071 62.0587 18.703ZM63.1294 19.3947C63.0757 19.5006 62.9717 19.5831 62.8582 19.5313C62.7625 19.4879 62.659 19.3175 62.703 19.2184C62.7049 19.214 62.7157 19.1844 62.716 19.1833C62.8795 19.0037 63.2735 19.1114 63.1294 19.3947ZM41.2367 23.7295C40.8012 22.5916 39.4113 22.1126 38.3635 22.6574C38.3353 22.4239 38.1472 22.2239 37.8711 22.3365C36.7013 22.8151 36.2304 24.2175 36.7149 25.3674C37.5216 27.2819 40.1796 27.3807 41.0945 25.6327C41.3983 25.0517 41.473 24.347 41.2367 23.7295ZM37.627 25.3314C37.2165 24.7081 37.2552 23.6166 37.9524 23.2066C37.9887 23.4813 38.2626 23.719 38.5478 23.5156C39.2691 23.0019 40.3423 23.3186 40.5268 24.2402C40.6095 24.6536 40.4806 25.0926 40.2413 25.4282C39.5496 26.3982 38.1912 26.1871 37.627 25.3314ZM27.2133 48.1423L34.0248 50.046C34.54 50.1899 34.76 49.3895 34.2454 49.2459L27.4338 47.3419C26.9187 47.198 26.6987 47.9984 27.2133 48.1423ZM54.0641 41.5546C51.0176 43.0967 48.0751 44.8363 45.2556 46.7623C44.8171 47.0616 45.2318 47.7812 45.6745 47.4788C48.494 45.5528 51.4364 43.8132 54.483 42.2711C54.9597 42.0299 54.54 41.3136 54.0641 41.5546ZM61.0422 39.9178C63.4566 41.276 65.8099 42.74 68.0952 44.3057C68.0529 44.4598 68.2474 44.6286 68.4068 44.516C70.857 46.2068 73.2249 48.014 75.5022 49.9315C75.9083 50.2734 76.4982 49.6894 76.089 49.3447C73.7182 47.3488 71.2515 45.4699 68.6975 43.7145C68.6702 43.6626 68.6238 43.6234 68.5681 43.6049C68.5553 43.6013 68.5437 43.6036 68.5315 43.6022C66.2407 42.0317 63.8816 40.5633 61.4611 39.2012C60.9949 38.939 60.576 39.6558 61.0422 39.9178ZM41.9942 41.0831C42.677 41.0101 43.8767 40.6701 44.0139 39.8511C44.1757 38.8875 42.8655 38.8717 42.2681 39.0867C42.2604 39.0895 42.2543 39.0936 42.2468 39.0967C41.6144 39.1122 40.4734 39.36 40.3392 40.1239C40.187 40.9927 41.4008 41.1468 41.9942 41.0831ZM43.0256 39.7853C43.3217 39.749 43.1543 39.8129 43.016 39.8791C42.6499 40.0542 42.3165 40.2249 41.9018 40.2642C41.7201 40.2813 41.5142 40.2144 41.3441 40.2374L41.2572 40.2105C41.6169 40.1054 41.8448 39.9355 42.2537 39.9264C42.2919 39.9256 42.3268 39.9195 42.3597 39.9109C42.4004 39.9092 42.4427 39.9034 42.4889 39.8868C42.6715 39.821 42.8386 39.8085 43.0256 39.7853ZM45.4174 25.4019C45.159 25.3336 45.0489 25.7339 45.307 25.8023C45.4609 25.8415 45.6019 25.9199 45.7165 26.0297C45.8311 26.1396 45.9154 26.2772 45.9611 26.4292C46.038 26.6843 46.4386 26.5756 46.3611 26.3188C46.2955 26.098 46.1743 25.8978 46.0091 25.7372C45.8439 25.5767 45.64 25.4612 45.4174 25.4019ZM45.2523 39.4715L47.4111 38.8236C47.6662 38.7472 47.5577 38.3466 47.3007 38.4235L45.1419 39.0712C44.8868 39.1478 44.9952 39.5485 45.252 39.4715H45.2523ZM48.8143 38.4999C49.5314 38.2896 50.2822 38.2189 51.026 38.2916C51.2916 38.3165 51.29 37.9015 51.026 37.8766C50.2448 37.802 49.4566 37.8778 48.704 38.0998C48.448 38.1745 48.557 38.5751 48.8143 38.4999ZM53.2927 38.6144C53.7747 38.6573 54.2052 38.8643 54.5488 39.2026C54.7392 39.3902 55.033 39.0969 54.8421 38.9094C54.4174 38.4908 53.8854 38.2523 53.2927 38.1994C53.0271 38.1754 53.0285 38.5906 53.2927 38.6144ZM56.1363 40.9951C56.2442 41.2386 56.602 41.0278 56.4943 40.7857L56.0627 39.8143C55.9546 39.5709 55.5968 39.7814 55.7042 40.0238L56.136 40.9951H56.1363ZM56.46 42.2905C56.6382 42.6311 56.6944 42.9932 56.6476 43.3731C56.615 43.6376 57.0302 43.6354 57.0626 43.3731C57.1179 42.9221 57.0286 42.4828 56.8183 42.0811C56.6944 41.8442 56.3361 42.0539 56.46 42.2905ZM56.4609 45.1606L56.1372 46.132C56.0528 46.386 56.4534 46.4947 56.5375 46.2424L56.8612 45.2708C56.9456 45.0168 56.545 44.9078 56.4609 45.1604V45.1606ZM54.8753 49.1989L55.523 48.1196C55.6607 47.89 55.3019 47.6811 55.1647 47.9102L54.517 48.9897C54.3792 49.2193 54.7378 49.4282 54.8753 49.1989ZM52.5197 51.3441L51.0966 52.7272C50.9048 52.9137 51.1984 53.2069 51.3898 53.0205L52.8133 51.6377C53.005 51.4512 52.7115 51.1579 52.5197 51.3444V51.3441ZM48.9734 54.9699L48.5457 56.1587C48.4552 56.4105 48.8561 56.5189 48.946 56.2691L49.3735 55.08C49.464 54.8282 49.0631 54.7197 48.9734 54.9699ZM48.3432 58.1086L48.559 59.4043C48.603 59.6671 49.0028 59.5556 48.9593 59.2936L48.7435 57.9988C48.6995 57.7357 48.2995 57.8472 48.3432 58.1089V58.1086ZM71.6739 58.2691C71.9066 58.7951 71.9836 59.3767 71.8958 59.9451C71.856 60.2063 72.2558 60.3189 72.2959 60.0555C72.4018 59.3611 72.3152 58.7026 72.0325 58.0597C71.9251 57.8156 71.5677 58.0267 71.6739 58.2691ZM70.7573 55.4562C70.6038 55.2404 70.2438 55.4471 70.399 55.6657L71.1615 56.7402C71.3148 56.956 71.6748 56.7491 71.5198 56.5308L70.7573 55.4562ZM67.693 51.4905C67.5474 51.2675 67.1881 51.4753 67.3347 51.6997L68.399 53.3292C68.5443 53.5517 68.9039 53.3439 68.7573 53.1195L67.693 51.4905ZM66.6687 48.0164L66.7703 49.2041C66.7927 49.4683 67.208 49.4708 67.1853 49.2041L67.0837 48.0164C67.0611 47.7522 66.6458 47.75 66.6687 48.0164ZM67.4691 46.6483L67.9265 45.2533C68.0098 44.9988 67.6091 44.8898 67.5261 45.1429L67.0691 46.5379C66.9858 46.7924 67.3864 46.9014 67.4691 46.6483ZM70.0291 42.4017L71.1242 41.448C71.3262 41.2724 71.0312 40.9797 70.8309 41.1548C70.4657 41.4724 70.1005 41.7903 69.7359 42.1085C69.5339 42.2841 69.8286 42.5766 70.0291 42.4017ZM72.8276 39.8824C73.185 39.6648 73.6004 39.5616 74.0181 39.5866C74.2851 39.6005 74.2843 39.1855 74.0181 39.1716C73.5267 39.1461 73.039 39.2688 72.6182 39.5238C72.3894 39.6613 72.5977 40.0202 72.8276 39.8824ZM75.9119 39.0507C76.009 39.0209 76.1125 39.0188 76.2107 39.0446C76.309 39.0704 76.3981 39.1231 76.468 39.1968C76.6553 39.3877 76.9488 39.0942 76.7613 38.9033C76.6391 38.7783 76.4853 38.6888 76.3163 38.6443C76.1473 38.5998 75.9694 38.6019 75.8015 38.6504C75.5456 38.7243 75.6541 39.1246 75.9119 39.0507ZM23.5541 41.6229C23.8175 41.5867 23.7055 41.1866 23.4437 41.2226C23.2279 41.2515 23.0085 41.2346 22.7997 41.1728C22.5909 41.1111 22.3975 41.0059 22.2322 40.8643C22.0297 40.6927 21.7348 40.9846 21.9389 41.1578C22.4001 41.5493 22.9562 41.7051 23.5541 41.6226V41.6229ZM25.3964 41.6503L26.4743 41.3211C26.7289 41.2436 26.6204 40.843 26.3639 40.921L25.2861 41.25C25.0315 41.3277 25.14 41.7286 25.3964 41.6503ZM27.6012 40.4429C28.0024 40.3923 28.3526 40.174 28.543 39.811C28.6669 39.5747 28.3089 39.3647 28.1847 39.6013C28.0679 39.8243 27.8568 39.9958 27.6012 40.0279C27.4892 40.042 27.3951 40.1131 27.3937 40.2354C27.3926 40.3367 27.49 40.4568 27.6012 40.4429ZM29.5083 38.4044L29.832 37.8649C29.97 37.6353 29.6112 37.4264 29.4737 37.6555L29.15 38.195C29.0122 38.4246 29.371 38.6335 29.5083 38.4044ZM37.046 54.6918L38.1253 55.1234C38.3735 55.2225 38.4811 54.8213 38.236 54.7233L37.1562 54.2915C36.9083 54.1921 36.8006 54.5933 37.046 54.6915V54.6918ZM33.8121 53.9097L35.2131 54.1376C35.4746 54.1802 35.5866 53.7805 35.3235 53.7376L33.9222 53.5096C33.661 53.467 33.549 53.8668 33.8121 53.9097ZM31.3832 53.4487L30.6279 53.7724C30.5239 53.817 30.5026 53.9678 30.5532 54.0566C30.6141 54.1636 30.7347 54.175 30.8371 54.1313L31.5927 53.807C31.6964 53.7628 31.7177 53.612 31.6674 53.5232C31.6062 53.4161 31.4856 53.405 31.3832 53.4487ZM29.8848 55.6239L29.669 56.2713C29.5841 56.5253 29.9847 56.6343 30.0691 56.382L30.2849 55.734C30.3695 55.4803 29.9689 55.3713 29.8848 55.6239ZM29.2482 57.9114L28.0649 58.6733C27.8408 58.8175 28.0488 59.1768 28.2743 59.0316L29.4576 58.2699C29.6815 58.1258 29.4737 57.7664 29.2482 57.9114ZM27.0094 58.3933L26.2541 58.1775C25.9968 58.1039 25.8867 58.504 26.1434 58.5776L26.899 58.7934C27.1563 58.867 27.2659 58.4666 27.0094 58.3933ZM25.2963 57.6604C25.4855 57.8497 25.7791 57.5564 25.5898 57.3672L24.8343 56.6119C24.6453 56.4226 24.3515 56.7159 24.541 56.9051L25.2963 57.6604ZM23.3414 55.0819L23.9838 55.7348C24.1714 55.9252 24.4649 55.6316 24.2771 55.4413L23.6349 54.7884C23.4473 54.5977 23.1538 54.8913 23.3416 55.0816L23.3414 55.0819Z" fill="#151F32"/>
</g>
<defs>
<clipPath id="clip0_9056_77610">
<rect width="93" height="79" fill="white"/>
</clipPath>
</defs>
</svg>
