<svg width="1440" height="871" viewBox="0 0 1440 871" fill="none" xmlns="http://www.w3.org/2000/svg">
<g clip-path="url(#clip0_575_3566)">
<rect width="1440" height="871" fill="#104547"/>
<path d="M559.41 972.303C595.391 972.303 626.534 1001.94 642.05 1045.32C648.668 1063.9 652.45 1085.03 652.45 1107.39C652.45 1144.7 642.05 1178.51 625.2 1202.98C608.349 1227.45 559.41 1242.58 559.41 1242.58H360.372C243.585 1206.65 213.184 972.303 213.184 972.303H559.41Z" stroke="#18686B" stroke-opacity="0.21" stroke-width="11.548"/>
<path d="M1260.27 249.813C1257.77 257.933 1254.99 266.386 1251.93 274.95C1251.87 275.117 1251.82 275.284 1251.76 275.451C1223.96 353.42 1171.85 445.57 1081.14 445.57H502.937C305.123 445.57 325.601 544.588 326.769 548.481C145.416 92.9014 502.937 168.73 502.937 168.73H1217.9C1244.31 172.678 1275.9 189.362 1260.27 249.813Z" stroke="#18686B" stroke-opacity="0.21" stroke-width="11.548"/>
<path d="M960.482 621.694C939.571 577.26 897.472 546.895 848.922 546.895H347.629C347.629 546.895 72.5017 552.349 218.93 1007.93C217.985 1004.04 187.909 823.736 347.629 823.736H848.922C883.569 823.736 914.991 808.22 937.736 783.194C960.482 758.112 974.496 723.521 974.496 685.315C974.496 662.403 969.491 640.77 960.482 621.694Z" stroke="#18686B" stroke-opacity="0.21" stroke-width="11.548"/>
</g>
<defs>
<clipPath id="clip0_575_3566">
<rect width="1440" height="871" fill="white"/>
</clipPath>
</defs>
</svg>
