<svg width="308" height="89" viewBox="0 0 308 89" fill="none" xmlns="http://www.w3.org/2000/svg">
<path d="M18.1925 12.5617H11.4344V30H7.2408V12.5617H0.48272V8.60947H18.1925V12.5617ZM20.8901 20.8887H27.5275C27.4672 19.4103 26.5018 17.9622 24.2088 17.9622C22.1271 17.9622 20.9806 19.531 20.8901 20.8887ZM27.9197 24.7504L31.2686 25.746C30.5144 28.3105 28.1611 30.4526 24.5105 30.4526C20.4376 30.4526 16.8474 27.5261 16.8474 22.5178C16.8474 17.7811 20.3471 14.7038 24.1485 14.7038C28.7343 14.7038 31.4798 17.6303 31.4798 22.3972C31.4798 22.9704 31.4195 23.5738 31.4195 23.6341H20.7996C20.8901 25.5952 22.5495 27.0132 24.5407 27.0132C26.4112 27.0132 27.437 26.0779 27.9197 24.7504ZM33.3725 25.8667L36.8119 25.1125C36.9024 26.2891 37.7773 27.3752 39.5272 27.3752C40.8547 27.3752 41.4882 26.6813 41.4882 25.8969C41.4882 25.2331 41.0357 24.6901 39.8892 24.4487L37.9282 23.9962C35.062 23.3626 33.7647 21.6429 33.7647 19.5612C33.7647 16.9062 36.118 14.7038 39.316 14.7038C43.5398 14.7038 44.9578 17.3889 45.1388 18.9879L41.7899 19.7422C41.6693 18.8673 41.0357 17.751 39.3462 17.751C38.2902 17.751 37.4455 18.3845 37.4455 19.2293C37.4455 19.9534 37.9885 20.4059 38.8031 20.5568L40.915 21.0093C43.8415 21.6127 45.3198 23.3928 45.3198 25.565C45.3198 27.9786 43.4493 30.4526 39.5574 30.4526C35.0922 30.4526 33.5535 27.5562 33.3725 25.8667ZM53.494 10.7214V15.1564H56.4808V18.7164H53.494V24.9314C53.494 26.2287 54.0974 26.6511 55.2439 26.6511C55.7266 26.6511 56.2696 26.5908 56.4808 26.5304V29.8491C56.1188 30 55.3947 30.2112 54.2181 30.2112C51.3218 30.2112 49.5116 28.4915 49.5116 25.6253V18.7164H46.8264V15.1564H47.5807C49.1495 15.1564 49.8736 14.1306 49.8736 12.8031V10.7214H53.494Z" fill="black"/>
<path d="M96.4929 62.9965C95.6479 60.6343 93.952 59.0201 91.9925 59.0201H81.1535C81.1535 59.0201 76.208 59.0231 75.4721 53.5022L73.0432 56.4156L73.6277 63.3418C73.6277 63.3418 74.7937 71.7822 81.1535 73.7386H91.9925C91.9925 73.7386 94.6576 72.9149 95.5752 71.5823C96.4929 70.2498 97.0592 68.4085 97.0592 66.3763C97.0592 65.1589 96.8533 64.0081 96.4929 62.9965Z" fill="url(#paint0_linear_2486_2573)"/>
<path d="M130.16 19.6769C130.024 20.1191 129.873 20.5794 129.706 21.0458C129.703 21.0549 129.7 21.064 129.697 21.073C128.183 25.319 125.345 30.3372 120.406 30.3372H88.9183C78.1459 30.3372 80.9473 39.8588 81.0109 40.0708C71.135 15.2614 88.9183 15.2614 88.9183 15.2614H127.853C129.291 15.4764 131.011 16.3849 130.16 19.6769Z" fill="url(#paint1_linear_2486_2573)"/>
<path d="M113.834 39.9284C112.695 37.5087 110.403 35.8551 107.759 35.8551H92.0895H80.4601C80.4601 35.8551 66.102 35.8551 74.076 60.6646C74.0245 60.4526 71.7622 50.931 80.4601 50.931H92.0895H105.878H107.759C109.646 50.931 111.357 50.086 112.595 48.7232C113.834 47.3573 114.597 45.4736 114.597 43.393C114.597 42.1453 114.325 40.9672 113.834 39.9284Z" fill="url(#paint2_linear_2486_2573)"/>
<path d="M165.368 26.9151C164.105 26.9151 162.982 27.2893 162 28.0378C161.017 28.7395 160.526 29.9558 160.526 31.6867V35.4759H174.28V19.1963H183.612V70H174.28V43.4754H160.526V70H151.123V43.4754H145.369V35.4759H151.123V31.5464C151.123 27.6636 152.246 24.5527 154.491 22.2136C156.784 19.8746 159.848 18.7051 163.684 18.7051C165.742 18.7051 167.286 18.939 168.315 19.4068V27.2659C167.52 27.032 166.537 26.9151 165.368 26.9151ZM202.901 70H193.568V35.4759H202.901V70ZM192.446 24.1784C192.446 22.5879 193.007 21.2312 194.13 20.1085C195.252 18.939 196.609 18.3542 198.2 18.3542C199.79 18.3542 201.147 18.9156 202.269 20.0383C203.392 21.1611 203.954 22.5411 203.954 24.1784C203.954 25.7222 203.392 27.0554 202.269 28.1782C201.147 29.3009 199.79 29.8623 198.2 29.8623C196.609 29.8623 195.252 29.3009 194.13 28.1782C193.007 27.0554 192.446 25.7222 192.446 24.1784ZM228.4 43.0544C225.921 43.0544 223.839 43.9198 222.155 45.6507C220.471 47.3816 219.629 49.744 219.629 52.738C219.629 55.7319 220.471 58.1177 222.155 59.8954C223.886 61.6263 225.991 62.4917 228.471 62.4917C230.669 62.4917 232.424 61.9303 233.733 60.8076C235.043 59.6381 235.932 58.2581 236.4 56.6675L244.61 59.4042C243.768 62.5853 241.943 65.3219 239.137 67.6142C236.33 69.9064 232.774 71.0526 228.471 71.0526C223.325 71.0526 218.998 69.3217 215.489 65.8599C212.027 62.3514 210.296 57.9774 210.296 52.738C210.296 47.4518 212.004 43.0778 215.419 39.616C218.881 36.1542 223.138 34.4234 228.19 34.4234C232.587 34.4234 236.189 35.5695 238.996 37.8617C241.803 40.1072 243.604 42.8439 244.399 46.0717L236.049 48.8786C234.926 44.9958 232.377 43.0544 228.4 43.0544ZM284.944 35.4759L271.121 50.0013L285.225 70H273.787L264.665 56.8079L260.806 60.8778V70H251.473V19.1963H260.806V48.3172L272.735 35.4759H284.944ZM291.662 68.6668C290.399 67.4037 289.768 65.8833 289.768 64.1056C289.768 62.328 290.399 60.831 291.662 59.6147C292.925 58.3516 294.422 57.7201 296.153 57.7201C297.931 57.7201 299.451 58.3516 300.714 59.6147C301.977 60.831 302.609 62.328 302.609 64.1056C302.609 65.8833 301.977 67.4037 300.714 68.6668C299.451 69.883 297.931 70.4912 296.153 70.4912C294.422 70.4912 292.925 69.883 291.662 68.6668Z" fill="#151F32"/>
<defs>
<linearGradient id="paint0_linear_2486_2573" x1="95.105" y1="53.4881" x2="75.1372" y2="72.5175" gradientUnits="userSpaceOnUse">
<stop stop-color="#E21C23"/>
<stop offset="1" stop-color="#AE1E22"/>
</linearGradient>
<linearGradient id="paint1_linear_2486_2573" x1="78.0247" y1="33.2169" x2="103.468" y2="-1.02812" gradientUnits="userSpaceOnUse">
<stop stop-color="#ED1A70"/>
<stop offset="1" stop-color="#F15D2F"/>
</linearGradient>
<linearGradient id="paint2_linear_2486_2573" x1="110.614" y1="35.7772" x2="90.1537" y2="65.4985" gradientUnits="userSpaceOnUse">
<stop stop-color="#6AC28C"/>
<stop offset="1" stop-color="#38BDB1"/>
</linearGradient>
</defs>
</svg>
