<svg width="988" height="657" viewBox="0 0 988 657" fill="none" xmlns="http://www.w3.org/2000/svg">
<path d="M0 117.988V401.364L862.72 283.371V0L0 117.988Z" fill="white"/>
<path d="M0 371.478V506.795L141.217 346.26L0 371.478Z" fill="white"/>
<path d="M189.506 247.555V283.017C189.506 299.355 184.823 311.991 175.463 320.929C166.098 329.868 153.01 335.487 136.192 337.787C121.28 339.825 109.144 337.268 99.7785 330.105C90.418 322.943 85.7402 311.583 85.7402 296.036V208.973C85.7402 190.358 89.8843 175.874 98.1772 165.509C106.465 155.149 119.455 148.753 137.143 146.337C144.358 145.347 151.026 145.322 157.135 146.254C163.244 147.186 168.655 149.059 173.376 151.868C178.098 154.678 181.805 158.706 184.503 163.951C187.201 169.197 188.55 175.471 188.55 182.779V215.883L147.139 221.545V199.748C147.139 188.519 143.805 183.356 137.143 184.269C133.178 184.812 130.558 186.404 129.291 189.053C128.02 191.698 127.384 195.225 127.384 199.622V288.335C127.384 292.183 128.277 295.4 130.063 297.982C131.849 300.563 134.207 301.655 137.143 301.252C139.841 300.884 142.18 299.52 144.164 297.171C146.144 294.818 147.134 290.975 147.134 285.632V253.353L189.506 247.555Z" fill="#33AC85"/>
<path d="M204.018 275.723V186.306C204.018 170.676 208.283 157.977 216.814 148.209C225.339 138.446 238.169 132.274 255.308 129.692C272.918 127.518 285.986 130.153 294.517 137.582C303.047 145.016 307.308 156.551 307.308 172.181V261.598C307.308 269.216 306.337 276.276 304.391 282.788C302.45 289.3 299.495 295.259 295.526 300.675C291.561 306.09 286.185 310.593 279.406 314.189C272.627 317.785 264.829 320.07 256.027 321.041C246.744 322.545 238.713 322.428 231.929 320.682C225.15 318.944 219.769 315.907 215.804 311.578C211.84 307.25 208.885 302.096 206.939 296.118C204.988 290.14 204.018 283.342 204.018 275.723ZM255.658 284.332C257.167 284.128 258.497 283.647 259.647 282.905C260.792 282.158 261.709 281.129 262.378 279.819C263.053 278.509 263.587 277.276 263.985 276.121C264.383 274.966 264.659 273.457 264.819 271.589C264.975 269.721 265.076 268.294 265.12 267.309C265.159 266.324 265.178 264.965 265.178 263.233C265.178 262.84 265.178 262.529 265.178 262.291V186.889C265.178 186.418 265.198 185.477 265.241 184.055C265.28 182.638 265.28 181.575 265.241 180.876C265.198 180.173 265.159 179.139 265.125 177.771C265.081 176.402 264.965 175.359 264.766 174.636C264.567 173.918 264.329 173.006 264.057 171.904C263.776 170.803 263.402 169.987 262.927 169.463C262.451 168.939 261.893 168.391 261.262 167.809C260.622 167.226 259.836 166.867 258.88 166.717C257.934 166.571 256.856 166.581 255.668 166.746C254.003 166.974 252.552 167.45 251.325 168.163C250.092 168.881 249.126 169.895 248.403 171.215C247.695 172.53 247.098 173.709 246.622 174.757C246.142 175.806 245.831 177.305 245.671 179.246C245.511 181.192 245.434 182.58 245.434 183.405C245.434 184.229 245.434 185.622 245.434 187.587C245.434 187.903 245.434 188.179 245.434 188.412C245.434 188.65 245.434 188.883 245.434 189.121V264.519C245.434 266.246 245.453 267.62 245.497 268.634C245.536 269.648 245.628 271.128 245.793 273.069C245.953 275.01 246.249 276.563 246.686 277.718C247.122 278.877 247.7 280.076 248.408 281.313C249.126 282.551 250.097 283.424 251.329 283.919C252.547 284.424 253.998 284.555 255.658 284.332Z" fill="#33AC85"/>
<path d="M426.415 295.971L388.813 301.115L365.73 168.909V304.274L325.508 309.777V122.107L389.294 113.387L406.904 208.879L424.392 108.588L488.77 99.7852V287.455L448.072 293.021V157.656L426.415 295.971Z" fill="#33AC85"/>
<path d="M509.479 284.596V96.9264L549.934 91.3945V279.065L509.479 284.596Z" fill="#33AC85"/>
<path d="M673.455 74.5078V262.178L632.52 267.773L611.581 176.745V270.641L570.641 276.24V88.5655L613.716 82.6746L632.995 169.806V80.0348L673.455 74.5078Z" fill="#33AC85"/>
<path d="M778.523 247.811L771.38 232.885C763.922 245.919 752.421 253.503 736.874 255.629C706.648 259.763 691.537 242.469 691.537 203.746V122.457C691.537 113.582 692.726 105.682 695.104 98.7623C697.481 91.8377 700.403 86.3544 703.853 82.3075C707.303 78.2605 711.529 74.8395 716.523 72.0299C721.521 69.2252 726.063 67.2502 730.148 66.1002C734.234 64.955 738.66 64.0524 743.415 63.4022C749.287 62.6015 754.605 62.2861 759.36 62.4608C764.116 62.6355 768.226 63.3536 771.676 64.6056C775.126 65.8575 778.159 67.386 780.779 69.1912C783.395 70.9963 785.554 73.3643 787.262 76.3146C788.97 79.2601 790.358 82.2153 791.426 85.1704C792.498 88.1256 793.313 91.7407 793.866 96.0255C794.42 100.31 794.798 104.323 794.997 108.06C795.191 111.806 795.293 116.231 795.293 121.331L755.313 126.8V111.956C755.313 108.972 754.998 106.541 754.367 104.668C753.727 102.79 752.834 101.518 751.684 100.849C750.539 100.184 749.486 99.7813 748.534 99.6309C747.583 99.4901 746.511 99.495 745.322 99.66C742.94 99.9851 741.018 100.563 739.553 101.392C738.082 102.222 736.937 103.163 736.102 104.221C735.268 105.274 734.651 107.07 734.258 109.598C733.861 112.126 733.618 114.499 733.545 116.707C733.463 118.915 733.429 122.379 733.429 127.091V199.665C733.429 202.416 733.526 204.716 733.73 206.575C733.924 208.429 734.385 210.413 735.093 212.514C735.811 214.62 736.981 216.125 738.606 217.042C740.232 217.959 742.318 218.245 744.851 217.896C749.054 217.323 751.849 215.309 753.246 211.859C754.634 208.414 755.328 203.033 755.328 195.73V174.054L744.143 175.582V143.182L794.832 136.248V245.574L778.523 247.811Z" fill="#33AC85"/>
<g opacity="0.2">
<path d="M309.346 407.854V657.001L838.238 584.669L911.88 648.237V574.596V553.725V325.449L309.346 407.854Z" fill="white"/>
<path d="M311.787 405.413V654.559L840.68 582.228L914.321 645.791V572.154V551.284V323.008L311.787 405.413Z" fill="#F7F8F9"/>
<path d="M314.229 402.971V652.118L843.126 579.782L916.762 643.349V569.713V548.842V320.566L314.229 402.971Z" fill="#EFF0F3"/>
<path d="M316.67 400.538V649.684L845.567 577.348L919.204 640.916V567.279V546.409V318.133L316.67 400.538Z" fill="#E6E9ED"/>
<path d="M319.104 398.089V647.235L848.001 574.899L921.637 638.467V564.83V543.959V315.684L319.104 398.089Z" fill="#DEE2E7"/>
<path d="M321.553 395.647V644.798L850.45 572.462L924.087 636.03V562.393V541.523V313.242L321.553 395.647Z" fill="#D6DAE1"/>
<path d="M323.986 393.198V642.349L852.884 570.013L926.52 633.581V559.944V539.074V310.793L323.986 393.198Z" fill="#CED3DB"/>
<path d="M326.438 390.764V639.916L855.335 567.579L928.971 631.147V557.511V536.64V308.359L326.438 390.764Z" fill="#C5CCD5"/>
<path d="M328.869 388.323V637.474L857.766 565.138L931.403 628.706V555.069V534.199V305.918L328.869 388.323Z" fill="#BDC4CF"/>
<path d="M331.311 385.88V635.031L860.208 562.695L933.844 626.262V552.626V531.755V303.475L331.311 385.88Z" fill="#B5BDC9"/>
<path d="M333.754 383.438V632.589L862.651 560.253L936.288 623.821V550.18V529.314V301.033L333.754 383.438Z" fill="#ADB5C3"/>
<path d="M336.195 381.005V630.151L865.093 557.82L938.729 621.387V547.746V526.88V298.6L336.195 381.005Z" fill="#A5AEBD"/>
<path d="M338.629 378.555V627.702L867.526 555.37L941.163 618.938V545.297V524.431V296.15L338.629 378.555Z" fill="#9CA7B7"/>
<path d="M341.078 376.122V625.268L869.971 552.937L943.612 616.5V542.863V521.993V293.717L341.078 376.122Z" fill="#949FB1"/>
<path d="M343.52 373.673V622.819L872.417 550.488L946.053 614.05V540.414V519.543V291.268L343.52 373.673Z" fill="#8C98AB"/>
<path d="M345.969 371.239V620.385L874.861 548.054L948.503 611.617V537.98V517.11V288.834L345.969 371.239Z" fill="#8491A5"/>
<path d="M348.402 368.798V617.944L877.3 545.613L950.936 609.175V535.539V514.668V286.393L348.402 368.798Z" fill="#7B899F"/>
<path d="M350.844 366.353V615.5L879.741 543.164L953.378 606.731V533.095V512.224V283.943L350.844 366.353Z" fill="#738299"/>
<path d="M353.285 363.907V613.058L882.182 540.722L955.819 604.29V530.653V509.782V281.502L353.285 363.907Z" fill="#6B7B93"/>
<path d="M355.727 361.473V610.625L884.624 538.288L958.26 601.856V528.22V507.349V279.068L355.727 361.473Z" fill="#63738D"/>
<path d="M358.16 359.024V608.175L887.057 535.839L960.694 599.407V525.77V504.9V276.619L358.16 359.024Z" fill="#5A6C87"/>
<path d="M360.609 356.591V605.742L889.507 533.406L963.143 596.973V523.337V502.466V274.186L360.609 356.591Z" fill="#526581"/>
<path d="M363.043 354.139V603.291L891.94 530.955L965.577 594.522V520.886V500.015V271.734L363.043 354.139Z" fill="#4A5D7B"/>
<path d="M365.494 351.708V600.854L894.391 528.523L968.028 592.09V518.454V497.583V269.303L365.494 351.708Z" fill="#425675"/>
<path d="M367.926 349.266V598.418L896.823 526.081L970.46 589.649V516.008V495.142V266.861L367.926 349.266Z" fill="#3A4E6F"/>
<path d="M370.369 346.823V595.969L899.266 523.638L972.908 587.206V513.564V492.694V264.418L370.369 346.823Z" fill="#314769"/>
<path d="M372.818 344.382V593.528L901.711 521.197L975.347 584.764V511.123V490.252V261.977L372.818 344.382Z" fill="#294063"/>
<path d="M375.252 341.948V591.094L904.144 518.763L977.786 582.326V508.689V487.819V259.543L375.252 341.948Z" fill="#21385D"/>
<path d="M377.701 339.499V588.645L906.598 516.309L980.235 579.877V506.24V485.369V257.094L377.701 339.499Z" fill="#193157"/>
<path d="M380.143 337.065V586.212L909.04 513.88L982.676 577.443V503.807V482.936V254.66L380.143 337.065Z" fill="#102A51"/>
<path d="M382.576 334.616V583.762L911.473 511.426L985.11 574.994V501.357V480.487V252.211L382.576 334.616Z" fill="#08224B"/>
<path d="M385.025 332.179V581.326L913.923 508.99L987.559 572.557V498.921V478.05V249.77L385.025 332.179Z" fill="#33AC85"/>
</g>
<path d="M385.025 581.326L987.559 498.921V249.77L385.025 332.179V581.326Z" fill="#33AC85"/>
<path d="M987.561 478.055V572.562L888.93 487.42L987.561 478.055Z" fill="#33AC85"/>
<path d="M495.878 536.169C476.439 538.829 462.58 536.325 454.292 528.663C446 521 441.855 507.976 441.855 489.6V471.224L483.267 465.561V482.409C483.267 494.506 486.595 500.096 493.263 499.184C496.359 498.761 498.799 497.252 500.58 494.647C502.366 492.046 503.259 488.824 503.259 484.971C503.259 479.943 502.56 475.799 501.172 472.529C499.789 469.268 497.683 466.274 494.869 463.557C492.05 460.839 487.43 457.171 481.005 452.551L463.279 439.779C448.998 429.555 441.86 416.788 441.86 401.474C441.86 384.825 446.164 371.849 454.773 362.542C463.376 353.235 475.216 347.553 490.288 345.491C490.681 345.437 491.04 345.389 491.361 345.345C491.676 345.301 493.777 345.015 497.669 344.481C501.556 343.952 506.549 344.151 512.663 345.083C518.772 346.01 524.207 348.213 528.963 351.687C533.718 355.157 537.294 360.402 539.672 367.424C542.05 374.441 543.239 383.253 543.239 393.855L500.76 399.664L500.522 388.382C500.44 386.271 499.527 384.514 497.785 383.102C496.038 381.69 494.092 381.132 491.953 381.423C489.177 381.802 486.819 382.971 484.873 384.922C482.932 386.882 481.956 389.192 481.956 391.861C481.956 397.204 485.887 402.478 493.738 407.685L519.088 424.48C523.212 427.216 526.803 430.079 529.86 433.078C532.912 436.077 535.329 439.124 537.115 442.215C538.9 445.311 540.346 448.135 541.458 450.693C542.569 453.25 543.34 456.094 543.777 459.209C544.214 462.334 544.476 464.692 544.554 466.293C544.631 467.895 544.67 469.986 544.67 472.577C544.67 479.177 544.233 485.223 543.36 490.721C542.486 496.224 540.938 501.62 538.721 506.904C536.498 512.198 533.582 516.759 529.972 520.588C526.362 524.421 521.684 527.711 515.934 530.463C510.178 533.234 503.497 535.131 495.878 536.169Z" fill="white"/>
<path d="M557.162 475.006V385.589C557.162 369.959 561.427 357.26 569.958 347.492C578.484 337.729 591.314 331.557 608.453 328.98C626.063 326.806 639.13 329.436 647.661 336.87C656.187 344.304 660.452 355.839 660.452 371.468V460.88C660.452 468.499 659.482 475.559 657.536 482.071C655.595 488.583 652.635 494.542 648.67 499.958C644.706 505.373 639.329 509.876 632.55 513.472C625.772 517.067 617.969 519.353 609.171 520.323C599.888 521.828 591.857 521.711 585.074 519.964C578.29 518.227 572.913 515.189 568.949 510.861C564.984 506.533 562.024 501.379 560.083 495.401C558.133 489.423 557.162 482.624 557.162 475.006ZM608.807 483.614C610.316 483.406 611.641 482.93 612.796 482.183C613.941 481.436 614.858 480.407 615.533 479.097C616.207 477.786 616.741 476.559 617.139 475.399C617.532 474.244 617.813 472.735 617.969 470.867C618.129 468.999 618.231 467.572 618.27 466.587C618.313 465.602 618.333 464.243 618.333 462.511C618.333 462.118 618.333 461.802 618.333 461.569V386.167C618.333 385.696 618.352 384.75 618.396 383.333C618.435 381.916 618.435 380.853 618.396 380.154C618.352 379.451 618.313 378.417 618.274 377.049C618.236 375.68 618.119 374.637 617.92 373.914C617.721 373.196 617.483 372.288 617.207 371.187C616.93 370.085 616.552 369.275 616.081 368.746C615.606 368.222 615.047 367.669 614.412 367.091C613.776 366.509 612.985 366.15 612.034 366.004C611.083 365.859 610.011 365.869 608.822 366.029C607.157 366.257 605.706 366.732 604.474 367.451C603.246 368.169 602.276 369.183 601.558 370.498C600.849 371.813 600.247 372.992 599.777 374.04C599.296 375.088 598.981 376.583 598.826 378.529C598.665 380.475 598.588 381.862 598.588 382.683C598.588 383.507 598.588 384.905 598.588 386.865C598.588 387.181 598.588 387.457 598.588 387.69C598.588 387.928 598.588 388.161 598.588 388.399V463.797C598.588 465.524 598.607 466.893 598.646 467.912C598.685 468.926 598.782 470.406 598.947 472.347C599.107 474.288 599.403 475.841 599.84 476.995C600.276 478.15 600.854 479.349 601.562 480.586C602.281 481.824 603.251 482.697 604.479 483.192C605.692 483.707 607.143 483.837 608.807 483.614Z" fill="white"/>
<path d="M676.154 458.734V369.317C676.154 353.687 680.42 340.988 688.95 331.22C697.476 321.457 710.306 315.279 727.44 312.703C745.055 310.529 758.123 313.159 766.648 320.593C775.179 328.027 779.444 339.561 779.444 355.186V444.608C779.444 452.221 778.474 459.287 776.528 465.799C774.582 472.311 771.627 478.27 767.663 483.68C763.698 489.096 758.322 493.599 751.543 497.194C744.759 500.795 736.961 503.076 728.158 504.046C718.88 505.55 710.845 505.429 704.061 503.687C697.277 501.945 691.905 498.912 687.941 494.584C683.976 490.255 681.016 485.107 679.075 479.124C677.125 473.15 676.154 466.352 676.154 458.734ZM727.795 467.342C729.304 467.133 730.628 466.658 731.778 465.91C732.928 465.163 733.841 464.134 734.515 462.824C735.195 461.514 735.728 460.286 736.126 459.127C736.519 457.977 736.796 456.467 736.956 454.599C737.116 452.731 737.218 451.304 737.252 450.315C737.296 449.329 737.315 447.971 737.315 446.243C737.315 445.85 737.315 445.535 737.315 445.302V369.904C737.315 369.433 737.33 368.487 737.373 367.07C737.417 365.648 737.417 364.59 737.373 363.892C737.33 363.188 737.296 362.154 737.257 360.781C737.218 359.413 737.097 358.369 736.903 357.651C736.704 356.933 736.466 356.021 736.184 354.919C735.903 353.818 735.529 353.007 735.054 352.483C734.578 351.959 734.025 351.406 733.389 350.824C732.754 350.242 731.963 349.882 731.012 349.737C730.061 349.591 728.988 349.601 727.799 349.761C726.13 349.989 724.684 350.465 723.456 351.178C722.229 351.896 721.258 352.91 720.54 354.225C719.822 355.54 719.23 356.724 718.754 357.768C718.279 358.816 717.963 360.31 717.808 362.256C717.648 364.202 717.565 365.59 717.565 366.41C717.565 367.235 717.565 368.633 717.565 370.593C717.565 370.908 717.565 371.185 717.565 371.418C717.565 371.656 717.565 371.888 717.565 372.126V447.524C717.565 449.252 717.585 450.625 717.629 451.639C717.667 452.653 717.764 454.133 717.924 456.07C718.08 458.011 718.381 459.563 718.817 460.718C719.254 461.878 719.827 463.077 720.54 464.309C721.253 465.546 722.229 466.42 723.456 466.915C724.684 467.429 726.125 467.57 727.795 467.342Z" fill="white"/>
<path d="M900.464 291.041V478.711L859.528 484.311L838.59 393.283V487.179L797.654 492.774V305.104L840.73 299.213L860.009 386.344V296.573L900.464 291.041Z" fill="white"/>
</svg>
