<svg width="23" height="16" viewBox="0 0 23 16" fill="none" xmlns="http://www.w3.org/2000/svg">
<rect x="0.5" y="0.5" width="22" height="15" rx="3.5" fill="white"/>
<rect x="0.5" y="0.5" width="22" height="15" rx="3.5" stroke="#F2F4F7"/>
<path fill-rule="evenodd" clip-rule="evenodd" d="M11.6208 11.2198C10.8199 11.8852 9.78087 12.2868 8.64553 12.2868C6.11224 12.2868 4.05859 10.2871 4.05859 7.82018C4.05859 5.35331 6.11224 3.35352 8.64553 3.35352C9.78087 3.35352 10.8199 3.75518 11.6208 4.42054C12.4218 3.75518 13.4608 3.35352 14.5962 3.35352C17.1294 3.35352 19.1831 5.35331 19.1831 7.82018C19.1831 10.2871 17.1294 12.2868 14.5962 12.2868C13.4608 12.2868 12.4218 11.8852 11.6208 11.2198Z" fill="#ED0006"/>
<path fill-rule="evenodd" clip-rule="evenodd" d="M11.6211 11.2198C12.6073 10.4006 13.2327 9.18149 13.2327 7.82018C13.2327 6.45888 12.6073 5.23981 11.6211 4.42054C12.4221 3.75518 13.4611 3.35352 14.5964 3.35352C17.1297 3.35352 19.1833 5.35331 19.1833 7.82018C19.1833 10.2871 17.1297 12.2868 14.5964 12.2868C13.4611 12.2868 12.4221 11.8852 11.6211 11.2198Z" fill="#F9A000"/>
<path fill-rule="evenodd" clip-rule="evenodd" d="M11.6204 11.2197C12.6066 10.4004 13.232 9.18133 13.232 7.82003C13.232 6.45874 12.6066 5.23968 11.6204 4.42041C10.6342 5.23968 10.0088 6.45874 10.0088 7.82003C10.0088 9.18133 10.6342 10.4004 11.6204 11.2197Z" fill="#FF5E00"/>
</svg>
