<svg width="17" height="16" viewBox="0 0 17 16" fill="none" xmlns="http://www.w3.org/2000/svg">
<g id="users-03">
<path id="Icon" d="M12.4999 10.5579C13.4705 11.0455 14.3026 11.828 14.9101 12.8064C15.0303 13.0002 15.0905 13.0971 15.1113 13.2312C15.1535 13.5038 14.9671 13.839 14.7132 13.9469C14.5882 14 14.4477 14 14.1666 14M11.1666 7.68816C12.1544 7.19726 12.8332 6.17791 12.8332 5C12.8332 3.82209 12.1544 2.80274 11.1666 2.31184M9.83322 5C9.83322 6.65685 8.49008 8 6.83322 8C5.17637 8 3.83322 6.65685 3.83322 5C3.83322 3.34315 5.17637 2 6.83322 2C8.49008 2 9.83322 3.34315 9.83322 5ZM2.20604 12.6256C3.26892 11.0297 4.94614 10 6.83322 10C8.72031 10 10.3975 11.0297 11.4604 12.6256C11.6932 12.9752 11.8097 13.15 11.7963 13.3733C11.7858 13.5471 11.6719 13.76 11.5329 13.8651C11.3545 14 11.1091 14 10.6183 14H3.04813C2.55734 14 2.31194 14 2.13352 13.8651C1.99459 13.76 1.88062 13.5471 1.87018 13.3733C1.85678 13.15 1.9732 12.9752 2.20604 12.6256Z" stroke="#2C25EB" stroke-width="1.5" stroke-linecap="round" stroke-linejoin="round"/>
</g>
</svg>
