<svg width="16" height="17" viewBox="0 0 16 17" fill="none" xmlns="http://www.w3.org/2000/svg">
<g id="vuesax/linear/buy-crypto">
<g id="buy-crypto">
<path id="Vector" d="M14.6667 6.16732C14.6667 8.56065 12.7267 10.5007 10.3333 10.5007C10.22 10.5007 10.1 10.494 9.98667 10.4873C9.82001 8.37399 8.12666 6.68064 6.01333 6.51398C6.00666 6.40064 6 6.28065 6 6.16732C6 3.77398 7.94 1.83398 10.3333 1.83398C12.7267 1.83398 14.6667 3.77398 14.6667 6.16732Z" stroke="#ED1C24" stroke-width="1.5" stroke-linecap="round" stroke-linejoin="round"/>
<path id="Vector_2" d="M10 10.8333C10 13.2267 8.06004 15.1667 5.66671 15.1667C3.27337 15.1667 1.33337 13.2267 1.33337 10.8333C1.33337 8.44 3.27337 6.5 5.66671 6.5C5.78004 6.5 5.90003 6.50666 6.01337 6.51333C8.1267 6.67999 9.82005 8.37334 9.98671 10.4867C9.99338 10.6 10 10.72 10 10.8333Z" stroke="#ED1C24" stroke-width="1.5" stroke-linecap="round" stroke-linejoin="round"/>
<path id="Vector_3" d="M5.08 10.246L5.66667 9.16602L6.25334 10.246L7.33333 10.8327L6.25334 11.4194L5.66667 12.4993L5.08 11.4194L4 10.8327L5.08 10.246Z" stroke="#ED1C24" stroke-width="1.5" stroke-linecap="round" stroke-linejoin="round"/>
</g>
</g>
</svg>
