<svg width="17" height="16" viewBox="0 0 17 16" fill="none" xmlns="http://www.w3.org/2000/svg">
<g id="arrows-triangle">
<rect width="16" height="16" transform="translate(0.5)" fill="white"/>
<path id="Icon" d="M9.16659 12.667H12.0294C13.2729 12.667 13.8946 12.667 14.2476 12.4064C14.5554 12.1793 14.7508 11.8309 14.7841 11.4498C14.8223 11.0128 14.4981 10.4823 13.8497 9.42122L13.1851 8.33365M4.58668 7.07047L3.15011 9.42123C2.5017 10.4823 2.1775 11.0128 2.21573 11.4498C2.24907 11.8309 2.44446 12.1793 2.75223 12.4064C3.10524 12.667 3.72698 12.667 4.97044 12.667H6.16659M11.7592 6.00032L10.3203 3.64572C9.71839 2.66085 9.41746 2.16842 9.03005 2.00055C8.69182 1.85398 8.30801 1.85398 7.96979 2.00055C7.58238 2.16842 7.28144 2.66085 6.67958 3.64572L5.9997 4.75825M12.4999 3.3337L11.7679 6.06575L9.03582 5.3337M1.83325 7.73237L4.5653 7.00032L5.29735 9.73237M10.8333 14.667L8.83325 12.667L10.8333 10.667" stroke="#ED1A70" stroke-width="1.5" stroke-linecap="round" stroke-linejoin="round"/>
</g>
</svg>
