<svg width="16" height="17" viewBox="0 0 16 17" fill="none" xmlns="http://www.w3.org/2000/svg">
<g id="link-03">
<path id="Icon" d="M6.66668 9.16599C6.95298 9.54875 7.31825 9.86545 7.73771 10.0946C8.15717 10.3238 8.62102 10.4601 9.09778 10.4942C9.57454 10.5284 10.0531 10.4596 10.5009 10.2925C10.9487 10.1255 11.3554 9.86404 11.6933 9.52599L13.6933 7.52599C14.3005 6.89732 14.6365 6.05531 14.6289 5.18132C14.6213 4.30733 14.2708 3.47129 13.6527 2.85326C13.0347 2.23524 12.1987 1.88467 11.3247 1.87708C10.4507 1.86948 9.60869 2.20547 8.98001 2.81266L7.83334 3.95266M9.33334 7.83266C9.04704 7.44991 8.68177 7.1332 8.26231 6.90403C7.84285 6.67486 7.37901 6.53858 6.90224 6.50444C6.42548 6.47029 5.94695 6.53908 5.49911 6.70614C5.05128 6.8732 4.6446 7.13461 4.30668 7.47266L2.30668 9.47266C1.69948 10.1013 1.3635 10.9433 1.3711 11.8173C1.37869 12.6913 1.72926 13.5274 2.34728 14.1454C2.96531 14.7634 3.80135 15.114 4.67534 15.1216C5.54933 15.1292 6.39134 14.7932 7.02001 14.186L8.16001 13.046" stroke="#2C25EB" stroke-width="1.5" stroke-linecap="round" stroke-linejoin="round"/>
</g>
</svg>
