<svg width="17" height="16" viewBox="0 0 17 16" fill="none" xmlns="http://www.w3.org/2000/svg">
<g id="pie-chart-03">
<path id="Icon" d="M8.49992 1.33398C9.3754 1.33398 10.2423 1.50642 11.0511 1.84145C11.86 2.17649 12.5949 2.66755 13.214 3.28661C13.833 3.90567 14.3241 4.64059 14.6591 5.44943C14.9941 6.25827 15.1666 7.12518 15.1666 8.00066M8.49992 1.33398V8.00065M8.49992 1.33398C4.81802 1.33398 1.83325 4.31875 1.83325 8.00065C1.83325 11.6825 4.81802 14.6673 8.49992 14.6673C12.1818 14.6673 15.1666 11.6826 15.1666 8.00066M8.49992 1.33398C12.1818 1.33398 15.1666 4.31876 15.1666 8.00066M15.1666 8.00066L8.49992 8.00065M15.1666 8.00066C15.1666 9.05273 14.9176 10.0899 14.44 11.0273C13.9623 11.9647 13.2696 12.7757 12.4185 13.3941L8.49992 8.00065" stroke="#6DC289" stroke-width="1.5" stroke-linecap="round" stroke-linejoin="round"/>
</g>
</svg>
