<svg width="17" height="16" viewBox="0 0 17 16" fill="none" xmlns="http://www.w3.org/2000/svg">
<g id="file-02">
<path id="Icon" d="M9.83341 7.33398H5.83341M7.16675 10.0007H5.83341M11.1667 4.66732H5.83341M13.8334 4.53398V11.4673C13.8334 12.5874 13.8334 13.1475 13.6154 13.5753C13.4237 13.9516 13.1177 14.2576 12.7414 14.4493C12.3136 14.6673 11.7535 14.6673 10.6334 14.6673H6.36675C5.24664 14.6673 4.68659 14.6673 4.25877 14.4493C3.88244 14.2576 3.57648 13.9516 3.38473 13.5753C3.16675 13.1475 3.16675 12.5874 3.16675 11.4673V4.53398C3.16675 3.41388 3.16675 2.85383 3.38473 2.426C3.57648 2.04968 3.88244 1.74372 4.25877 1.55197C4.68659 1.33398 5.24664 1.33398 6.36675 1.33398H10.6334C11.7535 1.33398 12.3136 1.33398 12.7414 1.55197C13.1177 1.74372 13.4237 2.04968 13.6154 2.426C13.8334 2.85383 13.8334 3.41388 13.8334 4.53398Z" stroke="#F79009" stroke-width="1.5" stroke-linecap="round" stroke-linejoin="round"/>
</g>
</svg>
