<svg width="17" height="16" viewBox="0 0 17 16" fill="none" xmlns="http://www.w3.org/2000/svg">
<g id="speedometer-04">
<path id="Icon" d="M12.3301 10.6673C12.8574 9.91141 13.1666 8.99214 13.1666 8.00065C13.1666 7.65739 13.1295 7.32279 13.0592 7.00062M4.66971 10.6673C4.14246 9.91143 3.83325 8.99215 3.83325 8.00065C3.83325 5.42332 5.92259 3.33398 8.49992 3.33398C8.78134 3.33398 9.05695 3.3589 9.32465 3.40663M11.4999 5.00065L8.49986 8.00065M15.1666 8.00065C15.1666 11.6826 12.1818 14.6673 8.49992 14.6673C4.81802 14.6673 1.83325 11.6826 1.83325 8.00065C1.83325 4.31875 4.81802 1.33398 8.49992 1.33398C12.1818 1.33398 15.1666 4.31875 15.1666 8.00065ZM9.16659 8.00065C9.16659 8.36884 8.86811 8.66732 8.49992 8.66732C8.13173 8.66732 7.83325 8.36884 7.83325 8.00065C7.83325 7.63246 8.13173 7.33398 8.49992 7.33398C8.86811 7.33398 9.16659 7.63246 9.16659 8.00065Z" stroke="#DB5104" stroke-width="1.5" stroke-linecap="round" stroke-linejoin="round"/>
</g>
</svg>
