<svg width="255" height="264" viewBox="0 0 255 264" fill="none" xmlns="http://www.w3.org/2000/svg">
<rect x="18.5" y="19" width="217.5" height="217.5" rx="108.75" fill="#EAF8F8"/>
<rect x="18.5" y="19" width="217.5" height="217.5" rx="108.75" stroke="#F7FCFC" stroke-width="36.25"/>
<path d="M106.859 127.75L120.453 141.344L147.641 114.156M172.562 127.75C172.562 152.775 152.275 173.062 127.25 173.062C102.225 173.062 81.9375 152.775 81.9375 127.75C81.9375 102.725 102.225 82.4375 127.25 82.4375C152.275 82.4375 172.562 102.725 172.562 127.75Z" stroke="#259792" stroke-width="9.0625" stroke-linecap="round" stroke-linejoin="round"/>
<circle cx="63.2796" cy="220.05" r="41.124" fill="#F6F7F9" stroke="white" stroke-width="5.48319"/>
<path d="M60.4926 231.739C59.9588 230.247 58.8875 229.227 57.6497 229.227H50.8029C50.8029 229.227 47.6788 229.229 47.214 225.741L45.6797 227.582L46.0489 231.957C46.0489 231.957 46.7854 237.289 50.8029 238.525H57.6497C57.6497 238.525 59.3332 238.004 59.9129 237.162C60.4926 236.321 60.8503 235.158 60.8503 233.874C60.8503 233.105 60.7202 232.378 60.4926 231.739Z" fill="url(#paint0_linear_594_3525)"/>
<path d="M81.7617 204.37C81.6756 204.649 81.5799 204.94 81.4747 205.235C81.4728 205.241 81.4709 205.246 81.469 205.252C80.5124 207.934 78.7199 211.104 75.5997 211.104H55.7095C48.9047 211.104 50.6743 217.119 50.7145 217.253C44.476 201.581 55.7095 201.581 55.7095 201.581H80.3039C81.2126 201.717 82.2992 202.291 81.7617 204.37Z" fill="url(#paint1_linear_594_3525)"/>
<path d="M71.4465 217.169C70.7272 215.641 69.279 214.596 67.6089 214.596H57.7107H50.3645C50.3645 214.596 41.2946 214.596 46.3317 230.268C46.2992 230.134 44.8701 224.119 50.3645 224.119H57.7107H66.4208H67.6089C68.8007 224.119 69.8816 223.586 70.664 222.725C71.4465 221.862 71.9286 220.672 71.9286 219.358C71.9286 218.57 71.7564 217.825 71.4465 217.169Z" fill="url(#paint2_linear_594_3525)"/>
<defs>
<linearGradient id="paint0_linear_594_3525" x1="59.6159" y1="225.733" x2="47.0024" y2="237.753" gradientUnits="userSpaceOnUse">
<stop stop-color="#E21C23"/>
<stop offset="1" stop-color="#AE1E22"/>
</linearGradient>
<linearGradient id="paint1_linear_594_3525" x1="48.8281" y1="212.923" x2="64.9002" y2="191.291" gradientUnits="userSpaceOnUse">
<stop stop-color="#ED1A70"/>
<stop offset="1" stop-color="#F15D2F"/>
</linearGradient>
<linearGradient id="paint2_linear_594_3525" x1="69.4121" y1="214.547" x2="56.4878" y2="233.322" gradientUnits="userSpaceOnUse">
<stop stop-color="#6AC28C"/>
<stop offset="1" stop-color="#38BDB1"/>
</linearGradient>
</defs>
</svg>
